<svg id="Calque_1" data-name="Calque 1" xmlns="http://www.w3.org/2000/svg" viewBox="0 0 1650.62 240"><defs><style>.cls-1{fill:#1d1d1b;}.cls-2{fill:#ff623e;}</style></defs><polygon class="cls-1" points="150 220 105 20 85 0 45.01 0 0 200 20 220 61.01 220 67.75 190 86.75 190 89 200 109 220 150 220"/><path class="cls-2" d="M117.37,229h41l-45-200h-40l-45,200h41l6.75-30h34.49ZM85.13,159l8.25-36.65L101.62,159Z" transform="translate(-28.38 -29)"/><polygon class="cls-1" points="313.62 0 273.62 0 273.62 77.04 243.62 20.01 243.62 20 223.62 0.01 223.62 0 183.62 0 183.62 200 203.62 220 243.62 220 243.62 123.95 283.63 200 303.63 220 333.62 220 333.62 20 313.62 0"/><polygon class="cls-2" points="273.62 0 273.62 95.06 223.62 0.01 223.62 0 183.62 0 183.62 200 223.62 200 223.62 85.93 283.63 200 313.62 200 313.62 0 273.62 0"/><path class="cls-1" d="M997,49H977a50,50,0,0,0-50,50V199a50,50,0,0,0,14.64,35.36l20,20A50,50,0,0,0,997,269h20a50,50,0,0,0,50-50V119a50,50,0,0,0-14.64-35.36l-20-20A50,50,0,0,0,997,49Zm0,60h10v90a10,10,0,0,1-10,10H987V119A10,10,0,0,1,997,109Z" transform="translate(-28.38 -29)"/><path class="cls-2" d="M927,99V199a50,50,0,0,0,50,50h20a50,50,0,0,0,50-50V99a50,50,0,0,0-50-50H977A50,50,0,0,0,927,99Zm70,110H977a10,10,0,0,1-10-10V99a10,10,0,0,1,10-10h20a10,10,0,0,1,10,10V199A10,10,0,0,1,997,209Z" transform="translate(-28.38 -29)"/><path class="cls-1" d="M1486,189h-40v10a10,10,0,0,1-10,10h-10V119a10,10,0,0,1,10-10h10l20,20h40V119a50,50,0,0,0-14.64-35.36l-20-20A50,50,0,0,0,1436,49h-20a50,50,0,0,0-50,50V199a50,50,0,0,0,14.64,35.36l20,20A50,50,0,0,0,1436,269h20a50,50,0,0,0,50-50V209Z" transform="translate(-28.38 -29)"/><path class="cls-2" d="M1366,99V199a50,50,0,0,0,50,50h20a50,50,0,0,0,50-50V189h-40v10a10,10,0,0,1-10,10h-20a10,10,0,0,1-10-10V99a10,10,0,0,1,10-10h20a10,10,0,0,1,10,10v10h40V99a50,50,0,0,0-50-50h-20A50,50,0,0,0,1366,99Z" transform="translate(-28.38 -29)"/><polygon class="cls-1" points="579.62 4 539.62 4 539.62 204 559.62 224 599.62 224 599.62 24 579.62 4"/><rect class="cls-2" x="539.62" y="4" width="40" height="200"/><polygon class="cls-1" points="506.62 24 486.62 4 366.62 4 366.62 44 386.62 64 406.62 64 406.62 204 426.62 224 466.62 224 466.62 64 506.62 64 506.62 24"/><polygon class="cls-2" points="486.62 4 366.62 4 366.62 44 406.62 44 406.62 204 446.62 204 446.62 44 486.62 44 486.62 4"/><path class="cls-1" d="M1619,103l20,20h40V113a50,50,0,0,0-14.64-35.36l-20-20A50,50,0,0,0,1609,43h-20a50,50,0,0,0-50,50v17a50,50,0,0,0,14.64,35.36l20,20a50,50,0,0,0,24.4,13.43l21,4.71V193a10,10,0,0,1-10,10h-10l-20-20h-40v10a50,50,0,0,0,14.64,35.36l20,20A50,50,0,0,0,1609,263h20a50,50,0,0,0,50-50V196a50,50,0,0,0-14.64-35.36l-20-20a50,50,0,0,0-24.4-13.43l-21-4.71V113a10,10,0,0,1,10-10Z" transform="translate(-28.38 -29)"/><path class="cls-2" d="M1539,93v17a50,50,0,0,0,39,48.78l33.15,7.45A10,10,0,0,1,1619,176v17a10,10,0,0,1-10,10h-20a10,10,0,0,1-10-10V183h-40v10a50,50,0,0,0,50,50h20a50,50,0,0,0,50-50V176a50,50,0,0,0-39-48.78l-33.15-7.45A10,10,0,0,1,1579,110V93a10,10,0,0,1,10-10h20a10,10,0,0,1,10,10v10h40V93a50,50,0,0,0-50-50h-20A50,50,0,0,0,1539,93Z" transform="translate(-28.38 -29)"/><path class="cls-1" d="M801,123V103a50,50,0,0,0-14.64-35.36l-20-20A50,50,0,0,0,731,33H661V233l20,20h70a50,50,0,0,0,50-50V183a40,40,0,0,0-11.72-28.29l-1.77-1.77A39.89,39.89,0,0,0,801,123Zm-60,60a10,10,0,0,1-10,10H721V173h20Zm0-80a10,10,0,0,1-10,10H721V93h20Z" transform="translate(-28.38 -29)"/><path class="cls-2" d="M781,103V83a50,50,0,0,0-50-50H661V233h70a50,50,0,0,0,50-50V163a39.9,39.9,0,0,0-13.56-30A39.9,39.9,0,0,0,781,103ZM701,73h30a10,10,0,0,1,10,10v20a10,10,0,0,1-10,10H701Zm30,120H701V153h30a10,10,0,0,1,10,10v20A10,10,0,0,1,731,193Z" transform="translate(-28.38 -29)"/><polygon class="cls-1" points="845.62 14 805.62 14 805.62 214 825.62 234 865.62 234 865.62 34 845.62 14"/><rect class="cls-2" x="805.62" y="14" width="40" height="200"/><polygon class="cls-1" points="1211.62 34 1191.62 14 1071.62 14 1071.62 54 1091.62 74 1111.62 74 1111.62 214 1131.62 234 1171.62 234 1171.62 74 1211.62 74 1211.62 34"/><polygon class="cls-2" points="1191.62 14 1071.62 14 1071.62 54 1111.62 54 1111.62 214 1151.62 214 1151.62 54 1191.62 54 1191.62 14"/><polygon class="cls-1" points="1284.62 20 1244.62 20 1244.62 220 1264.62 240 1304.62 240 1304.62 40 1284.62 20"/><rect class="cls-2" x="1244.62" y="20" width="40" height="200"/></svg>