<svg id="Calque_1" data-name="Calque 1" xmlns="http://www.w3.org/2000/svg" viewBox="0 0 1500.62 248"><defs><style>.cls-1{fill:#1d1d1b;}.cls-2{fill:#f44336;}</style></defs><path class="cls-1" d="M911,54H891a50,50,0,0,0-50,50V204a50,50,0,0,0,14.64,35.36l20,20A50,50,0,0,0,911,274h20a50,50,0,0,0,50-50V124a50,50,0,0,0-14.64-35.36l-20-20A50,50,0,0,0,911,54Zm0,60h10v90a10,10,0,0,1-10,10H901V124A10,10,0,0,1,911,114Z" transform="translate(-26.38 -34)"/><path class="cls-2" d="M841,104V204a50,50,0,0,0,50,50h20a50,50,0,0,0,50-50V104a50,50,0,0,0-50-50H891A50,50,0,0,0,841,104Zm70,110H891a10,10,0,0,1-10-10V104a10,10,0,0,1,10-10h20a10,10,0,0,1,10,10V204A10,10,0,0,1,911,214Z" transform="translate(-26.38 -34)"/><path class="cls-1" d="M1358,202h-40v10a10,10,0,0,1-10,10h-10V132a10,10,0,0,1,10-10h10l20,20h40V132a50,50,0,0,0-14.64-35.36l-20-20A50,50,0,0,0,1308,62h-20a50,50,0,0,0-50,50V212a50,50,0,0,0,14.64,35.36l20,20A50,50,0,0,0,1308,282h20a50,50,0,0,0,50-50V222Z" transform="translate(-26.38 -34)"/><path class="cls-2" d="M1238,112V212a50,50,0,0,0,50,50h20a50,50,0,0,0,50-50V202h-40v10a10,10,0,0,1-10,10h-20a10,10,0,0,1-10-10V112a10,10,0,0,1,10-10h20a10,10,0,0,1,10,10v10h40V112a50,50,0,0,0-50-50h-20A50,50,0,0,0,1238,112Z" transform="translate(-26.38 -34)"/><polygon class="cls-1" points="150 220 105 20 85 0 45.01 0 0 200 20 220 61.01 220 67.75 190 86.75 190 89 200 109 220 150 220"/><path class="cls-2" d="M115.37,234h41l-45-200h-40l-45,200h41l6.75-30h34.49ZM83.13,164l8.25-36.65L99.62,164Z" transform="translate(-26.38 -34)"/><polygon class="cls-1" points="537.62 10 497.62 10 497.62 210 517.62 230 557.62 230 557.62 30 537.62 10"/><rect class="cls-2" x="497.62" y="10" width="40" height="200"/><polygon class="cls-1" points="478.62 25 458.62 5 338.62 5 338.62 45 358.62 65 378.62 65 378.62 205 398.62 225 438.62 225 438.62 65 478.62 65 478.62 25"/><polygon class="cls-2" points="458.62 5 338.62 5 338.62 45 378.62 45 378.62 205 418.62 205 418.62 45 458.62 45 458.62 5"/><polygon class="cls-1" points="299.62 5 259.62 5 259.62 82.04 229.62 25.01 229.62 25 209.62 5.01 209.62 5 169.62 5 169.62 205 189.62 225 229.62 225 229.62 128.95 269.63 205 289.63 225 319.62 225 319.62 25 299.62 5"/><polygon class="cls-2" points="259.62 5 259.62 100.06 209.62 5.01 209.62 5 169.62 5 169.62 205 209.62 205 209.62 90.93 269.63 205 299.62 205 299.62 5 259.62 5"/><path class="cls-1" d="M1467,122l20,20h40V132a50,50,0,0,0-14.64-35.36l-20-20A50,50,0,0,0,1457,62h-20a50,50,0,0,0-50,50v17a50,50,0,0,0,14.64,35.36l20,20a50,50,0,0,0,24.4,13.43l21,4.71V212a10,10,0,0,1-10,10h-10l-20-20h-40v10a50,50,0,0,0,14.64,35.36l20,20A50,50,0,0,0,1457,282h20a50,50,0,0,0,50-50V215a50,50,0,0,0-14.64-35.36l-20-20a50,50,0,0,0-24.4-13.43l-21-4.71V132a10,10,0,0,1,10-10Z" transform="translate(-26.38 -34)"/><path class="cls-2" d="M1387,112v17a50,50,0,0,0,39,48.78l33.15,7.45A10,10,0,0,1,1467,195v17a10,10,0,0,1-10,10h-20a10,10,0,0,1-10-10V202h-40v10a50,50,0,0,0,50,50h20a50,50,0,0,0,50-50V195a50,50,0,0,0-39-48.78l-33.15-7.45A10,10,0,0,1,1427,129V112a10,10,0,0,1,10-10h20a10,10,0,0,1,10,10v10h40V112a50,50,0,0,0-50-50h-20A50,50,0,0,0,1387,112Z" transform="translate(-26.38 -34)"/><path class="cls-1" d="M743,134V114a50,50,0,0,0-14.64-35.36l-20-20A50,50,0,0,0,673,44H603V244l20,20h70a50,50,0,0,0,50-50V194a40,40,0,0,0-11.72-28.29l-1.77-1.77A39.89,39.89,0,0,0,743,134Zm-60,60a10,10,0,0,1-10,10H663V184h20Zm0-80a10,10,0,0,1-10,10H663V104h20Z" transform="translate(-26.38 -34)"/><path class="cls-2" d="M723,114V94a50,50,0,0,0-50-50H603V244h70a50,50,0,0,0,50-50V174a39.9,39.9,0,0,0-13.56-30A39.9,39.9,0,0,0,723,114ZM643,84h30a10,10,0,0,1,10,10v20a10,10,0,0,1-10,10H643Zm30,120H643V164h30a10,10,0,0,1,10,10v20A10,10,0,0,1,673,204Z" transform="translate(-26.38 -34)"/><polygon class="cls-1" points="775.62 20 735.62 20 735.62 220 755.62 240 795.62 240 795.62 40 775.62 20"/><rect class="cls-2" x="735.62" y="20" width="40" height="200"/><polygon class="cls-1" points="1113.62 40 1093.62 20 973.62 20 973.62 60 993.62 80 1013.62 80 1013.62 220 1033.62 240 1073.62 240 1073.62 80 1113.62 80 1113.62 40"/><polygon class="cls-2" points="1093.62 20 973.62 20 973.62 60 1013.62 60 1013.62 220 1053.62 220 1053.62 60 1093.62 60 1093.62 20"/><polygon class="cls-1" points="1172.62 28 1132.62 28 1132.62 228 1152.62 248 1192.62 248 1192.62 48 1172.62 28"/><rect class="cls-2" x="1132.62" y="28" width="40" height="200"/></svg>