<svg id="Calque_1" data-name="Calque 1" xmlns="http://www.w3.org/2000/svg" viewBox="0 0 63.38 148.64"><defs><style>.cls-1{fill:#fff;}.cls-2{fill:#93c92b;}.cls-3{fill:#ff623e;}.cls-4{fill:#e6e6e6;}.cls-5{fill:#ccc;}.cls-6{fill:#d64136;}</style></defs><path class="cls-1" d="M544.31,99.31" transform="translate(-26.63 -38.99)"/><path class="cls-1" d="M-55.69,99.31" transform="translate(-26.63 -38.99)"/><path class="cls-2" d="M58.32,187.62h0Z" transform="translate(-26.63 -38.99)"/><path class="cls-3" d="M90,155.79V113.13H26.63v42.66a31.69,31.69,0,1,0,63.37,0Z" transform="translate(-26.63 -38.99)"/><path class="cls-4" d="M90,70.82a31.69,31.69,0,1,0-63.37,0v42.54H90Z" transform="translate(-26.63 -38.99)"/><path class="cls-5" d="M58.32,39a32.11,32.11,0,0,0-5.41.49c15.28,0,26.27,15.66,26.27,31.34v42.54H90V70.82A31.83,31.83,0,0,0,58.32,39Z" transform="translate(-26.63 -38.99)"/><path class="cls-6" d="M86.94,113.13H79.18v42.66c0,15.68-11,31.34-26.27,31.34a31.1,31.1,0,0,0,5.41.49A31.83,31.83,0,0,0,90,155.79V113.13Z" transform="translate(-26.63 -38.99)"/><path class="cls-1" d="M51.55,49.55a3.93,3.93,0,0,0-3.38-1.93,4,4,0,0,0-2,.54A29.06,29.06,0,0,0,32,73.17c0,3,0,6.11,0,9.06v.32c0,1.39,0,2.78,0,4.17v51.7c0,1.5,0,3,0,4.59,0,2.93,0,6,0,9a29.74,29.74,0,0,0,5.32,16.75,3.92,3.92,0,1,0,6.43-4.5,21.72,21.72,0,0,1-3.9-12.33c0-3,0-6.18,0-9v-.37c0-1.38,0-2.76,0-4.14V86.72c0-1.39,0-2.79,0-4.21v-.34c0-2.91,0-5.93,0-8.92A21.24,21.24,0,0,1,50.17,54.92a3.93,3.93,0,0,0,1.38-5.37Z" transform="translate(-26.63 -38.99)"/></svg>