<svg id="Calque_1" data-name="Calque 1" xmlns="http://www.w3.org/2000/svg" viewBox="0 0 492.4 705.59"><defs><style>.cls-1{fill:#1d1d1b;opacity:0.56;}.cls-2,.cls-8{fill:none;}.cls-2,.cls-3{stroke:#e84b3c;stroke-width:6px;}.cls-2,.cls-3,.cls-8{stroke-miterlimit:10;}.cls-3,.cls-4{fill:#e84b3c;}.cls-5{fill:#c704c5;}.cls-6{fill:#ec7e00;}.cls-7{fill:#f3a304;}.cls-8{stroke:#01ba67;stroke-width:45px;}.cls-9{fill:#aa3226;}.cls-10{fill:#cc4434;}.cls-11{fill:#00bb6c;}.cls-12{fill:#73faad;}.cls-13{fill:#29235c;}.cls-14{fill:#2d2e82;}.cls-15{fill:#7b241c;}.cls-16{fill:#641d15;}.cls-17{fill:#932b21;}.cls-18{fill:#e5b0aa;}.cls-19{fill:#c03a2a;}.cls-20{fill:#cd6155;}.cls-21{fill:#f2958b;}.cls-22{fill:#fadbd8;}.cls-23{fill:#ee7163;}.cls-24{fill:#faebea;}.cls-25{fill:#ebbc00;}</style></defs><ellipse class="cls-1" cx="259.6" cy="626.05" rx="232.81" ry="79.54"/><line class="cls-2" x1="106.34" y1="602.69" x2="193.79" y2="511"/><line class="cls-3" x1="191.62" y1="514.23" x2="228.84" y2="550.88"/><ellipse class="cls-4" cx="106.04" cy="603.07" rx="3.75" ry="3.67"/><ellipse class="cls-4" cx="461.56" cy="778.52" rx="4.28" ry="3.75" transform="translate(-611.32 888.82) rotate(-81.32)"/><line class="cls-2" x1="417.78" y1="512.38" x2="299.64" y2="463.63"/><line class="cls-3" x1="302.97" y1="465.72" x2="284.32" y2="514.04"/><ellipse class="cls-4" cx="418.21" cy="512.61" rx="3.75" ry="3.67"/><ellipse class="cls-4" cx="518.39" cy="741.39" rx="3.73" ry="4.31" transform="translate(-568.03 211.2) rotate(-35.55)"/><polygon class="cls-5" points="313.48 573.33 275.56 566.39 297.15 539.16 313.48 573.33"/><ellipse class="cls-6" cx="495.53" cy="766.84" rx="44.92" ry="34.11" transform="translate(-632.06 353.07) rotate(-45.42)"/><ellipse class="cls-7" cx="489.79" cy="763.36" rx="43.57" ry="26.83" transform="translate(-634.33 362.95) rotate(-46.38)"/><ellipse class="cls-6" cx="482.1" cy="758.84" rx="31.23" ry="16.88" transform="translate(-634.21 359.91) rotate(-46.64)"/><path class="cls-8" d="M473.06,749.55c-23.51-18-116.79-93.37-76.87-175,7.81-16,19.59-29.86,32.92-41.79" transform="translate(-233.6 -228.41)"/><path class="cls-9" d="M461.52,514.49" transform="translate(-233.6 -228.41)"/><path class="cls-10" d="M529.51,571.15" transform="translate(-233.6 -228.41)"/><circle class="cls-11" cx="239.22" cy="521.77" r="25.18"/><path class="cls-12" d="M404.94,670.16l.87-.76c3.78-3.26,10.17-2.23,14.27,2.3l35.17,38.9c4.1,4.54,4.36,10.86.57,14.13l-.87.75c-3.78,3.26-10.17,2.24-14.27-2.3l-35.17-38.9C401.41,679.74,401.16,673.42,404.94,670.16Z" transform="translate(-233.6 -228.41)"/><path class="cls-12" d="M429.37,534.11l1,.61a9,9,0,0,1,2.83,12.51l-23.62,36.16a9.37,9.37,0,0,1-12.78,2.76l-1-.61A8.94,8.94,0,0,1,393,573l23.61-36.16A9.39,9.39,0,0,1,429.37,534.11Z" transform="translate(-233.6 -228.41)"/><ellipse class="cls-7" cx="193.26" cy="296.86" rx="58.83" ry="36.71"/><ellipse class="cls-6" cx="193.26" cy="286.46" rx="52.57" ry="27.53"/><polygon class="cls-13" points="86.97 90.97 164.18 201.2 195.15 50.94 86.97 90.97"/><polygon class="cls-14" points="195.15 50.94 86.97 90.97 118.42 20.36 195.15 50.94"/><polygon class="cls-4" points="86.97 90.97 57.65 96.78 170.64 250.3 179.88 223.62 86.97 90.97"/><polygon class="cls-15" points="192.79 275.66 179.55 288 170.64 250.3 179.88 223.62 192.79 275.66"/><polygon class="cls-16" points="164.18 201.2 179.88 223.62 215.24 34.56 195.15 50.94 164.18 201.2"/><polygon class="cls-9" points="195.15 50.94 215.24 34.56 127.87 0 118.42 20.36 195.15 50.94"/><polygon class="cls-17" points="86.97 90.97 57.65 96.78 102.48 2.4 127.87 0 86.97 90.97"/><polygon class="cls-18" points="57.65 96.78 0 108.09 102.48 2.4 57.65 96.78"/><polygon class="cls-19" points="57.65 96.78 0 108.09 40.93 257.55 57.65 96.78"/><polygon class="cls-20" points="170.64 250.3 56.89 94.3 41.17 256.23 170.64 250.3"/><polygon class="cls-9" points="179.55 288 170.64 250.3 42.34 255.8 179.55 288"/><polygon class="cls-21" points="412.56 123.75 350.92 104.36 314.33 9.7 412.56 123.75"/><polygon class="cls-22" points="350.92 104.36 223.62 63.44 229.62 252.31 350.92 104.36"/><polygon class="cls-4" points="411.99 123.46 350.35 104.06 356.59 264.56 411.99 123.46"/><polygon class="cls-23" points="356.61 267.87 350.35 104.06 228.3 252.14 356.61 267.87"/><polygon class="cls-10" points="357.22 266.94 229.05 252.01 215.15 288.15 357.22 266.94"/><polygon class="cls-24" points="313.77 9.41 350.36 104.06 223.07 63.15 313.77 9.41"/><path class="cls-12" d="M394.07,622.38l4.26-.84a6.9,6.9,0,0,1,8.13,5.28l3.38,16.33a6.76,6.76,0,0,1-5.41,8l-4.25.85a6.92,6.92,0,0,1-8.14-5.29l-3.37-16.32A6.76,6.76,0,0,1,394.07,622.38Z" transform="translate(-233.6 -228.41)"/><ellipse class="cls-25" cx="259.71" cy="576.04" rx="8.76" ry="8.57"/><line class="cls-2" x1="179.52" y1="679.16" x2="210.29" y2="557.46"/><line class="cls-3" x1="210.01" y1="561.31" x2="260.76" y2="575.63"/><ellipse class="cls-4" cx="179.44" cy="679.64" rx="3.75" ry="3.67"/><ellipse class="cls-4" cx="493.2" cy="803.79" rx="3.74" ry="4.3" transform="translate(-526.35 54.23) rotate(-24.92)"/><ellipse class="cls-25" cx="299.72" cy="525.87" rx="8.76" ry="8.57"/><line class="cls-2" x1="411.36" y1="599.96" x2="343.79" y2="493.41"/><line class="cls-3" x1="345.27" y1="496.99" x2="301.48" y2="525.88"/><ellipse class="cls-4" cx="411.58" cy="600.39" rx="3.75" ry="3.67"/><ellipse class="cls-4" cx="536.1" cy="753.7" rx="4.28" ry="3.75" transform="translate(-490.28 1001.68) rotate(-85.58)"/></svg>