<svg id="Calque_1" data-name="Calque 1" xmlns="http://www.w3.org/2000/svg" viewBox="0 0 351.33 370.41"><defs><style>.cls-1,.cls-2,.cls-3{fill:none;}.cls-2,.cls-3,.cls-4{stroke:#1d1d1b;stroke-miterlimit:10;}.cls-2{stroke-width:6px;}.cls-3{stroke-width:6.01px;}.cls-4,.cls-5{fill:#1d1d1b;}.cls-5{font-size:30px;font-family:MyriadPro-Regular, Myriad Pro;}.cls-6{letter-spacing:0.01em;}.cls-7{letter-spacing:-0.01em;}.cls-8{letter-spacing:0em;}.cls-9{letter-spacing:0em;}</style></defs><path class="cls-1" d="M147.32,162.22c-2.28-2.56-4-5.15-6.73-7.31a34.88,34.88,0,0,0-9.44-5.67c-2.53-.94-5.48,1.06-6.15,3.5-.77,2.8,1,5.19,3.49,6.15a23.41,23.41,0,0,1,6.56,4.32c2.08,1.76,3.4,4.06,5.2,6.08C144.55,174.1,151.6,167,147.32,162.22Z"/><path class="cls-1" d="M146.29,109.26c0-2.13,0-4.21.14-6.27,1.34-3.89,2.1-7.79.85-11.43-1.44-4.18-8.82-5.29-9.65,0-.49,3.21-1,6.43-1.26,9.67-.79,1.85-1.69,3.63-2.18,4.94-1.32,3.47-2,7-3,10.58s-2.86,7-4,10.54a66,66,0,0,0-2.23,11.33,5.36,5.36,0,0,0,.08,2c-4.81,2.35-2.12,10.73,3.74,9.26,3.83-1,8.23-.44,11.9-1.63,1.53-.49,3.23-1.77,3.49-3.49,1.23-8-2.24-16.5,0-24.35C145.21,116.46,146.3,113.39,146.29,109.26Z"/><path class="cls-1" d="M208.29,148.41a8.05,8.05,0,0,0-3.13,1.3c-4,1-8.26-1.91-11.83,1.58-3.8,3.72-4.22,9.7-8.16,13.38a4.36,4.36,0,0,0-1.23,5l-.4.53c-2.59,3.41-5.73,6.32-8.16,9.87-3.65,5.32,5,10.33,8.64,5,1.93-2.82,4.53-5.11,6.62-7.81a55.59,55.59,0,0,1,6.66-7.71c2.38-2.14,5-4,7.45-6.06,1-.83,2.95-3.14,4.55-4.48a18.76,18.76,0,0,0,2.84-1.49C217.12,154.4,213.77,147.46,208.29,148.41Z"/><path class="cls-1" d="M218.57,103c-1-9.12-2.06-18.23-2.29-27.41-.07-2.46-2.26-5.32-5-5a35.61,35.61,0,0,1-8.19-.08c-2.52-.28-5.24-.85-7.41.84-4.35,3.4-1,8.66,1.34,12.08.91,1.31,1.91,2.59,2.9,3.89a4.82,4.82,0,0,0,.45,4c2.39,4.31,2.22,8.87,5.14,12.82a21,21,0,0,0,.49,3.36c.35,1.47.81,2.9,1.27,4.33a29.51,29.51,0,0,0,1.27,4.77,5.46,5.46,0,0,0,1.67,2.43,11.75,11.75,0,0,1-.83,4.46c-2.45,5.94,7.22,8.53,9.65,2.65C221.88,119.22,219.37,110.17,218.57,103Z"/><path class="cls-1" d="M188,70.43l-12.9.78a5.19,5.19,0,0,0-4.72,6.32c-1.11,2.67-.73,6.3-.47,9.23.61,7,2,14.48,1.65,21.54,0,.37-.06.72-.11,1.07a40.89,40.89,0,0,0-1.85,4.94c-.25.85-.45,1.73-.63,2.61-.24.65-.47,1.31-.66,2a18.56,18.56,0,0,0-.53,7.13h0c.05.44.11.88.18,1.33,1,6.1,9.16,3.69,9.82-1.33.3-2.33.52-4.68,1-7,.6-1.4,1.29-2.77,1.69-4.07a23.31,23.31,0,0,0,.67-2.87c1.31-3,2.77-5.83,4-8.82,3.3-8.26,3.61-17.14,7.23-25.37C193.72,74.77,192.17,70.17,188,70.43Z"/><path class="cls-1" d="M152.82,37.63c-1.9,4.53-6.22,8.78-9.15,12.7l-.95,1.26a4.77,4.77,0,0,0-4.69,2.3c-1.49,2.36-4,3.54-6.25,5.11a25.9,25.9,0,0,0-5.9,5.64c-3,3.94,2,7.87,5.64,7.35A26.5,26.5,0,0,0,137,70.3a42.64,42.64,0,0,1,5.37-1.1c3.69-.83,4.52-3.83,5.76-6.92,3.27-8.17,11-13.85,14.38-22C165,34.36,155.28,31.77,152.82,37.63Z"/><path class="cls-1" d="M137.16,70c-4.49,1.7-9.7.08-14,2.28-2.07,1-2.71,3.54-2.3,5.64C121.72,82.42,123,86,122,90.83c-1.1,5.36-2.56,10-2.2,15.63a4.88,4.88,0,0,0,2.16,3.86,10.65,10.65,0,0,0-1,2.89c-.71,3.77.11,7.48-.84,11.32-1.54,6.24,8.1,8.91,9.65,2.66,1-3.93.56-7.62,1-11.5.32-2.81,3-5.39,4-8.11,2.43-6.7,2.91-14.57,3.88-21.75,2.09-3.06,4-5.9,4.67-9.7C143.92,72.77,141.05,68.5,137.16,70Z"/><path class="cls-1" d="M210.28,61.32a4.48,4.48,0,0,0-2.37-3c-5-2.75-8.74-7.71-12.76-11.8-1.3-1.32-2.74-2.61-4.16-3.94-2-2.48-4.14-4.85-6.27-7.5-3.65-4.54-10.52,1.26-7.85,6.06,2,3.65,4.95,6.44,7.91,9.25.33.46.64.92.93,1.4,2.23,3.77,3.74,8.08,5.56,12.05,3.62,7.89,10.45,7.19,18.27,7.41C215.72,71.42,216,62.22,210.28,61.32Z"/><path class="cls-1" d="M216,142.06c-2.31-5.27-2.36-11.15-4.28-16.56-1.5-4.24-3.2-9.94-6.51-13.09a5.45,5.45,0,0,0-1.41-1c-.13-5.73-.1-11.46-.37-17.23-.3-6.41-10.3-6.44-10,0,.55,11.78.18,23.34,1.75,35.07-2.45,3.53-2.36,10.37-1.87,14.65.36,3.19,2.9,5.73,6.33,4.82,1.28-.34,3.67.31,5,.41,1.91.14,3.83-.05,5.74.25C214.82,150.13,217.76,146.21,216,142.06Z"/><path class="cls-1" d="M170.29,97.38c-.45-4-1.63-8-1.94-12s.53-8.56-.42-12.53a4.94,4.94,0,0,0-3.49-3.49c-3.92-1-8.76,0-12.73.51-3.55.43-6.5,4-4.32,7.53A52.42,52.42,0,0,1,154,93.06c1.29,5.5,1.53,10.73,3.85,16a4.12,4.12,0,0,0,2.71,2.48c-.16,4.39-.41,8.79-.35,13.12.08,6.43,10.08,6.45,10,0C170.1,115.67,171.29,106.27,170.29,97.38Z"/><path class="cls-1" d="M184.27,148.87c-4.28,1.57-9.75,1.51-14.3,2.13-4.93.68-10.13,1.1-14.69-1.26-5.48-2.84-10.36,5-5.68,8.24a4.64,4.64,0,0,0,.64,1.93c2.45,4,4.88,8,7.53,11.92a27.23,27.23,0,0,0,1.68,2.24c1,4.78,1.59,9.84,4.71,14.11,2.43,3.34,7.9,3.24,9.13-1.2,1.45-5.18,4-9.78,5.81-14.89a40,40,0,0,1,10-14.86C192.62,153.93,189,147.12,184.27,148.87Z"/><path class="cls-1" d="M194.67,93.16c.21-6.44-9.79-6.43-10,0-.15,4.62.84,9.09.22,13.71-.14,1-.29,2-.43,3-2.73-.15-5.71,1.82-5.55,4.93a31.77,31.77,0,0,1-2.33,14.52c-1.77,4.06-4.86,7.41-5.22,12-.89,11.59,10.58,9.36,18.37,7.67a5,5,0,0,0,3.67-4.82c-.31-4.06.45-8.08.5-12.15,0-4.26-.37-8.52-.34-12.78s1-8.53,1.41-12.87S194.52,97.59,194.67,93.16Z"/><path class="cls-1" d="M169,141.14c1.32-7.68-5.2-17.1-7.88-23.52-3.54-8.46-3-18.16-7.61-26.16-2.42-4.21-9.48-2.48-9.32,2.53.43,12.91-1,25.88.38,38.76.43,4.06.39,10.8,3.64,13.82,1.94,1.79,4.7,1.71,7.17,1.9l9.95.74C170.11,149.57,171.32,144.15,169,141.14Z"/><path class="cls-1" d="M159.13,174.84a6.44,6.44,0,0,0-.9.07,5,5,0,0,0-1.22-3.62c-2.07-2.48-3.37-5.87-4.82-8.75s-1.48-6.09-2.88-8.91c-3.12-6.28-11.7-4-17.37-4.5-6.41-.57-6.37,9.43,0,10,.86.08,2.23.29,3.68.46-1.31,3,.14,7.25,4.36,7.25a4.86,4.86,0,0,0,2.73-.78,51.42,51.42,0,0,0,7.23,12.3,4,4,0,0,0,4.36,1.52,4.73,4.73,0,0,0,4.83,5C165.57,184.84,165.58,174.84,159.13,174.84Z"/><path class="cls-1" d="M189.3,61.76c-4-4.5-5.47-10.49-7.69-16s-5.21-11-8-16.38c-1.87-3.61-8.42-3.06-9.14,1.2-1,5.82-4.08,11.66-6.57,17-1.66,3.54-5.1,7.51-5.46,11.59-4.95.77-6.55,8.64-.86,9.67,5.08.93,10.29-.21,15.41-.37a64,64,0,0,1,17.45,1.62A5,5,0,0,0,189.3,61.76Z"/><rect class="cls-2" x="121.62" y="70" width="96.36" height="78.76"/><line class="cls-2" x1="169.8" y1="70" x2="169.8" y2="148.76"/><line class="cls-2" x1="121.62" y1="148.76" x2="145.75" y2="70.72"/><line class="cls-2" x1="145.75" y1="70.72" x2="169.8" y2="148.76"/><line class="cls-2" x1="193.86" y1="70.72" x2="169.8" y2="148.76"/><line class="cls-2" x1="217.98" y1="148.76" x2="193.86" y2="70.72"/><line class="cls-2" x1="145.75" y1="69.63" x2="169.8" y2="22.62"/><line class="cls-2" x1="193.86" y1="70" x2="169.8" y2="22.62"/><line class="cls-2" x1="218.88" y1="149.62" x2="169.85" y2="197.06"/><line class="cls-2" x1="145.75" y1="149.48" x2="169.8" y2="196.14"/><line class="cls-2" x1="193.86" y1="148.76" x2="169.8" y2="196.14"/><rect class="cls-3" x="168.94" y="22" width="1.71" height="1.71" transform="translate(33.57 126.76) rotate(-45)"/><polygon class="cls-2" points="167.73 264.46 171.97 264.46 171.97 195.01 167.73 195.07 167.73 264.46"/><rect class="cls-2" x="157.8" y="264.46" width="24.09" height="5.96"/><line class="cls-2" x1="148.89" y1="252.9" x2="47.37" y2="206.18"/><line class="cls-2" x1="19.43" y1="257.4" x2="51.16" y2="205"/><line class="cls-2" x1="143.92" y1="267.44" x2="72.43" y2="263.02"/><line class="cls-2" x1="61.29" y1="285.96" x2="75.21" y2="261.53"/><ellipse class="cls-4" cx="19.44" cy="257.34" rx="2.49" ry="2.53"/><ellipse class="cls-4" cx="61.31" cy="285.91" rx="2.49" ry="2.53"/><ellipse class="cls-4" cx="148.89" cy="252.9" rx="2.49" ry="2.53"/><ellipse class="cls-4" cx="143.92" cy="267.44" rx="2.49" ry="2.53"/><ellipse class="cls-4" cx="148.89" cy="281.94" rx="2.49" ry="2.53"/><line class="cls-2" x1="116.67" y1="319.4" x2="116.71" y2="305.07"/><line class="cls-2" x1="115.53" y1="307.43" x2="148.89" y2="281.94"/><ellipse class="cls-4" cx="116.67" cy="319.41" rx="2.49" ry="2.53"/><line class="cls-2" x1="190.88" y1="252.93" x2="292.4" y2="206.22"/><line class="cls-2" x1="320.34" y1="257.43" x2="288.61" y2="205.03"/><line class="cls-2" x1="195.85" y1="267.48" x2="267.34" y2="263.05"/><line class="cls-2" x1="278.48" y1="286" x2="264.56" y2="261.56"/><ellipse class="cls-4" cx="320.33" cy="257.37" rx="2.49" ry="2.53"/><ellipse class="cls-4" cx="278.46" cy="285.95" rx="2.49" ry="2.53"/><ellipse class="cls-4" cx="190.88" cy="252.93" rx="2.49" ry="2.53"/><ellipse class="cls-4" cx="195.85" cy="267.48" rx="2.49" ry="2.53"/><ellipse class="cls-4" cx="190.88" cy="281.98" rx="2.49" ry="2.53"/><line class="cls-2" x1="223.1" y1="319.44" x2="223.06" y2="305.1"/><line class="cls-2" x1="224.24" y1="307.47" x2="190.88" y2="281.98"/><ellipse class="cls-4" cx="223.1" cy="319.44" rx="2.49" ry="2.53"/><line class="cls-2" x1="120.72" y1="149.59" x2="169.81" y2="197.09"/><line class="cls-2" x1="218.88" y1="69.13" x2="169.84" y2="21.69"/><line class="cls-2" x1="120.71" y1="69.16" x2="169.81" y2="21.66"/><line class="cls-2" x1="145.75" y1="69.63" x2="145.75" y2="148.39"/><line class="cls-2" x1="193.86" y1="70.72" x2="193.86" y2="149.48"/><text class="cls-5" transform="translate(83.33 352.68)">Ba<tspan class="cls-6" x="30.72" y="0">c</tspan><tspan class="cls-7" x="44.55" y="0">t</tspan><tspan class="cls-8" x="54.3" y="0">e</tspan><tspan class="cls-9" x="69.33" y="0">r</tspan><tspan x="79.26" y="0">iophage</tspan></text></svg>