<svg id="Calque_1" data-name="Calque 1" xmlns="http://www.w3.org/2000/svg" viewBox="0 0 492.4 705.59"><defs><style>.cls-1,.cls-8{fill:none;}.cls-1,.cls-2{stroke:#3d405b;stroke-width:9px;}.cls-1,.cls-2,.cls-8{stroke-miterlimit:10;}.cls-2,.cls-5{fill:#e84b3c;}.cls-3{fill:#3d405b;}.cls-4{fill:#e6e6e6;opacity:0.56;}.cls-6{fill:#29235c;}.cls-7{fill:#2d2e82;}.cls-8{stroke:#ffc900;stroke-width:45px;}.cls-9{fill:#aa3226;}.cls-10{fill:#cc4434;}.cls-11{fill:#ffc900;}.cls-12{fill:#fff;}.cls-13{fill:#7b241c;}.cls-14{fill:#641d15;}.cls-15{fill:#932b21;}.cls-16{fill:#e5b0aa;}.cls-17{fill:#c03a2a;}.cls-18{fill:#73faad;}.cls-19{fill:#f2958b;}.cls-20{fill:#fadbd8;}.cls-21{fill:#ee7163;}.cls-22{fill:#faebea;}.cls-23{fill:#cd6155;}</style></defs><line class="cls-1" x1="413.74" y1="513.23" x2="301.9" y2="453.69"/><line class="cls-2" x1="304.97" y1="456.07" x2="281.17" y2="502.57"/><circle class="cls-3" cx="281.17" cy="502.79" r="4.5"/><circle class="cls-3" cx="413.01" cy="512.93" r="4.5"/><ellipse class="cls-4" cx="259.6" cy="626.05" rx="232.81" ry="79.54"/><line class="cls-1" x1="111.34" y1="604.69" x2="198.79" y2="513"/><line class="cls-2" x1="196.62" y1="516.23" x2="233.84" y2="552.88"/><circle class="cls-3" cx="233.9" cy="553.09" r="4.5"/><circle class="cls-3" cx="111.94" cy="604.17" r="4.5"/><ellipse class="cls-5" cx="461.56" cy="778.52" rx="4.28" ry="3.75" transform="translate(-611.32 888.82) rotate(-81.32)"/><polygon class="cls-5" points="313.48 573.33 275.56 566.39 297.15 539.16 313.48 573.33"/><ellipse class="cls-6" cx="495.53" cy="766.84" rx="44.92" ry="34.11" transform="translate(-632.06 353.07) rotate(-45.42)"/><ellipse class="cls-7" cx="489.79" cy="763.36" rx="43.57" ry="26.83" transform="translate(-634.33 362.95) rotate(-46.38)"/><ellipse class="cls-6" cx="482.1" cy="758.84" rx="31.23" ry="16.88" transform="translate(-634.21 359.91) rotate(-46.64)"/><path class="cls-8" d="M473.06,749.55c-23.51-18-116.79-93.37-76.87-175,7.81-16,19.59-29.86,32.92-41.79" transform="translate(-233.6 -228.41)"/><path class="cls-9" d="M461.52,514.49" transform="translate(-233.6 -228.41)"/><path class="cls-10" d="M529.51,571.15" transform="translate(-233.6 -228.41)"/><ellipse class="cls-11" cx="238.13" cy="520.27" rx="22.73" ry="22.68"/><path class="cls-12" d="M420.55,692.52l.83-.79c3.6-3.46,10-2.77,14.37,1.54l37.16,37c4.33,4.31,4.91,10.61,1.3,14.07l-.82.79c-3.61,3.46-10.05,2.77-14.38-1.54l-37.15-37C417.53,702.28,416.94,696,420.55,692.52Z" transform="translate(-233.6 -228.41)"/><path class="cls-12" d="M429.37,534.11l1,.61a9,9,0,0,1,2.83,12.51l-23.62,36.16a9.37,9.37,0,0,1-12.78,2.76l-1-.61A8.94,8.94,0,0,1,393,573l23.61-36.16A9.39,9.39,0,0,1,429.37,534.11Z" transform="translate(-233.6 -228.41)"/><ellipse class="cls-6" cx="193.26" cy="296.86" rx="58.83" ry="36.71"/><ellipse class="cls-7" cx="193.26" cy="286.46" rx="52.57" ry="27.53"/><polygon class="cls-6" points="86.97 90.97 164.18 201.2 195.15 50.94 86.97 90.97"/><polygon class="cls-7" points="195.15 50.94 86.97 90.97 118.42 20.36 195.15 50.94"/><polygon class="cls-13" points="192.79 275.66 179.55 288 170.64 250.3 179.88 223.62 192.79 275.66"/><polygon class="cls-14" points="164.18 201.2 179.88 223.62 215.24 34.56 195.15 50.94 164.18 201.2"/><polygon class="cls-9" points="195.15 50.94 215.24 34.56 127.87 0 118.42 20.36 195.15 50.94"/><polygon class="cls-15" points="86.97 90.97 57.65 96.78 102.48 2.4 127.87 0 86.97 90.97"/><polygon class="cls-16" points="57.65 96.78 0 108.09 102.48 2.4 57.65 96.78"/><polygon class="cls-17" points="57.65 96.78 0 108.09 40.93 257.55 57.65 96.78"/><polygon class="cls-9" points="179.55 288 170.64 250.3 42.34 255.8 179.55 288"/><path class="cls-12" d="M392.31,594.51l4.32.38a6.91,6.91,0,0,1,6.33,7.36l-1.35,16.61A6.76,6.76,0,0,1,394.2,625l-4.32-.39a6.9,6.9,0,0,1-6.33-7.35l1.34-16.61A6.76,6.76,0,0,1,392.31,594.51Z" transform="translate(-233.6 -228.41)"/><ellipse class="cls-6" cx="259.17" cy="575.03" rx="10.23" ry="9.56"/><ellipse class="cls-6" cx="299.18" cy="527.45" rx="10.22" ry="10.14"/><path class="cls-6" d="M-18,243" transform="translate(-233.6 -228.41)"/><path class="cls-11" d="M384.49,336.68l13.49,16,6.71,7.94q1.43,1.68,2.81,3.39c.85,1,1.44,1.81,2.47,3.31a42.78,42.78,0,0,1,2.29,3.73c.34.64.66,1.29,1,2,.57,1.22-.12-.44.13.31.15.48.35,1,.51,1.42.22.69.41,1.38.57,2.08.09.35.16.7.22,1.05s.17,1.14.07.29c.08.7.12,1.42.13,2.13,0,.35,0,.7,0,1.06,0,.19-.18,1.64,0,.7a16.13,16.13,0,0,1-.46,2.06c-.08.28-.19.54-.26.82-.32,1.14.41-.77-.11.3-.27.55-.55,1.09-.87,1.62-.13.21-.26.42-.4.62s-.27.41-.42.6c.33-.42.34-.43,0,0a29.45,29.45,0,0,1-2.62,2.62c-.63.55-.11.1,0,0-.3.23-.61.45-.92.66-.62.43-1.26.82-1.92,1.19s-1.22.65-1.84.94c-.22.1-1,.41-.13.06-.4.16-.8.32-1.21.46a38.68,38.68,0,0,1-5.29,1.45c-.9.18-1.8.34-2.71.48l-.77.11-.31,0-.91.11c-1.84.2-3.67.36-5.51.51-2.33.2-4.61,1.93-4.5,4.5.11,2.27,2,4.71,4.5,4.5,7.38-.62,14.77-1.35,21.55-4.53a24.87,24.87,0,0,0,12.89-13.46c2.55-6.82.86-14.52-2.41-20.77s-8.4-11.71-13-17.15l-16.39-19.39a4.51,4.51,0,0,0-6.36,0,4.61,4.61,0,0,0,0,6.36Z" transform="translate(-233.6 -228.41)"/><path class="cls-11" d="M363.64,346a21.13,21.13,0,0,0-9.31,19.08,19,19,0,0,0,4.61,11,13.06,13.06,0,0,0,10.44,4.51c4.82-.4,9-3.2,10.55-7.9a4.55,4.55,0,0,0-3.15-5.54,4.61,4.61,0,0,0-5.53,3.14c-.16.47-.13.41.11-.19a4.68,4.68,0,0,1-.3.54c-.38.74.62-.51-.06.06a6,6,0,0,1-.46.42c.47-.34.56-.42.29-.23s-.7.61-1,.55c.55-.21.66-.26.34-.14l-.45.15-.63.15c-.5.09-.42.09.25,0-.11.12-.83,0-1,0-1,.06.78.24-.07,0-.44-.12-.87-.23-1.3-.39,1,.39,0-.08-.2-.18l-.59-.38c.39.31.45.37.21.16s-.63-.55-.91-.86-.68-.82-.22-.2a12.05,12.05,0,0,1-.8-1.21c-.18-.32-.34-.65-.51-1-.41-.79.22.65-.15-.44-.07-.19-.75-2.09-.56-2.23.07.62.08.67,0,.15,0-.17,0-.35,0-.52q0-.61,0-1.23c0-.35,0-.7,0-1.05s.05-.47.08-.7c-.09.61-.09.67,0,.15.18-.74.33-1.48.57-2.21.07-.23.57-1.44.11-.41.14-.32.29-.64.45-.95a20.27,20.27,0,0,1,1.28-2.1c.56-.84-.47.47.16-.2.32-.34.62-.7,1-1s.52-.48.78-.71.36-.3-.08,0c.18-.14.38-.28.57-.4,1.95-1.32,3-4,1.62-6.16-1.25-1.94-4.08-3-6.16-1.62Z" transform="translate(-233.6 -228.41)"/><path class="cls-11" d="M366.73,327.05c1.81-.85,3.61-1.7,5.43-2.52,2.1-.95,2.93-1.31,4.9-2.08a63.65,63.65,0,0,1,11.38-3.4l1.55-.26c.53-.1,0,0-.08,0l.67-.08c1-.1,1.94-.17,2.91-.2s1.95,0,2.92,0c.45,0,.9.06,1.35.1l.68.07c-.44-.05-.19,0,.1,0a31.44,31.44,0,0,1,5.16,1.3c.38.13.75.26,1.12.41l.55.22c-.07,0-.63-.3-.17-.07.83.41,1.66.79,2.47,1.24s1.59.93,2.36,1.45l1.13.8c.69.51.16.13,0,0l.61.5a31.23,31.23,0,0,1,4.13,4.24c1.49,1.84,4.84,1.66,6.37,0a4.63,4.63,0,0,0,0-6.36,35.5,35.5,0,0,0-19.81-12.14c-8.78-1.88-17.76-.29-26.09,2.77-4.84,1.77-9.54,3.95-14.2,6.16a4.53,4.53,0,0,0-1.61,6.16,4.61,4.61,0,0,0,6.15,1.61Z" transform="translate(-233.6 -228.41)"/><path class="cls-11" d="M341.84,339.87c-8,12.8-16.28,27.68-12,43.26,3.81,13.85,15.93,24.44,27.82,31.58,12.82,7.7,27.86,11.87,42.8,9.69a48.1,48.1,0,0,0,32-19.76,39,39,0,0,0,6.69-18.57c.2-1.94.31-3.9.49-5.84,0-.47.1-.93.14-1.4s0-.06,0,0c0-.23.07-.46.1-.69a27.29,27.29,0,0,1,.66-2.95c.1-.38.23-.75.36-1.12.27-.82-.28.51.1-.26a20,20,0,0,1,1.18-2.06c.08-.12.55-.74.19-.28s.05-.05.1-.11c.24-.27.48-.54.74-.79s.53-.47.79-.71c-.63.58,0,0,.37-.21.14-.09,1-.62.53-.33s.39-.13.58-.18,1.19-.21.58-.16.65,0,.8,0a4.54,4.54,0,0,0,4.5-4.5,4.59,4.59,0,0,0-4.5-4.5c-7.61-.22-13.31,6.4-15.13,13.25-1.06,4-1.12,8.21-1.52,12.31-.05.47-.09.94-.16,1.4.11-.81-.07.45-.09.54-.12.7-.26,1.4-.43,2.09a33.23,33.23,0,0,1-1.25,4c-.07.18-.54,1.27-.08.22-.14.32-.28.64-.43,1-.3.63-.61,1.25-1,1.87a36.43,36.43,0,0,1-2.42,3.84l-.63.85c.67-.89-.06.05-.17.19-.45.54-.91,1.07-1.39,1.59a40.56,40.56,0,0,1-3,3c-.53.48-1.08.92-1.63,1.38-.92.77.75-.54-.21.17l-.87.63a42.13,42.13,0,0,1-3.93,2.5q-1.71,1-3.51,1.8l-1,.44c1-.45-.09,0-.25.09-.78.3-1.57.59-2.37.85q-2,.66-4.14,1.14c-.7.15-1.4.29-2.1.41l-1.06.17c1.25-.2-.47,0-.7.07a50.58,50.58,0,0,1-10.07,0l-1.25-.13c-1.37-.15.9.16-.47-.07-.82-.13-1.65-.27-2.48-.43q-2.69-.53-5.31-1.29c-1.49-.44-3-.93-4.42-1.46l-2.37-.93c.87.35-.42-.19-.48-.22-.52-.23-1-.46-1.55-.71a77.36,77.36,0,0,1-9.12-5.08q-2.06-1.34-4-2.79l-1-.77c.72.55-.38-.3-.43-.34-.74-.58-1.46-1.18-2.18-1.79a62,62,0,0,1-6.82-6.74c-.26-.3-.52-.61-.77-.92-.07-.08-.89-1.11-.28-.33-.49-.63-.95-1.27-1.4-1.93a38.67,38.67,0,0,1-2.6-4.39c-.17-.34-.34-.7-.5-1.05s-.22-.47-.32-.71c.2.47.2.47,0,0-.31-.86-.63-1.71-.88-2.58s-.41-1.52-.56-2.29c-.08-.38-.15-.77-.21-1.16-.08-.54-.09-.58,0-.11,0-.28-.06-.57-.08-.86a32.61,32.61,0,0,1,.11-6c.13-1.39-.19.87.07-.5.11-.57.2-1.13.32-1.69.21-1,.45-2,.73-2.94a51.08,51.08,0,0,1,1.9-5.37c-.33.81.24-.53.25-.55.24-.55.49-1.08.75-1.62.45-.94.92-1.88,1.4-2.8,1.93-3.7,4.11-7.27,6.32-10.8a4.55,4.55,0,0,0-1.61-6.16,4.6,4.6,0,0,0-6.16,1.61Z" transform="translate(-233.6 -228.41)"/><path class="cls-18" d="M376.32,391.82l18.3-5.34a4.5,4.5,0,0,0-2.39-8.68l-18.3,5.34a4.5,4.5,0,0,0,2.39,8.68Z" transform="translate(-233.6 -228.41)"/><path class="cls-18" d="M412.13,339.47l14.05,6.82a4.79,4.79,0,0,0,3.46.45,4.51,4.51,0,0,0,2.69-2.07c1.07-2,.65-5.05-1.61-6.15l-14-6.82a4.82,4.82,0,0,0-3.47-.46,4.62,4.62,0,0,0-2.69,2.07c-1.07,2-.65,5.06,1.61,6.16Z" transform="translate(-233.6 -228.41)"/><polygon class="cls-5" points="86.97 90.97 57.65 96.78 170.64 250.3 179.88 223.62 86.97 90.97"/><polygon class="cls-19" points="412.56 123.75 350.92 104.36 314.33 9.7 412.56 123.75"/><polygon class="cls-20" points="350.92 104.36 223.62 63.44 229.62 252.31 350.92 104.36"/><polygon class="cls-5" points="411.99 123.46 350.35 104.06 356.59 264.56 411.99 123.46"/><polygon class="cls-21" points="356.61 267.87 350.35 104.06 228.3 252.14 356.61 267.87"/><polygon class="cls-10" points="357.22 266.94 229.05 252.01 215.15 288.15 357.22 266.94"/><polygon class="cls-22" points="313.77 9.41 350.36 104.06 223.07 63.15 313.77 9.41"/><line class="cls-1" x1="162.33" y1="666.71" x2="211.84" y2="550.08"/><line class="cls-2" x1="210.95" y1="553.87" x2="258.7" y2="575.05"/><circle class="cls-3" cx="258.83" cy="575.22" r="4.5"/><circle class="cls-3" cx="162.7" cy="666.02" r="4.5"/><line class="cls-1" x1="423.08" y1="577.82" x2="335.63" y2="486.13"/><line class="cls-2" x1="337.79" y1="489.36" x2="300.58" y2="526.01"/><circle class="cls-3" cx="300.51" cy="526.22" r="4.5"/><circle class="cls-3" cx="422.48" cy="577.3" r="4.5"/><polygon class="cls-23" points="170.64 250.3 56.89 94.3 41.17 256.23 170.64 250.3"/></svg>