<svg id="Calque_1" data-name="Calque 1" xmlns="http://www.w3.org/2000/svg" viewBox="0 0 1497 303"><defs><style>.cls-1{fill:#252523;}.cls-2{fill:#ffc900;}</style></defs><path class="cls-1" d="M1195,161V131a50,50,0,0,0-14.64-35.36l-20-20A50,50,0,0,0,1125,61h-70V261l20,20h40V211h3.18l15,50,20,20H1195l-23.37-77.69A49.94,49.94,0,0,0,1195,161Zm-80-40h20v20a10,10,0,0,1-10,10h-10Z"/><path class="cls-2" d="M1175,141V111a50,50,0,0,0-50-50h-70V261h40V191h17.17l21,70H1175l-23.37-77.69A49.94,49.94,0,0,0,1175,141Zm-80-40h30a10,10,0,0,1,10,10v30a10,10,0,0,1-10,10h-30Z"/><path class="cls-1" d="M845,199H805v10a10,10,0,0,1-10,10H785V129a10,10,0,0,1,10-10h10l20,20h40V129a50,50,0,0,0-14.64-35.36l-20-20A50,50,0,0,0,795,59H775a50,50,0,0,0-50,50V209a50,50,0,0,0,14.64,35.36l20,20A50,50,0,0,0,795,279h20a50,50,0,0,0,50-50V219Z"/><path class="cls-2" d="M725,109V209a50,50,0,0,0,50,50h20a50,50,0,0,0,50-50V199H805v10a10,10,0,0,1-10,10H775a10,10,0,0,1-10-10V109a10,10,0,0,1,10-10h20a10,10,0,0,1,10,10v10h40V109a50,50,0,0,0-50-50H775A50,50,0,0,0,725,109Z"/><polygon class="cls-1" points="1034.88 279 989.87 79 969.87 59 929.88 59 884.88 259 904.88 279 945.88 279 952.63 249 971.62 249 973.87 259 993.87 279 1034.88 279"/><path class="cls-2" d="M973.87,259h41l-45-200h-40l-45,200h41l6.75-30h34.49Zm-32.24-70,8.25-36.65L958.12,189Z"/><polygon class="cls-1" points="1325 221 1275 221 1275 201 1345 201 1345 161 1325 141 1275 141 1275 121 1345 121 1345 81 1325 61 1215 61 1215 261 1235 281 1345 281 1345 241 1325 221"/><polygon class="cls-2" points="1255 221 1255 181 1325 181 1325 141 1255 141 1255 101 1325 101 1325 61 1215 61 1215 261 1325 261 1325 221 1255 221"/><polygon class="cls-1" points="638 60 598 60 598 140 578 140 578 80 558 60 518 60 518 260 538 280 578 280 578 200 598 200 598 260 618 280 658 280 658 80 638 60"/><polygon class="cls-2" points="598 60 598 140 558 140 558 60 518 60 518 260 558 260 558 180 598 180 598 260 638 260 638 60 598 60"/><polygon class="cls-1" points="332 60 292 60 292 260 312 280 352 280 352 80 332 60"/><rect class="cls-2" x="292" y="60" width="40" height="200"/><polygon class="cls-1" points="505 80 485 60 365 60 365 100 385 120 405 120 405 260 425 280 465 280 465 120 505 120 505 80"/><polygon class="cls-2" points="485 60 365 60 365 100 405 100 405 260 445 260 445 100 485 100 485 60"/><polygon class="cls-1" points="259.88 60 219.08 60 207.88 116.02 200.67 80 180.67 60 149.08 60 137.88 116.02 130.67 80 110.67 60 69.88 60 109.88 260 129.88 280 169.87 280 176.88 244.98 179.88 260 199.88 280 239.87 280 279.88 80 259.88 60"/><polygon class="cls-2" points="219.08 60 199.88 156.02 180.67 60 149.08 60 129.88 156.02 110.67 60 69.88 60 109.88 260 149.87 260 164.88 184.99 179.88 260 219.87 260 259.88 60 219.08 60"/><polygon class="cls-1" points="1441 58 1401 58 1401 198 1421 218 1461 218 1461 78 1441 58"/><path class="cls-1" d="M1400,238h0a21,21,0,0,0,6.15,14.85l20,20A21,21,0,0,0,1441,279h0a21,21,0,0,0,21-21h0a21,21,0,0,0-6.15-14.85l-20-20A21,21,0,0,0,1421,217h0A21,21,0,0,0,1400,238Z"/><rect class="cls-2" x="1401" y="58" width="40" height="140"/><circle class="cls-2" cx="1421" cy="238" r="21"/></svg>