<svg id="Calque_1" data-name="Calque 1" xmlns="http://www.w3.org/2000/svg" viewBox="0 0 1392.12 223"><defs><style>.cls-1{fill:#252523;}.cls-2{fill:#f7453a;}</style></defs><path class="cls-1" d="M1195,161V131a50,50,0,0,0-14.64-35.36l-20-20A50,50,0,0,0,1125,61h-70V261l20,20h40V211h3.18l15,50,20,20H1195l-23.37-77.69A49.94,49.94,0,0,0,1195,161Zm-80-40h20v20a10,10,0,0,1-10,10h-10Z" transform="translate(-69.88 -58)"/><path class="cls-2" d="M1175,141V111a50,50,0,0,0-50-50h-70V261h40V191h17.17l21,70H1175l-23.37-77.69A49.94,49.94,0,0,0,1175,141Zm-80-40h30a10,10,0,0,1,10,10v30a10,10,0,0,1-10,10h-30Z" transform="translate(-69.88 -58)"/><path class="cls-1" d="M845,199H805v10a10,10,0,0,1-10,10H785V129a10,10,0,0,1,10-10h10l20,20h40V129a50,50,0,0,0-14.64-35.36l-20-20A50,50,0,0,0,795,59H775a50,50,0,0,0-50,50V209a50,50,0,0,0,14.64,35.36l20,20A50,50,0,0,0,795,279h20a50,50,0,0,0,50-50V219Z" transform="translate(-69.88 -58)"/><path class="cls-2" d="M725,109V209a50,50,0,0,0,50,50h20a50,50,0,0,0,50-50V199H805v10a10,10,0,0,1-10,10H775a10,10,0,0,1-10-10V109a10,10,0,0,1,10-10h20a10,10,0,0,1,10,10v10h40V109a50,50,0,0,0-50-50H775A50,50,0,0,0,725,109Z" transform="translate(-69.88 -58)"/><polygon class="cls-1" points="965 221 920 21 900 1 860 1 815 201 835 221 876 221 882.75 191 901.75 191 904 201 924 221 965 221"/><path class="cls-2" d="M973.87,259h41l-45-200h-40l-45,200h41l6.75-30h34.49Zm-32.24-70,8.25-36.65L958.12,189Z" transform="translate(-69.88 -58)"/><polygon class="cls-1" points="1255.12 163 1205.12 163 1205.12 143 1275.12 143 1275.12 103 1255.12 83 1205.12 83 1205.12 63 1275.12 63 1275.12 23 1255.12 3 1145.12 3 1145.12 203 1165.12 223 1275.12 223 1275.12 183 1255.12 163"/><polygon class="cls-2" points="1185.12 163 1185.12 123 1255.12 123 1255.12 83 1185.12 83 1185.12 43 1255.12 43 1255.12 3 1145.12 3 1145.12 203 1255.12 203 1255.12 163 1185.12 163"/><polygon class="cls-1" points="568.12 2 528.12 2 528.12 82 508.12 82 508.12 22 488.12 2 448.12 2 448.12 202 468.12 222 508.12 222 508.12 142 528.12 142 528.12 202 548.12 222 588.12 222 588.12 22 568.12 2"/><polygon class="cls-2" points="528.12 2 528.12 82 488.12 82 488.12 2 448.12 2 448.12 202 488.12 202 488.12 122 528.12 122 528.12 202 568.12 202 568.12 2 528.12 2"/><polygon class="cls-1" points="262.12 2 222.12 2 222.12 202 242.12 222 282.12 222 282.12 22 262.12 2"/><rect class="cls-2" x="222.12" y="2" width="40" height="200"/><polygon class="cls-1" points="435.12 22 415.12 2 295.12 2 295.12 42 315.12 62 335.12 62 335.12 202 355.12 222 395.12 222 395.12 62 435.12 62 435.12 22"/><polygon class="cls-2" points="415.12 2 295.12 2 295.12 42 335.12 42 335.12 202 375.12 202 375.12 42 415.12 42 415.12 2"/><polygon class="cls-1" points="190 2 149.2 2 138 58.02 130.8 22 110.8 2 79.2 2 68 58.02 60.8 22 40.8 2 0 2 40 202 60 222 100 222 107 186.98 110 202 130 222 170 222 210 22 190 2"/><polygon class="cls-2" points="149.2 2 130 98.02 110.8 2 79.2 2 60 98.02 40.8 2 0 2 40 202 80 202 95 126.99 110 202 150 202 190 2 149.2 2"/><polygon class="cls-1" points="1371.12 0 1331.12 0 1331.12 140 1351.12 160 1391.12 160 1391.12 20 1371.12 0"/><path class="cls-1" d="M1400,238h0a21,21,0,0,0,6.15,14.85l20,20A21,21,0,0,0,1441,279h0a21,21,0,0,0,21-21h0a21,21,0,0,0-6.15-14.85l-20-20A21,21,0,0,0,1421,217h0A21,21,0,0,0,1400,238Z" transform="translate(-69.88 -58)"/><rect class="cls-2" x="1331.12" width="40" height="140"/><circle class="cls-2" cx="1351.12" cy="180" r="21"/></svg>