<svg id="Calque_1" data-name="Calque 1" xmlns="http://www.w3.org/2000/svg" viewBox="0 0 387.9 441.29"><defs><style>.cls-1{fill:#e6e6e6;}.cls-2{fill:#29abe2;}.cls-3{fill:#00a896;stroke:#02c39a;stroke-width:19px;}.cls-10,.cls-3,.cls-5{stroke-miterlimit:10;}.cls-4{fill:#02c39a;}.cls-5{fill:none;stroke:#f0f3bd;stroke-width:22px;}.cls-6{fill:#f0f3bd;}.cls-7{fill:#b4f0ff;}.cls-8{fill:#fff;}.cls-9{fill:#ffb4a2;}.cls-10{fill:#ffc900;stroke:#fff;stroke-width:7px;}</style></defs><ellipse class="cls-1" cx="186.24" cy="388.75" rx="186.24" ry="52.54"/><path class="cls-2" d="M240.86,60.27l26.12-8a4.87,4.87,0,0,0,3.14-5.52h0a3.75,3.75,0,0,0-4.8-3.09l-26.11,8a4.87,4.87,0,0,0-3.15,5.52h0A3.75,3.75,0,0,0,240.86,60.27Z" transform="translate(-8.6 -5.71)"/><path class="cls-3" d="M182.52,361.28h0c-69.75.86-125.31-60.23-124.1-136.43l1.12-70.1C60.75,78.55,118.27,16.08,188,15.22h0c69.75-.85,125.31,60.23,124.1,136.44L311,221.75C309.8,298,252.27,360.43,182.52,361.28Z" transform="translate(-8.6 -5.71)"/><path class="cls-4" d="M156.25,332.37l-14.84.18c-46.08.57-82.78-39.79-82-90.13L61,145.27c.8-50.34,38.8-91.61,84.88-92.17l14.84-.19c46.08-.56,82.78,39.79,82,90.14l-1.54,97.14C240.33,290.54,202.33,331.81,156.25,332.37Z" transform="translate(-8.6 -5.71)"/><path class="cls-5" d="M211.31,44.79a121.73,121.73,0,0,1,39.88,27.3c7.26,7.45,21.49,22.41,29.34,47.52a119.12,119.12,0,0,1,5.13,28.13" transform="translate(-8.6 -5.71)"/><ellipse class="cls-6" cx="212.22" cy="45.19" rx="10.92" ry="11.06" transform="translate(98.2 229.13) rotate(-72.95)"/><ellipse class="cls-7" cx="286.13" cy="142.96" rx="11.03" ry="11.15" transform="translate(-19.52 18.65) rotate(-4.78)"/><ellipse class="cls-8" cx="112.94" cy="107.28" rx="22.66" ry="20.65" transform="translate(-19.18 196.47) rotate(-81.06)"/><ellipse class="cls-8" cx="222.29" cy="105.36" rx="22.66" ry="20.65" transform="translate(75.08 302.87) rotate(-81.06)"/><path class="cls-9" d="M150.1,106c.67,10.32,7,19.23,14.5,20.6,10,1.83,19.36-8.66,20.16-24.13" transform="translate(-8.6 -5.71)"/><path class="cls-4" d="M134.54,390.12h0c-5.25-.26-9.2-5.13-8.81-10.88l1.74-25.79,19,.94-1.74,25.79C144.36,385.93,139.79,390.38,134.54,390.12Z" transform="translate(-8.6 -5.71)"/><path class="cls-4" d="M161.14,397.14h0c-5.26-.26-9.2-5.13-8.81-10.87l1.74-25.8,19,.94-1.74,25.8C171,393,166.39,397.4,161.14,397.14Z" transform="translate(-8.6 -5.71)"/><path class="cls-4" d="M192.08,396.53h0c-5.23.88-10-3-10.65-8.7l-2.94-25.52,18.92-3.18,2.94,25.52C201,390.33,197.3,395.65,192.08,396.53Z" transform="translate(-8.6 -5.71)"/><path class="cls-4" d="M213.42,391.4h0c-5.25-.26-9.19-5.13-8.8-10.88l1.74-25.8,19,.95-1.74,25.79C223.24,387.21,218.67,391.65,213.42,391.4Z" transform="translate(-8.6 -5.71)"/><path class="cls-4" d="M241.6,384.48h0c-5.22.88-10-3-10.64-8.7l-3-25.52,18.92-3.18,2.95,25.52C250.53,378.28,246.83,383.6,241.6,384.48Z" transform="translate(-8.6 -5.71)"/><path class="cls-10" d="M247.25,148.59l-20.72,27.59v46.53c0,54.87,31.14,102.77,77.42,128.4,46.28-25.63,77.42-73.53,77.42-128.4v-46.9l-20.72-27.22H247.25Z" transform="translate(-8.6 -5.71)"/><path class="cls-10" d="M360.65,134.88H247.25a11,11,0,0,0-8.71,4.62l-20.72,27.6a15.19,15.19,0,0,0-2.92,9.08v46.53c0,58.13,32.23,112.08,84.1,140.81a10.07,10.07,0,0,0,9.9,0c51.87-28.73,84.1-82.68,84.1-140.81v-46.9a15.12,15.12,0,0,0-3-9.15L369.3,139.43A10.93,10.93,0,0,0,360.65,134.88Zm20.72,87.83c0,54.87-31.14,102.77-77.42,128.4-46.28-25.63-77.42-73.53-77.42-128.4V176.18l20.72-27.59h113.4l20.72,27.22Z" transform="translate(-8.6 -5.71)"/></svg>