<svg id="Calque_1" data-name="Calque 1" xmlns="http://www.w3.org/2000/svg" viewBox="0 0 945.12 330.22"><defs><style>.cls-1{fill:#ccc;}.cls-2{fill:#29abe2;}.cls-3{fill:#04adbf;stroke:#04bfbf;stroke-width:8px;}.cls-10,.cls-17,.cls-18,.cls-3,.cls-5,.cls-8{stroke-miterlimit:10;}.cls-4{fill:#04bfbf;}.cls-18,.cls-5,.cls-8{fill:none;}.cls-5{stroke:#b4f0ff;stroke-width:16px;}.cls-6{fill:#b4f0ff;}.cls-10,.cls-17,.cls-19,.cls-7{fill:#fff;}.cls-8{stroke:#662d91;stroke-width:9px;}.cls-9{fill:#025959;}.cls-10{stroke:#025959;stroke-width:3px;}.cls-11{fill:#e61b72;}.cls-12{fill:#fcee21;}.cls-13{fill:#fbb03b;}.cls-14{fill:#941b80;}.cls-15{fill:#e5007e;}.cls-16{fill:#a2195b;}.cls-17{stroke:#ed1e79;stroke-width:4px;}.cls-18{stroke:#fff;stroke-width:7px;}.cls-19{font-size:17px;font-family:ArialRoundedMTBold, Arial Rounded MT Bold;}.cls-20{letter-spacing:-0.05em;}.cls-21{letter-spacing:-0.01em;}</style></defs><ellipse class="cls-1" cx="805.33" cy="251.8" rx="112.98" ry="30.46"/><ellipse class="cls-1" cx="395.67" cy="265.99" rx="101.04" ry="27.12"/><path class="cls-2" d="M880.35,104.67l13.79-7.56a2.94,2.94,0,0,0,1.19-3.55h0a2.12,2.12,0,0,0-3-1.25l-13.79,7.57a2.94,2.94,0,0,0-1.18,3.55h0A2.1,2.1,0,0,0,880.35,104.67Z" transform="translate(-95.16 -48.98)"/><path class="cls-3" d="M899.26,285.54h0c-39,8.31-76.53-20.84-83.84-65.11l-6.74-40.72C801.36,135.44,827,92.82,866,84.51h0c39-8.32,76.53,20.83,83.85,65.1l6.73,40.72C963.92,234.6,938.25,277.23,899.26,285.54Z" transform="translate(-95.16 -48.98)"/><path class="cls-4" d="M881.51,271.74l-8.3,1.77c-25.75,5.49-50.55-13.77-55.39-43l-9.33-56.44c-4.83-29.24,12.13-57.4,37.88-62.89l8.3-1.77c25.75-5.49,50.55,13.76,55.38,43l9.34,56.43C924.22,238.09,907.26,266.25,881.51,271.74Z" transform="translate(-95.16 -48.98)"/><path class="cls-5" d="M882.17,99a67.68,67.68,0,0,1,25.21,11.34,66.44,66.44,0,0,1,21.42,24.23,71,71,0,0,1,5.83,15.72" transform="translate(-95.16 -48.98)"/><ellipse class="cls-6" cx="784.49" cy="49.02" rx="8.14" ry="7.91"/><ellipse class="cls-6" cx="839.14" cy="101.14" rx="7.68" ry="7.51"/><ellipse class="cls-7" cx="738.46" cy="97.25" rx="11.77" ry="13.37"/><ellipse class="cls-7" cx="799.52" cy="83.89" rx="11.77" ry="13.37"/><path class="cls-8" d="M854.3,141.31c1.46,5.9,6,10.34,10.28,10.3,5.79-.06,9.94-7.18,8.77-16.23" transform="translate(-95.16 -48.98)"/><path class="cls-4" d="M875.4,307.62h0c-3,.43-5.69-1.94-6.07-5.31l-1.73-15.14,10.75-1.59,1.73,15.14C880.47,304.09,878.37,307.18,875.4,307.62Z" transform="translate(-95.16 -48.98)"/><path class="cls-4" d="M891,308.71h0c-3,.43-5.69-1.94-6.07-5.32l-1.73-15.13L894,286.67l1.73,15.14C896.1,305.18,894,308.27,891,308.71Z" transform="translate(-95.16 -48.98)"/><path class="cls-4" d="M908.31,304.88h0c-2.83,1.1-5.91-.62-6.88-3.84l-4.32-14.45,10.26-4,4.33,14.45C912.66,300.29,911.15,303.79,908.31,304.88Z" transform="translate(-95.16 -48.98)"/><path class="cls-4" d="M919.73,299.52h0c-3,.43-5.69-1.94-6.07-5.31l-1.73-15.14,10.75-1.59,1.73,15.14C924.79,296,922.7,299.08,919.73,299.52Z" transform="translate(-95.16 -48.98)"/><path class="cls-4" d="M934.79,292.35h0c-2.83,1.1-5.91-.62-6.87-3.84l-4.33-14.45,10.26-4,4.33,14.45C939.15,287.76,937.63,291.26,934.79,292.35Z" transform="translate(-95.16 -48.98)"/><ellipse class="cls-4" cx="838.14" cy="182.87" rx="12.14" ry="13.78"/><ellipse class="cls-9" cx="839.25" cy="183.29" rx="8.83" ry="10.02"/><ellipse class="cls-4" cx="841.94" cy="127.78" rx="9.56" ry="10.86"/><ellipse class="cls-9" cx="843.28" cy="127.09" rx="5.89" ry="6.68"/><ellipse class="cls-7" cx="755.02" cy="202.92" rx="10.3" ry="11.69"/><ellipse class="cls-7" cx="731.48" cy="133.59" rx="10.3" ry="11.69"/><ellipse class="cls-9" cx="730.26" cy="134.44" rx="6.74" ry="6.28"/><ellipse class="cls-9" cx="755.02" cy="202.92" rx="5.52" ry="6.27"/><path class="cls-10" d="M1025.4,278.47a2.69,2.69,0,0,1-4.16,0l-49.43-56.13-35.35,12.5a2.12,2.12,0,0,1-2.7-1.61l-.47-1.71a2.52,2.52,0,0,1,1.42-3.06l36.62-13a1.79,1.79,0,0,1,1.14,0,1.42,1.42,0,0,1,.36,0,2.79,2.79,0,0,1,2.09,1l50.48,57.33A3.66,3.66,0,0,1,1025.4,278.47Z" transform="translate(-95.16 -48.98)"/><path class="cls-10" d="M1038.62,170.82a2.87,2.87,0,0,1-3.72,2.11l-66.29-25.21L941.88,176.8a2,2,0,0,1-3-.07l-1.09-1.29a2.69,2.69,0,0,1,.07-3.46l27.69-30.14a2.06,2.06,0,0,1,1-.6,3.62,3.62,0,0,1,.32-.22,2.64,2.64,0,0,1,2.25-.18l67.7,25.75A3.46,3.46,0,0,1,1038.62,170.82Z" transform="translate(-95.16 -48.98)"/><path class="cls-10" d="M761.51,299.45a2.7,2.7,0,0,0,4.17,0l49.43-56.13,35.34,12.5a2.12,2.12,0,0,0,2.7-1.61l.47-1.7a2.52,2.52,0,0,0-1.42-3.07l-36.62-12.95a1.82,1.82,0,0,0-1.13,0,1.5,1.5,0,0,0-.37,0,2.76,2.76,0,0,0-2.08,1l-50.49,57.33A3.68,3.68,0,0,0,761.51,299.45Z" transform="translate(-95.16 -48.98)"/><path class="cls-10" d="M728,187.53a2.84,2.84,0,0,0,3.84,1.83l64.73-30,28.31,27.09a2,2,0,0,0,3-.3l1-1.36a2.68,2.68,0,0,0-.26-3.45l-29.34-28.06a1.87,1.87,0,0,0-1-.53,1.81,1.81,0,0,0-.33-.2,2.61,2.61,0,0,0-2.25,0l-66.11,30.61A3.5,3.5,0,0,0,728,187.53Z" transform="translate(-95.16 -48.98)"/><ellipse class="cls-1" cx="112.31" cy="266.19" rx="112.31" ry="30.92"/><path class="cls-2" d="M240.63,117.61l15.75-4.71a2.85,2.85,0,0,0,1.89-3.25h0a2.26,2.26,0,0,0-2.89-1.82l-15.75,4.71a2.87,2.87,0,0,0-1.9,3.25h0A2.28,2.28,0,0,0,240.63,117.61Z" transform="translate(-95.16 -48.98)"/><path class="cls-3" d="M205.45,294.75h0c-42.07.5-75.58-35.45-74.85-80.29l.68-41.25C132,128.36,166.7,91.6,208.76,91.1h0c42.07-.51,75.57,35.44,74.84,80.29l-.67,41.25C282.2,257.48,247.51,294.25,205.45,294.75Z" transform="translate(-95.16 -48.98)"/><path class="cls-4" d="M189.6,277.73l-8.95.11c-27.79.33-49.92-23.41-49.44-53l.93-57.17c.48-29.63,23.4-53.91,51.19-54.25l8.95-.1c27.79-.34,49.92,23.41,49.44,53l-.93,57.17C240.31,253.12,217.39,277.4,189.6,277.73Z" transform="translate(-95.16 -48.98)"/><path class="cls-5" d="M222.81,108.5a73.44,73.44,0,0,1,24.05,16.06,66.33,66.33,0,0,1,20.78,44.52" transform="translate(-95.16 -48.98)"/><ellipse class="cls-6" cx="223.47" cy="108.39" rx="8.14" ry="8.06" transform="translate(-13.79 263.11) rotate(-80.98)"/><ellipse class="cls-6" cx="267.89" cy="169.96" rx="7.48" ry="7.6" transform="translate(-20.45 372.63) rotate(-84.88)"/><ellipse class="cls-7" cx="163.48" cy="145.27" rx="13.35" ry="12.44" transform="translate(-107.81 225.93) rotate(-77.98)"/><ellipse class="cls-7" cx="229.43" cy="144.14" rx="13.35" ry="12.44" transform="translate(-54.5 289.53) rotate(-77.98)"/><path class="cls-8" d="M185.89,144.49c.41,6.08,4.25,11.32,8.75,12.13,6,1.07,11.67-5.1,12.15-14.21" transform="translate(-95.16 -48.98)"/><path class="cls-4" d="M176.51,311.72h0a5.8,5.8,0,0,1-5.31-6.4l1.05-15.18,11.46.55-1.05,15.18A6.1,6.1,0,0,1,176.51,311.72Z" transform="translate(-95.16 -48.98)"/><path class="cls-4" d="M192.55,315.85h0a5.79,5.79,0,0,1-5.31-6.4l1-15.18,11.46.56L198.7,310A6.09,6.09,0,0,1,192.55,315.85Z" transform="translate(-95.16 -48.98)"/><path class="cls-4" d="M211.21,315.49h0a5.62,5.62,0,0,1-6.42-5.12l-1.78-15,11.41-1.87,1.78,15A6.29,6.29,0,0,1,211.21,315.49Z" transform="translate(-95.16 -48.98)"/><path class="cls-4" d="M224.08,312.47h0a5.8,5.8,0,0,1-5.31-6.4l1-15.18,11.47.55-1,15.18A6.1,6.1,0,0,1,224.08,312.47Z" transform="translate(-95.16 -48.98)"/><path class="cls-4" d="M241.08,308.4h0a5.63,5.63,0,0,1-6.42-5.12l-1.78-15,11.41-1.87,1.77,15A6.27,6.27,0,0,1,241.08,308.4Z" transform="translate(-95.16 -48.98)"/><path class="cls-1" d="M603.71,259.36c-.36,1.92-1.84,2.69-3.3,1.72l-62.89-41.24-22.69,28.31c-.73.91-2,.62-2.82-.66l-1.09-1.68a3.65,3.65,0,0,1-.18-3.95l23.5-29.33a1.29,1.29,0,0,1,.89-.51,1.59,1.59,0,0,1,.27-.18,2,2,0,0,1,2.07.21l64.24,42.13A5.45,5.45,0,0,1,603.71,259.36Z" transform="translate(-95.16 -48.98)"/><path class="cls-1" d="M398.31,264.77c.61,1.86,2.16,2.41,3.47,1.22l56.27-50.54,26.08,24.84c.85.8,2,.32,2.69-1.08l.85-1.83a3.73,3.73,0,0,0-.36-4l-27-25.74a1.25,1.25,0,0,0-.94-.37,1.05,1.05,0,0,0-.3-.15,2,2,0,0,0-2,.52L399.58,259.3A5.63,5.63,0,0,0,398.31,264.77Z" transform="translate(-95.16 -48.98)"/><ellipse class="cls-11" cx="402.1" cy="200.89" rx="21.5" ry="25"/><path class="cls-12" d="M502.1,252.84h-2c-6.8,0-12.32-6.09-12.32-13.59,8.11-19.26,6.06-43.16,0-68.89,0-7.51,5.52-13.6,12.32-13.6h2c6.8,0,12.32,6.09,12.32,13.6,3.89,25.56,5.09,49.32,0,68.89C514.42,246.75,508.9,252.84,502.1,252.84Z" transform="translate(-95.16 -48.98)"/><path class="cls-13" d="M498,153.61h0c7.22-1.41,14.1,3.9,15.38,11.85L515,175.61c1.28,8-3.53,15.55-10.74,17h0c-7.21,1.41-14.1-3.89-15.38-11.85l-1.63-10.15C486,162.62,490.81,155,498,153.61Z" transform="translate(-95.16 -48.98)"/><ellipse class="cls-14" cx="401.61" cy="97.56" rx="24.41" ry="28.39"/><path class="cls-15" d="M538.76,131.81,511.57,160a18,18,0,0,1-18.52,4.66l-34.11-11a18.07,18.07,0,0,1-12.12-13.38l-8.88-41.29a18.06,18.06,0,0,1,4.64-16.31l27.18-28.23a18.06,18.06,0,0,1,18.53-4.66l34.11,11a18,18,0,0,1,12.11,13.38l8.89,41.29A18.07,18.07,0,0,1,538.76,131.81Z" transform="translate(-95.16 -48.98)"/><path class="cls-16" d="M486,141.66,456.33,99.79a13.31,13.31,0,0,1,7.47-20.57L502.45,69A13.31,13.31,0,0,1,519,84.15l-9,52.08A13.31,13.31,0,0,1,486,141.66Z" transform="translate(-95.16 -48.98)"/><path class="cls-17" d="M412.51,321.8c1.27,1.39,2.89,1.15,3.61-.54l31.09-72.32L480.45,259c1.07.32,2-.68,2-2.24l.05-2.06c0-1.57-.8-3.1-1.87-3.42L446.2,240.86a1.21,1.21,0,0,0-1,.1,1.69,1.69,0,0,0-.32,0,2.15,2.15,0,0,0-1.6,1.42l-31.77,73.87A5.62,5.62,0,0,0,412.51,321.8Z" transform="translate(-95.16 -48.98)"/><path class="cls-17" d="M578.87,327.67c-1.28,1.39-2.89,1.15-3.61-.54l-31.1-72.32-33.23,10.06c-1.07.32-2-.68-2-2.24l-.06-2.06c0-1.57.8-3.1,1.88-3.42l34.43-10.42a1.15,1.15,0,0,1,1,.11,1.22,1.22,0,0,1,.33,0,2.15,2.15,0,0,1,1.6,1.42l31.76,73.87A5.65,5.65,0,0,1,578.87,327.67Z" transform="translate(-95.16 -48.98)"/><rect class="cls-7" x="249.13" y="130.11" width="30.5" height="79.5" rx="15.25"/><rect class="cls-7" x="224.56" y="154.72" width="79.5" height="30.5" rx="15.25"/><rect class="cls-7" x="521.56" y="120.22" width="79.5" height="30.5" rx="15.25"/><rect class="cls-7" x="523.56" y="175.22" width="79.5" height="30.5" rx="15.25"/><circle class="cls-18" cx="692.13" cy="221.61" r="22"/><rect class="cls-7" x="688.62" y="245.11" width="9.01" height="82" rx="2.06"/><rect class="cls-7" x="742.82" y="329.13" width="8.99" height="84.94" rx="2.26" transform="translate(1023.76 -424.7) rotate(90)"/><text class="cls-19" transform="translate(479.33 326.64)">Long <tspan class="cls-20" x="45.68" y="0">T</tspan><tspan x="55.46" y="0">ail </tspan><tspan class="cls-21" x="79.02" y="0">F</tspan><tspan x="89.07" y="0">iber</tspan></text></svg>