<svg id="Calque_1" data-name="Calque 1" xmlns="http://www.w3.org/2000/svg" viewBox="0 0 542.46 504.48"><defs><style>.cls-1,.cls-11{fill:#1d1d1b;}.cls-10,.cls-12,.cls-13,.cls-2,.cls-7,.cls-8,.cls-9{fill:none;}.cls-11,.cls-13,.cls-2,.cls-7,.cls-8,.cls-9{stroke:#1d1d1b;}.cls-10,.cls-11,.cls-13,.cls-2,.cls-7,.cls-8,.cls-9{stroke-miterlimit:10;}.cls-2{stroke-width:7px;}.cls-3{fill:#e52528;}.cls-4{fill:#e77979;}.cls-5{fill:#8b1725;}.cls-6{fill:#e94639;}.cls-7{stroke-width:8px;}.cls-8{stroke-width:6px;}.cls-9{stroke-width:6.01px;}.cls-10{stroke:#fff;stroke-width:11px;}</style></defs><path class="cls-1" d="M60.65,315.13h6.7c4.45,0,7.66,1.36,7.66,5.31a4.72,4.72,0,0,1-3.74,4.68v.13c3.12.54,4.85,2.2,4.85,5.13,0,4.31-3.45,6.33-8.21,6.33H60.65ZM67,324c3,0,4.25-1.09,4.25-3.1s-1.38-2.7-4.17-2.7H64.47V324Zm.5,9.65c3.16,0,4.86-1.09,4.86-3.53,0-2.27-1.63-3.2-4.86-3.2h-3v6.73Z" transform="translate(6.08 -9.23)"/><path class="cls-1" d="M376.77,315.13h3.82v18.35h10.12v3.23H376.77Z" transform="translate(6.08 -9.23)"/><rect class="cls-2" x="71.3" y="128.37" width="307.97" height="155" rx="77.5" transform="translate(25.49 421.93) rotate(-90)"/><path class="cls-3" d="M202.86,210.76c-2.28-2.56-4-5.15-6.73-7.31a34.68,34.68,0,0,0-9.45-5.67c-2.52-.95-5.48,1.06-6.15,3.5-.77,2.8,1,5.19,3.5,6.15a23.7,23.7,0,0,1,6.56,4.32c2.08,1.76,3.4,4.06,5.2,6.08C200.08,222.64,207.14,215.55,202.86,210.76Z" transform="translate(6.08 -9.23)"/><path class="cls-4" d="M201.83,157.8c0-2.13,0-4.21.13-6.27,1.34-3.89,2.11-7.79.86-11.43-1.44-4.18-8.82-5.29-9.65,0-.5,3.21-1,6.43-1.27,9.67-.78,1.85-1.68,3.63-2.18,4.94-1.32,3.47-1.95,7-3,10.58s-2.86,7-4,10.54a66,66,0,0,0-2.23,11.33,5.36,5.36,0,0,0,.08,2c-4.81,2.35-2.12,10.73,3.74,9.26,3.83-1,8.23-.44,11.9-1.63,1.53-.49,3.22-1.77,3.49-3.49,1.23-8-2.24-16.5,0-24.35C200.75,165,201.84,161.93,201.83,157.8Z" transform="translate(6.08 -9.23)"/><path class="cls-4" d="M263.83,197a8,8,0,0,0-3.13,1.3c-4,1-8.26-1.91-11.83,1.58-3.8,3.72-4.22,9.7-8.16,13.38a4.36,4.36,0,0,0-1.23,5c-.14.17-.27.35-.41.53-2.59,3.41-5.72,6.32-8.15,9.87-3.65,5.32,5,10.33,8.63,5,1.94-2.83,4.54-5.11,6.63-7.81a55.59,55.59,0,0,1,6.66-7.71c2.38-2.14,5-4,7.45-6.06,1-.83,2.95-3.14,4.54-4.48a20.36,20.36,0,0,0,2.85-1.49C272.66,202.94,269.3,196,263.83,197Z" transform="translate(6.08 -9.23)"/><path class="cls-4" d="M274.1,151.55c-1-9.12-2.06-18.23-2.29-27.41-.06-2.46-2.25-5.32-5-5a35.53,35.53,0,0,1-8.18-.08c-2.52-.28-5.25-.86-7.42.84-4.35,3.39-1,8.66,1.35,12.08.91,1.31,1.91,2.59,2.9,3.89a4.79,4.79,0,0,0,.45,4c2.38,4.31,2.22,8.87,5.14,12.82a21.12,21.12,0,0,0,.49,3.36c.35,1.47.81,2.9,1.26,4.33a31.72,31.72,0,0,0,1.27,4.77,5.53,5.53,0,0,0,1.68,2.43,11.86,11.86,0,0,1-.83,4.45c-2.45,5.95,7.22,8.54,9.64,2.66C277.42,167.76,274.9,158.71,274.1,151.55Z" transform="translate(6.08 -9.23)"/><path class="cls-4" d="M243.54,119l-12.9.77a5.2,5.2,0,0,0-4.72,6.33c-1.11,2.67-.73,6.29-.47,9.23.6,7,2,14.48,1.65,21.54,0,.36-.07.72-.11,1.07a39.27,39.27,0,0,0-1.85,4.94,24.82,24.82,0,0,0-.63,2.61c-.24.65-.47,1.31-.66,2a18.18,18.18,0,0,0-.53,7.13h0c.05.44.1.88.17,1.33,1,6.1,9.17,3.69,9.83-1.33.3-2.33.52-4.68,1-7a40.74,40.74,0,0,0,1.69-4.08,21,21,0,0,0,.68-2.87c1.31-2.94,2.77-5.82,4-8.81,3.3-8.27,3.6-17.14,7.23-25.37C249.25,123.31,247.71,118.71,243.54,119Z" transform="translate(6.08 -9.23)"/><path class="cls-4" d="M208.36,86.17c-1.9,4.53-6.23,8.78-9.15,12.7l-1,1.26a4.76,4.76,0,0,0-4.69,2.3c-1.49,2.36-4,3.54-6.25,5.11a26,26,0,0,0-5.91,5.64c-3,3.94,2,7.87,5.65,7.35a26.5,26.5,0,0,0,5.43-1.69,42.64,42.64,0,0,1,5.37-1.1c3.68-.84,4.52-3.83,5.76-6.92,3.26-8.17,11-13.85,14.38-22C220.49,82.9,210.82,80.31,208.36,86.17Z" transform="translate(6.08 -9.23)"/><path class="cls-5" d="M192.69,118.52c-4.48,1.7-9.7.08-14,2.28-2.08,1-2.71,3.54-2.3,5.64.88,4.52,2.16,8.14,1.17,12.93-1.11,5.36-2.56,10-2.2,15.63a4.87,4.87,0,0,0,2.15,3.86,10.64,10.64,0,0,0-1,2.89c-.72,3.77.11,7.48-.84,11.32-1.54,6.24,8.1,8.91,9.64,2.65,1-3.92.56-7.61,1-11.49.32-2.82,3-5.39,4-8.11,2.44-6.7,2.92-14.57,3.89-21.75,2.09-3.06,4-5.9,4.66-9.7C199.45,121.31,196.59,117,192.69,118.52Z" transform="translate(6.08 -9.23)"/><path class="cls-5" d="M265.82,109.86a4.46,4.46,0,0,0-2.37-3c-5.05-2.75-8.74-7.71-12.76-11.8-1.3-1.32-2.75-2.61-4.16-3.94-2-2.48-4.15-4.85-6.27-7.5-3.65-4.54-10.52,1.26-7.86,6.06,2,3.65,4.95,6.44,7.92,9.25.33.46.64.92.92,1.4,2.24,3.77,3.74,8.08,5.57,12,3.61,7.89,10.45,7.19,18.27,7.41C271.26,120,271.5,110.76,265.82,109.86Z" transform="translate(6.08 -9.23)"/><path class="cls-5" d="M271.48,190.6c-2.3-5.27-2.35-11.15-4.27-16.56-1.5-4.24-3.2-9.94-6.51-13.09a5,5,0,0,0-1.41-1c-.13-5.73-.1-11.46-.37-17.23-.3-6.41-10.3-6.44-10,0,.54,11.78.18,23.34,1.75,35.06-2.45,3.54-2.36,10.38-1.88,14.66.37,3.19,2.91,5.73,6.33,4.82,1.29-.34,3.67.31,5,.41,1.92.14,3.83-.05,5.75.25C270.36,198.67,273.29,194.75,271.48,190.6Z" transform="translate(6.08 -9.23)"/><path class="cls-5" d="M225.83,145.92c-.46-4-1.63-8-1.94-12s.53-8.56-.42-12.53a5,5,0,0,0-3.49-3.49c-3.93-1-8.76,0-12.73.51-3.56.43-6.5,4-4.32,7.53a52.42,52.42,0,0,1,6.61,15.69c1.28,5.5,1.53,10.73,3.85,16a4.11,4.11,0,0,0,2.7,2.48c-.16,4.39-.4,8.79-.34,13.12.08,6.43,10.08,6.45,10,0C225.63,164.21,226.83,154.81,225.83,145.92Z" transform="translate(6.08 -9.23)"/><path class="cls-5" d="M239.81,197.41c-4.28,1.57-9.75,1.51-14.3,2.13-4.93.68-10.13,1.09-14.69-1.26-5.48-2.84-10.36,5-5.68,8.24a4.37,4.37,0,0,0,.64,1.93c2.45,4,4.87,8,7.53,11.92a27.23,27.23,0,0,0,1.68,2.24c1,4.78,1.59,9.84,4.7,14.11,2.44,3.34,7.9,3.24,9.14-1.2,1.45-5.18,4-9.78,5.8-14.89a40.14,40.14,0,0,1,10.05-14.86C248.16,202.47,244.58,195.66,239.81,197.41Z" transform="translate(6.08 -9.23)"/><path class="cls-6" d="M250.21,141.7c.2-6.44-9.8-6.43-10,0-.15,4.62.84,9.09.21,13.71-.13,1-.28,2-.42,3-2.74-.15-5.72,1.82-5.55,4.93a31.65,31.65,0,0,1-2.34,14.52c-1.76,4.06-4.86,7.41-5.21,12-.89,11.6,10.58,9.37,18.37,7.68a5,5,0,0,0,3.67-4.82c-.31-4.06.44-8.08.5-12.15.05-4.26-.37-8.52-.34-12.79s1-8.52,1.41-12.86S250.06,146.13,250.21,141.7Z" transform="translate(6.08 -9.23)"/><path class="cls-6" d="M224.55,189.68c1.33-7.69-5.19-17.1-7.88-23.52-3.54-8.46-3-18.16-7.6-26.16-2.43-4.21-9.48-2.48-9.32,2.53.43,12.91-1,25.88.38,38.76.43,4.06.39,10.8,3.64,13.81,1.93,1.8,4.7,1.72,7.16,1.9l10,.75C225.65,198.11,226.86,192.69,224.55,189.68Z" transform="translate(6.08 -9.23)"/><path class="cls-6" d="M214.67,223.38a6.32,6.32,0,0,0-.9.07,5,5,0,0,0-1.22-3.62c-2.07-2.48-3.38-5.87-4.82-8.75s-1.48-6.09-2.88-8.91c-3.12-6.28-11.71-4-17.37-4.5-6.41-.57-6.37,9.43,0,10,.86.08,2.23.29,3.68.46-1.31,3,.14,7.25,4.36,7.25a4.8,4.8,0,0,0,2.72-.78,51.46,51.46,0,0,0,7.24,12.3,4,4,0,0,0,4.36,1.52,4.73,4.73,0,0,0,4.83,5C221.1,233.38,221.11,223.38,214.67,223.38Z" transform="translate(6.08 -9.23)"/><path class="cls-6" d="M244.84,110.3c-4-4.5-5.48-10.49-7.69-16s-5.21-11-8-16.38c-1.87-3.61-8.43-3.06-9.14,1.2-1,5.82-4.08,11.65-6.58,17-1.66,3.54-5.09,7.51-5.46,11.59-4.94.77-6.54,8.64-.85,9.67,5.07.93,10.29-.21,15.41-.37A64,64,0,0,1,240,118.65,5,5,0,0,0,244.84,110.3Z" transform="translate(6.08 -9.23)"/><polygon class="cls-7" points="41.69 114.16 41.69 333.23 231.41 442.77 421.13 333.23 421.13 114.16 231.41 4.62 41.69 114.16"/><rect class="cls-8" x="183.23" y="109.31" width="96.36" height="78.76"/><line class="cls-8" x1="231.41" y1="109.31" x2="231.41" y2="188.07"/><line class="cls-8" x1="183.23" y1="188.07" x2="207.36" y2="110.03"/><line class="cls-8" x1="207.36" y1="110.03" x2="231.41" y2="188.07"/><line class="cls-8" x1="255.48" y1="110.03" x2="231.41" y2="188.07"/><line class="cls-8" x1="279.59" y1="188.07" x2="255.48" y2="110.03"/><path class="cls-8" d="M224.33,69.16" transform="translate(6.08 -9.23)"/><path class="cls-8" d="M176.15,116.54" transform="translate(6.08 -9.23)"/><path class="cls-8" d="M226.33,69.16" transform="translate(6.08 -9.23)"/><path class="cls-8" d="M274.52,116.54" transform="translate(6.08 -9.23)"/><line class="cls-8" x1="207.36" y1="108.94" x2="231.41" y2="61.93"/><line class="cls-8" x1="255.48" y1="109.31" x2="231.41" y2="61.93"/><path class="cls-8" d="M224.34,242.68" transform="translate(6.08 -9.23)"/><path class="cls-8" d="M176.15,195.3" transform="translate(6.08 -9.23)"/><line class="cls-8" x1="280.5" y1="188.93" x2="231.46" y2="236.38"/><line class="cls-8" x1="207.36" y1="188.79" x2="231.41" y2="235.46"/><line class="cls-8" x1="255.48" y1="188.07" x2="231.41" y2="235.46"/><rect class="cls-9" x="224.48" y="70.54" width="1.71" height="1.71" transform="translate(21.59 171.02) rotate(-45)"/><polygon class="cls-8" points="229.34 303.77 233.59 303.77 233.59 234.32 229.34 234.38 229.34 303.77"/><rect class="cls-8" x="219.42" y="303.77" width="24.09" height="5.96"/><path class="cls-8" d="M326.62,258.5" transform="translate(6.08 -9.23)"/><path class="cls-8" d="M245.59,304.62" transform="translate(6.08 -9.23)"/><path class="cls-8" d="M144.65,335.81" transform="translate(6.08 -9.23)"/><path class="cls-8" d="M204.43,325.91" transform="translate(6.08 -9.23)"/><path class="cls-8" d="M317.2,301.3" transform="translate(6.08 -9.23)"/><path class="cls-8" d="M248.09,316" transform="translate(6.08 -9.23)"/><path class="cls-1" d="M112.52,343.49h4.53l7,21.58H120l-3.24-11.47c-.65-2.28-1.34-4.73-1.93-7.12h-.13c-.61,2.39-1.26,4.84-1.91,7.12l-3.28,11.47h-3.93Zm-2.84,12.72H119.8v3H109.68Z" transform="translate(6.08 -9.23)"/><path class="cls-1" d="M330.26,361.84h5.2V346.72h-5.2v-3.23H344.5v3.23h-5.2v15.12h5.2v3.23H330.26Z" transform="translate(6.08 -9.23)"/><path class="cls-1" d="M161.13,387.19c0-7.05,4.29-11.25,10-11.25a8.66,8.66,0,0,1,6.18,2.69L175.17,381a5.53,5.53,0,0,0-4-1.74c-3.58,0-6,3-6,7.8s2.47,7.9,6.14,7.9a5.71,5.71,0,0,0,4.36-2.14l2.14,2.33a8.62,8.62,0,0,1-6.88,3.14C165.49,398.31,161.13,394.35,161.13,387.19Z" transform="translate(6.08 -9.23)"/><path class="cls-1" d="M276,376.34h4.52l7,21.58h-4.08l-3.25-11.48c-.65-2.27-1.34-4.72-1.92-7.11h-.14c-.6,2.39-1.25,4.84-1.9,7.11L273,397.92H269Zm-2.84,12.72h10.12v3H273.17Z" transform="translate(6.08 -9.23)"/><text x="6.08" y="-9.23"/><text x="6.08" y="-9.23"/><path class="cls-1" d="M223.41,404.33h-6.79V401.1h17.43v3.23h-6.8v18.35h-3.84Z" transform="translate(6.08 -9.23)"/><line class="cls-8" x1="210.51" y1="292.21" x2="108.99" y2="245.5"/><line class="cls-8" x1="81.04" y1="296.71" x2="112.77" y2="244.31"/><line class="cls-8" x1="205.53" y1="306.76" x2="134.05" y2="302.33"/><line class="cls-8" x1="122.9" y1="325.27" x2="136.83" y2="300.84"/><path class="cls-10" d="M347.71,254.57" transform="translate(6.08 -9.23)"/><path class="cls-10" d="M243.38,301.44" transform="translate(6.08 -9.23)"/><ellipse class="cls-11" cx="81.06" cy="296.65" rx="2.49" ry="2.53"/><path class="cls-8" d="M348.24,254.33" transform="translate(6.08 -9.23)"/><path class="cls-8" d="M243.92,301.2" transform="translate(6.08 -9.23)"/><path class="cls-10" d="M322.32,311.45" transform="translate(6.08 -9.23)"/><path class="cls-10" d="M249.25,314.71" transform="translate(6.08 -9.23)"/><path class="cls-10" d="M241.16,330.48" transform="translate(6.08 -9.23)"/><path class="cls-10" d="M279.84,356" transform="translate(6.08 -9.23)"/><path class="cls-8" d="M278.86,353.88" transform="translate(6.08 -9.23)"/><path class="cls-8" d="M278.9,367.94" transform="translate(6.08 -9.23)"/><path class="cls-8" d="M241.43,330.48" transform="translate(6.08 -9.23)"/><path class="cls-8" d="M280,356" transform="translate(6.08 -9.23)"/><ellipse class="cls-11" cx="122.93" cy="325.23" rx="2.49" ry="2.53"/><ellipse class="cls-11" cx="210.51" cy="292.21" rx="2.49" ry="2.53"/><ellipse class="cls-11" cx="205.53" cy="306.76" rx="2.49" ry="2.53"/><ellipse class="cls-11" cx="210.51" cy="321.26" rx="2.49" ry="2.53"/><path class="cls-8" d="M345.08,253.35" transform="translate(6.08 -9.23)"/><path class="cls-8" d="M322.13,311.44" transform="translate(6.08 -9.23)"/><path class="cls-8" d="M249.25,314.69" transform="translate(6.08 -9.23)"/><path class="cls-8" d="M320.11,310.56" transform="translate(6.08 -9.23)"/><path class="cls-8" d="M166.19,354" transform="translate(6.08 -9.23)"/><path class="cls-8" d="M166.16,365.29" transform="translate(6.08 -9.23)"/><path class="cls-8" d="M209.68,330.46" transform="translate(6.08 -9.23)"/><path class="cls-8" d="M164.94,356.16" transform="translate(6.08 -9.23)"/><path class="cls-8" d="M399.16,378.94" transform="translate(6.08 -9.23)"/><path class="cls-8" d="M213.34,427.07" transform="translate(6.08 -9.23)"/><path class="cls-8" d="M40.29,327.16" transform="translate(6.08 -9.23)"/><path class="cls-8" d="M239,427.07" transform="translate(6.08 -9.23)"/><path class="cls-8" d="M412,327.16" transform="translate(6.08 -9.23)"/><line class="cls-8" x1="178.29" y1="358.72" x2="178.33" y2="344.38"/><line class="cls-8" x1="177.15" y1="346.75" x2="210.51" y2="321.26"/><ellipse class="cls-11" cx="178.29" cy="358.72" rx="2.49" ry="2.53"/><path class="cls-8" d="M322.13,311.42" transform="translate(6.08 -9.23)"/><path class="cls-8" d="M320.11,310.54" transform="translate(6.08 -9.23)"/><path class="cls-8" d="M333.67,334.34" transform="translate(6.08 -9.23)"/><text x="6.08" y="-9.23"/><line class="cls-12" y1="11.41" x2="542.46" y2="17.83"/><path class="cls-13" d="M225.39,316" transform="translate(6.08 -9.23)"/><path class="cls-13" d="M199.46,316" transform="translate(6.08 -9.23)"/><path class="cls-13" d="M204.43,301.14" transform="translate(6.08 -9.23)"/><path class="cls-13" d="M204.43,333.94" transform="translate(6.08 -9.23)"/><line class="cls-8" x1="252.49" y1="292.24" x2="354.01" y2="245.53"/><line class="cls-8" x1="381.96" y1="296.75" x2="350.23" y2="244.35"/><line class="cls-8" x1="257.47" y1="306.79" x2="328.95" y2="302.37"/><line class="cls-8" x1="340.1" y1="325.31" x2="326.17" y2="300.88"/><ellipse class="cls-11" cx="381.94" cy="296.69" rx="2.49" ry="2.53"/><ellipse class="cls-11" cx="340.07" cy="325.26" rx="2.49" ry="2.53"/><ellipse class="cls-11" cx="252.49" cy="292.24" rx="2.49" ry="2.53"/><ellipse class="cls-11" cx="257.47" cy="306.79" rx="2.49" ry="2.53"/><ellipse class="cls-11" cx="252.49" cy="321.29" rx="2.49" ry="2.53"/><line class="cls-8" x1="284.71" y1="358.75" x2="284.67" y2="344.42"/><line class="cls-8" x1="285.86" y1="346.78" x2="252.49" y2="321.29"/><ellipse class="cls-11" cx="284.71" cy="358.76" rx="2.49" ry="2.53"/><path class="cls-8" d="M224,242.19" transform="translate(6.08 -9.23)"/><path class="cls-8" d="M175.86,195.67" transform="translate(6.08 -9.23)"/><line class="cls-8" x1="182.34" y1="188.9" x2="231.43" y2="236.4"/><line class="cls-8" x1="280.49" y1="108.44" x2="231.46" y2="61"/><line class="cls-8" x1="182.33" y1="108.47" x2="231.42" y2="60.97"/><line class="cls-8" x1="207.36" y1="108.94" x2="207.36" y2="187.7"/><line class="cls-8" x1="255.48" y1="110.03" x2="255.48" y2="188.79"/></svg>