<svg xmlns="http://www.w3.org/2000/svg" viewBox="0 0 1710.82 847.85"><defs><style>.cls-1{isolation:isolate;}.cls-2{fill:#d4a476;}.cls-3{mix-blend-mode:multiply;}.cls-4{fill:#d1d3d4;}.cls-5{fill:#034e6e;}.cls-6{fill:#c7dcff;opacity:0.24;}.cls-12,.cls-7{fill:#fff;}.cls-7{mix-blend-mode:screen;}.cls-8{fill:#f44336;}.cls-9{fill:#bcbec0;}.cls-10,.cls-11,.cls-20{fill:#1d1d1b;}.cls-10{fill-rule:evenodd;}.cls-12,.cls-16,.cls-17,.cls-18,.cls-20,.cls-21{stroke:#1d1d1b;}.cls-12,.cls-16,.cls-17,.cls-18,.cls-19,.cls-20,.cls-21{stroke-miterlimit:10;}.cls-12{stroke-width:7px;}.cls-13{fill:#e42528;}.cls-14{fill:#e67979;}.cls-15{fill:#8a1725;}.cls-16,.cls-17,.cls-18,.cls-19,.cls-21{fill:none;}.cls-16{stroke-width:8px;}.cls-17{stroke-width:6px;}.cls-18{stroke-width:6.01px;}.cls-19{stroke:#fff;stroke-width:11px;}</style></defs><g class="cls-1"><g id="Calque_1" data-name="Calque 1"><path class="cls-2" d="M265.34,748.91c1.52,4.94,3,9.76,4.33,13.79a18,18,0,0,1-1.44-1.64A15.42,15.42,0,0,1,265.34,748.91Z" transform="translate(-80.18 -19.15)"/><path class="cls-2" d="M401.58,521.29c-5.95,19.24-12.58,35.72-24.18,50l7.05,2.41C395,560.66,400.07,539.38,401.58,521.29Z" transform="translate(-80.18 -19.15)"/><g class="cls-3"><path class="cls-4" d="M245.21,677.49c.79,1.07,4,2,5.22,2.44-.59-8.26-1.28-21.64,7.21-26.22,7.44-4,16.42,1.29,21.89,6.82,16,16.16,29,37.2,42.47,55.88l.74.1c-.15.1-.31.19-.46.3a104.59,104.59,0,0,0-12.23,9.45c-8.53,7.59-22,19.71-36.25,32.57l-.24.22c-.4-.44-.77-.88-1.12-1.32-3.6-4.56-3.76-10.35-2.05-15.73q-.42-1.85-.84-3.66C264.6,716.77,259,695.86,245.21,677.49Z" transform="translate(-80.18 -19.15)"/></g><g class="cls-3"><path class="cls-4" d="M218.65,809.66c-2,1.74-4.53,4-7.69,6.56A488.35,488.35,0,0,1,166.82,844c-10.2-10.94-20.75-23.53-23.25-27.9-14.89-26,6.92-31.67,18-58,3.9-9.28,11-18.83,21.5-19,10-.13-6.26,15-2.16,24.15.76,1.69,2.94,4.71,6,8.55,2.1,2.61,4.61,5.59,7.37,8.8l-.23-.38c-13.49-23.58,3.17-30.43,14.62-51.07h0c.35-.76.7-1.55,1-2.35a49.44,49.44,0,0,1,2.73-5.51c4-9,10.94-17.84,21.08-18s18.54,8.62,22.64,17.78c2.25,5,5.8,16.71,9.18,27.73,1.51,4.91,3,9.69,4.3,13.69l-5.84,5.3c-14.33,13-28.34,25.9-37.72,34.8-1.08,1-2.11,2-3.06,2.93,0,0-1.32,1.3-3.85,3.56Z" transform="translate(-80.18 -19.15)"/></g><g class="cls-3"><path class="cls-4" d="M415.21,670.06c-38.68,28.18-57.66,31.54-74.78,37.83,4.7-8.31,7.32-19.83,5.4-29.33-4.89-24.11-28.79-38.72-48.07-53.87l-1.33-1.05c1.42-.59,2.83-1.21,4.21-1.85,13.94-6.46,26.48-15.25,38.8-23.9,20.12,10.38,45.91,27.43,60.41,39.24,6.4,5.21,12.82,11,15.81,18.51C418.28,662.2,416.12,664.78,415.21,670.06Z" transform="translate(-80.18 -19.15)"/></g><g class="cls-3"><path class="cls-4" d="M379.88,592.49c-7.58-2-15.69-4-23.9-6,4.73-3.09,9.49-6,14.38-8.56,21.58-11.42,48.36-21.9,74.32-18.77,20.85,2.5,37.08,26.45,34.87,45.6-1.94,16.87-17.86,28.36-44.6,50l-1.7,1.37c-.67-1.79-1.33-3.65-2-5.68-.75-2.3-1.49-4.82-2.26-7.72-3.26-12.31-7.23-25.37-16.12-34.68a40.44,40.44,0,0,0-3.45-3.2C401.08,598.07,390.27,595.18,379.88,592.49Z" transform="translate(-80.18 -19.15)"/></g><path class="cls-5" d="M124.46,779.54l438-341.45,42.65,50.58-438,341.45C126.2,828.27,114,819.27,124.46,779.54Z" transform="translate(-80.18 -19.15)"/><path class="cls-5" d="M981.31,541.49c128.06-89.26,151.1-267.34,51.45-397.77S748.53-20.08,620.47,69.17,469.37,336.51,569,466.94,853.25,630.74,981.31,541.49ZM595.89,448.2C507.8,332.9,528.16,175.45,641.38,96.55s276.41-49.4,364.5,65.91,67.73,272.75-45.49,351.65S684,563.51,595.89,448.2Z" transform="translate(-80.18 -19.15)"/><path class="cls-6" d="M960.39,514.11c113.22-78.9,133.59-236.35,45.49-351.65S754.6,17.64,641.38,96.55,507.8,332.9,595.89,448.2,847.18,593,960.39,514.11Z" transform="translate(-80.18 -19.15)"/><path class="cls-7" d="M590.05,236.1l9.64,1c30.43-95.34,123.52-156.85,228.54-150L829,71.44C714.37,56.18,611,127.14,590.05,236.1Z" transform="translate(-80.18 -19.15)"/><path class="cls-8" d="M92.92,837.25l7.91,9.42c19,22.6,52.26,27,74.34,9.9L548.61,566.82c7.48-5.81,8.33-16.72,1.9-24.38l-53.34-63.52c-6.43-7.65-17.71-9.16-25.19-3.35L98.54,765.32C76.46,782.45,73.94,814.66,92.92,837.25Z" transform="translate(-80.18 -19.15)"/><g class="cls-3"><path class="cls-9" d="M472,475.57c7.48-5.81,18.76-4.3,25.19,3.35l5.1,6.07,51.42-40.09C472.3,317.1,499.48,153.5,620.47,69.17c122.6-85.44,297-58.43,399,58.47l-25.83,20C903.36,44.81,749.58,21.14,641.38,96.55,528.16,175.45,507.8,332.9,595.89,448.2c1.31,1.71,2.68,3.34,4,5L97.66,842.9l-4.74-5.65c-19-22.59-16.46-54.8,5.62-71.93" transform="translate(-80.18 -19.15)"/></g><path class="cls-10" d="M914.29,617.72l4.05-1.38a5.56,5.56,0,0,0,3.32-6.86l-37-126.14a5,5,0,0,0-6.39-3.57l-4,1.37a5.55,5.55,0,0,0-3.32,6.86l37,126.15A5,5,0,0,0,914.29,617.72Z" transform="translate(-80.18 -19.15)"/><rect class="cls-11" x="1343.19" y="174.76" width="14.62" height="881" rx="7.05" transform="translate(1885.58 -754.38) rotate(90)"/><path class="cls-11" d="M649.55,395.75h6.08c4,0,6.94,1.31,6.94,5.16a4.53,4.53,0,0,1-3.38,4.55v.13c2.83.52,4.39,2.14,4.39,5,0,4.2-3.12,6.16-7.45,6.16h-6.58Zm5.77,8.63c2.74,0,3.85-1.07,3.85-3s-1.25-2.63-3.78-2.63H653v5.65Zm.45,9.38c2.87,0,4.41-1.06,4.41-3.43,0-2.21-1.48-3.12-4.41-3.12H653v6.55Z" transform="translate(-80.18 -19.15)"/><path class="cls-11" d="M936.54,395.75H940V413.6h9.19v3.14H936.54Z" transform="translate(-80.18 -19.15)"/><rect class="cls-12" x="649.21" y="219.1" width="299.6" height="140.72" rx="69.59" transform="translate(429.37 1069.32) rotate(-90)"/><path class="cls-13" d="M778.65,294.21c-2.07-2.49-3.62-5-6.1-7.11a31.4,31.4,0,0,0-8.58-5.51c-2.3-.93-5,1-5.59,3.4a5,5,0,0,0,3.18,6,21.64,21.64,0,0,1,6,4.2c1.88,1.72,3.08,4,4.72,5.92C776.13,305.77,782.54,298.87,778.65,294.21Z" transform="translate(-80.18 -19.15)"/><path class="cls-14" d="M777.71,242.69c0-2.07,0-4.09.13-6.1,1.22-3.78,1.91-7.57.77-11.11-1.3-4.07-8-5.16-8.75,0-.45,3.12-.91,6.25-1.15,9.4-.72,1.8-1.53,3.53-2,4.8-1.2,3.38-1.78,6.85-2.74,10.29s-2.6,6.77-3.64,10.26a69.43,69.43,0,0,0-2,11,5.79,5.79,0,0,0,.08,1.92c-4.37,2.29-1.93,10.43,3.39,9,3.48-.93,7.48-.42,10.81-1.58a4.67,4.67,0,0,0,3.17-3.39c1.12-7.75-2-16.05,0-23.7C776.74,249.69,777.73,246.7,777.71,242.69Z" transform="translate(-80.18 -19.15)"/><path class="cls-14" d="M834,280.77a7,7,0,0,0-2.83,1.28c-3.65.93-7.5-1.87-10.74,1.53-3.46,3.62-3.84,9.44-7.42,13a4.44,4.44,0,0,0-1.11,4.84l-.37.51c-2.35,3.33-5.19,6.15-7.4,9.61-3.31,5.17,4.55,10,7.84,4.91,1.75-2.75,4.11-5,6-7.6a54.24,54.24,0,0,1,6-7.5c2.16-2.08,4.51-3.91,6.76-5.89.93-.82,2.68-3.06,4.13-4.36a16.54,16.54,0,0,0,2.58-1.46A4.88,4.88,0,0,0,834,280.77Z" transform="translate(-80.18 -19.15)"/><path class="cls-14" d="M843.33,236.61c-.92-8.87-1.87-17.73-2.08-26.66,0-2.4-2-5.18-4.54-4.87a29.81,29.81,0,0,1-7.43-.08c-2.28-.27-4.76-.83-6.73.82-3.95,3.3-.93,8.43,1.22,11.75.83,1.27,1.74,2.52,2.63,3.78a5,5,0,0,0,.42,3.88c2.16,4.2,2,8.64,4.66,12.48a21,21,0,0,0,.45,3.27c.31,1.43.73,2.82,1.14,4.21a31.8,31.8,0,0,0,1.16,4.64,5.35,5.35,0,0,0,1.52,2.37,12.49,12.49,0,0,1-.75,4.33c-2.23,5.78,6.55,8.3,8.75,2.59C846.35,252.38,844.06,243.57,843.33,236.61Z" transform="translate(-80.18 -19.15)"/><path class="cls-14" d="M815.58,204.91l-11.71.76c-3.3.21-4.74,3.46-4.28,6.15-1,2.6-.66,6.13-.43,9,.55,6.84,1.8,14.08,1.5,20.94,0,.36-.06.71-.1,1.05a39.58,39.58,0,0,0-1.68,4.8c-.23.83-.41,1.68-.57,2.54-.22.63-.43,1.28-.6,1.94a19.16,19.16,0,0,0-.48,6.93h0c0,.43.09.86.16,1.3.88,5.93,8.32,3.59,8.91-1.3.28-2.27.48-4.55.9-6.78.55-1.36,1.17-2.69,1.54-4a25.32,25.32,0,0,0,.61-2.79c1.18-2.86,2.51-5.67,3.6-8.57,3-8,3.27-16.68,6.55-24.69C820.77,209.14,819.37,204.67,815.58,204.91Z" transform="translate(-80.18 -19.15)"/><path class="cls-14" d="M783.65,173c-1.73,4.42-5.66,8.55-8.31,12.36l-.86,1.23a4.22,4.22,0,0,0-4.26,2.24c-1.36,2.29-3.67,3.44-5.68,5a24.52,24.52,0,0,0-5.36,5.49c-2.75,3.83,1.79,7.65,5.13,7.14a22.84,22.84,0,0,0,4.93-1.64,36.58,36.58,0,0,1,4.87-1.07c3.35-.81,4.11-3.72,5.23-6.73,3-8,10-13.47,13.06-21.4C794.66,169.83,785.88,167.31,783.65,173Z" transform="translate(-80.18 -19.15)"/><path class="cls-15" d="M769.42,204.48c-4.07,1.66-8.8.07-12.72,2.21-1.88,1-2.46,3.45-2.09,5.5.8,4.39,2,7.92,1.06,12.57-1,5.21-2.32,9.78-2,15.2a4.83,4.83,0,0,0,2,3.76,10.62,10.62,0,0,0-.93,2.82c-.65,3.66.11,7.27-.76,11-1.4,6.08,7.35,8.67,8.76,2.59.88-3.82.5-7.41.91-11.18.29-2.74,2.74-5.25,3.63-7.9,2.22-6.51,2.66-14.17,3.53-21.16,1.9-3,3.61-5.73,4.24-9.43C775.56,207.19,773,203,769.42,204.48Z" transform="translate(-80.18 -19.15)"/><path class="cls-15" d="M835.81,196.05a4.31,4.31,0,0,0-2.15-2.91c-4.58-2.68-7.94-7.51-11.58-11.48-1.18-1.29-2.5-2.55-3.78-3.84-1.81-2.41-3.76-4.71-5.69-7.29-3.32-4.42-9.55,1.22-7.13,5.89,1.84,3.56,4.49,6.27,7.18,9,.3.45.58.9.84,1.36,2,3.67,3.4,7.87,5,11.73,3.29,7.67,9.49,7,16.59,7.2C840.75,205.88,841,196.93,835.81,196.05Z" transform="translate(-80.18 -19.15)"/><path class="cls-15" d="M841,274.6c-2.09-5.13-2.13-10.85-3.88-16.11-1.36-4.12-2.9-9.67-5.9-12.74a5,5,0,0,0-1.29-.95c-.11-5.57-.09-11.15-.33-16.76-.27-6.23-9.35-6.27-9.08,0,.49,11.46.16,22.7,1.59,34.11-2.22,3.44-2.14,10.09-1.7,14.26.32,3.1,2.63,5.57,5.74,4.69,1.17-.34,3.33.3,4.51.4,1.74.13,3.48-.05,5.22.24C839.93,282.45,842.6,278.63,841,274.6Z" transform="translate(-80.18 -19.15)"/><path class="cls-15" d="M799.51,231.13c-.42-3.94-1.48-7.74-1.77-11.7s.49-8.33-.37-12.19a4.71,4.71,0,0,0-3.17-3.39c-3.57-1-8,0-11.56.5-3.23.41-5.9,3.87-3.92,7.32a53.37,53.37,0,0,1,6,15.26c1.16,5.35,1.39,10.44,3.49,15.53a3.82,3.82,0,0,0,2.46,2.42c-.15,4.27-.37,8.55-.32,12.76.08,6.26,9.16,6.27,9.08,0C799.33,248.93,800.41,239.78,799.51,231.13Z" transform="translate(-80.18 -19.15)"/><path class="cls-15" d="M812.2,281.22c-3.88,1.53-8.85,1.47-13,2.08-4.48.66-9.2,1.06-13.34-1.23-5-2.76-9.4,4.86-5.16,8a4.52,4.52,0,0,0,.58,1.87c2.23,3.9,4.43,7.83,6.84,11.6a23.64,23.64,0,0,0,1.53,2.17c.94,4.66,1.44,9.58,4.27,13.73,2.21,3.25,7.17,3.16,8.29-1.16,1.32-5.05,3.6-9.52,5.27-14.49a39.27,39.27,0,0,1,9.12-14.46C819.78,286.15,816.53,279.52,812.2,281.22Z" transform="translate(-80.18 -19.15)"/><path class="cls-13" d="M821.64,227c.19-6.26-8.89-6.26-9.08,0-.14,4.5.77,8.84.2,13.34l-.39,2.89a4.68,4.68,0,0,0-5,4.79,32.72,32.72,0,0,1-2.12,14.12c-1.6,3.95-4.41,7.22-4.73,11.68-.81,11.28,9.6,9.12,16.68,7.47a4.84,4.84,0,0,0,3.33-4.69c-.28-3.95.4-7.86.45-11.81,0-4.15-.34-8.3-.31-12.45s.87-8.29,1.28-12.51S821.51,231.34,821.64,227Z" transform="translate(-80.18 -19.15)"/><path class="cls-13" d="M798.35,273.7c1.2-7.47-4.72-16.63-7.16-22.88-3.21-8.23-2.72-17.66-6.9-25.44-2.2-4.1-8.61-2.42-8.46,2.45.39,12.56-.89,25.19.34,37.71.39,3.95.36,10.51,3.31,13.44,1.76,1.75,4.26,1.67,6.5,1.85l9,.73C799.34,281.9,800.44,276.63,798.35,273.7Z" transform="translate(-80.18 -19.15)"/><path class="cls-13" d="M789.37,306.48a4.28,4.28,0,0,0-.81.08,5.13,5.13,0,0,0-1.11-3.52c-1.88-2.42-3.06-5.72-4.38-8.52s-1.34-5.93-2.61-8.66c-2.83-6.12-10.63-3.89-15.77-4.38-5.82-.56-5.79,9.17,0,9.72.78.08,2,.29,3.34.45-1.19,2.88.13,7.05,4,7.05a4.12,4.12,0,0,0,2.47-.75,51,51,0,0,0,6.57,12,3.54,3.54,0,0,0,4,1.48c0,2.42,1.48,4.82,4.38,4.82C795.22,316.21,795.23,306.48,789.37,306.48Z" transform="translate(-80.18 -19.15)"/><path class="cls-13" d="M816.77,196.48c-3.67-4.37-5-10.2-7-15.53s-4.73-10.69-7.26-15.94c-1.7-3.51-7.65-3-8.3,1.16-.89,5.67-3.7,11.35-6,16.53-1.5,3.45-4.63,7.31-5,11.28-4.49.75-5.95,8.41-.78,9.41,4.61.9,9.34-.21,14-.36a54.19,54.19,0,0,1,15.84,1.58C816.86,205.8,819.78,200.07,816.77,196.48Z" transform="translate(-80.18 -19.15)"/><polygon class="cls-16" points="546.63 190.06 546.63 403.18 718.87 509.74 891.12 403.18 891.12 190.06 718.87 83.5 546.63 190.06"/><rect class="cls-17" x="675.13" y="185.35" width="87.49" height="76.62"/><line class="cls-17" x1="718.87" y1="185.35" x2="718.87" y2="261.97"/><line class="cls-17" x1="675.13" y1="261.97" x2="697.04" y2="186.05"/><line class="cls-17" x1="697.04" y1="186.05" x2="718.87" y2="261.97"/><line class="cls-17" x1="740.72" y1="186.05" x2="718.87" y2="261.97"/><line class="cls-17" x1="762.62" y1="261.97" x2="740.72" y2="186.05"/><path class="cls-17" d="M754.41,202.55" transform="translate(-80.18 -19.15)"/><path class="cls-17" d="M843.71,202.55" transform="translate(-80.18 -19.15)"/><line class="cls-17" x1="697.04" y1="184.99" x2="718.87" y2="139.26"/><line class="cls-17" x1="740.72" y1="185.35" x2="718.87" y2="139.26"/><path class="cls-17" d="M798.15,325.27" transform="translate(-80.18 -19.15)"/><path class="cls-17" d="M754.41,279.17" transform="translate(-80.18 -19.15)"/><line class="cls-17" x1="763.44" y1="262.81" x2="718.92" y2="308.96"/><line class="cls-17" x1="697.04" y1="262.67" x2="718.87" y2="308.07"/><line class="cls-17" x1="740.72" y1="261.97" x2="718.87" y2="308.07"/><polygon class="cls-18" points="719.97 139.49 718.87 140.67 717.77 139.49 718.87 138.31 719.97 139.49"/><polygon class="cls-17" points="716.99 374.53 720.85 374.53 720.85 306.96 716.99 307.02 716.99 374.53"/><rect class="cls-17" x="707.98" y="374.53" width="21.87" height="5.8"/><path class="cls-17" d="M891,340.65" transform="translate(-80.18 -19.15)"/><path class="cls-17" d="M817.45,385.52" transform="translate(-80.18 -19.15)"/><path class="cls-17" d="M725.81,415.86" transform="translate(-80.18 -19.15)"/><path class="cls-17" d="M780.08,406.23" transform="translate(-80.18 -19.15)"/><path class="cls-17" d="M882.46,382.29" transform="translate(-80.18 -19.15)"/><path class="cls-17" d="M819.72,396.57" transform="translate(-80.18 -19.15)"/><path class="cls-11" d="M696.63,423.34h4.11l6.35,21h-3.71l-3-11.16c-.59-2.22-1.21-4.6-1.74-6.92h-.12c-.56,2.32-1.14,4.7-1.73,6.92l-3,11.16h-3.57Zm-2.57,12.37h9.18v3h-9.18Z" transform="translate(-80.18 -19.15)"/><path class="cls-11" d="M894.32,441.19H899V426.48h-4.72v-3.14h12.92v3.14h-4.72v14.71h4.72v3.14H894.32Z" transform="translate(-80.18 -19.15)"/><path class="cls-11" d="M740.77,465.85c0-6.86,3.89-10.94,9.07-10.94a7.64,7.64,0,0,1,5.61,2.61l-1.94,2.33a4.86,4.86,0,0,0-3.67-1.7c-3.25,0-5.49,2.88-5.49,7.58s2.24,7.69,5.58,7.69a5.06,5.06,0,0,0,4-2.08l1.94,2.26a7.6,7.6,0,0,1-6.24,3.07C744.73,476.67,740.77,472.81,740.77,465.85Z" transform="translate(-80.18 -19.15)"/><path class="cls-11" d="M845.06,455.29h4.11l6.34,21H851.8l-2.94-11.16c-.59-2.21-1.22-4.6-1.75-6.92H847c-.55,2.32-1.14,4.71-1.73,6.92l-3,11.16h-3.57Zm-2.58,12.37h9.18v2.95h-9.18Z" transform="translate(-80.18 -19.15)"/><text x="-80.18" y="-19.15"/><text x="-80.18" y="-19.15"/><path class="cls-11" d="M797.31,482.52h-6.17v-3.14H807v3.14H800.8v17.85h-3.49Z" transform="translate(-80.18 -19.15)"/><line class="cls-17" x1="699.9" y1="363.28" x2="607.73" y2="317.83"/><line class="cls-17" x1="582.36" y1="367.66" x2="611.16" y2="316.68"/><line class="cls-17" x1="695.38" y1="377.43" x2="630.48" y2="373.12"/><line class="cls-17" x1="620.36" y1="395.44" x2="633" y2="371.67"/><path class="cls-19" d="M910.16,336.83" transform="translate(-80.18 -19.15)"/><path class="cls-19" d="M815.44,382.42" transform="translate(-80.18 -19.15)"/><ellipse class="cls-20" cx="582.37" cy="367.6" rx="2.26" ry="2.46"/><path class="cls-17" d="M910.64,336.59" transform="translate(-80.18 -19.15)"/><path class="cls-17" d="M815.93,382.19" transform="translate(-80.18 -19.15)"/><path class="cls-19" d="M887.11,392.17" transform="translate(-80.18 -19.15)"/><path class="cls-19" d="M820.77,395.33" transform="translate(-80.18 -19.15)"/><path class="cls-19" d="M813.42,410.68" transform="translate(-80.18 -19.15)"/><path class="cls-19" d="M848.54,435.53" transform="translate(-80.18 -19.15)"/><path class="cls-17" d="M847.65,433.44" transform="translate(-80.18 -19.15)"/><path class="cls-17" d="M847.69,447.12" transform="translate(-80.18 -19.15)"/><path class="cls-17" d="M813.67,410.68" transform="translate(-80.18 -19.15)"/><path class="cls-17" d="M848.68,435.46" transform="translate(-80.18 -19.15)"/><ellipse class="cls-20" cx="620.38" cy="395.4" rx="2.26" ry="2.46"/><ellipse class="cls-20" cx="699.9" cy="363.28" rx="2.26" ry="2.46"/><ellipse class="cls-20" cx="695.38" cy="377.43" rx="2.26" ry="2.46"/><ellipse class="cls-20" cx="699.9" cy="391.53" rx="2.26" ry="2.46"/><path class="cls-17" d="M907.77,335.65" transform="translate(-80.18 -19.15)"/><path class="cls-17" d="M886.93,392.16" transform="translate(-80.18 -19.15)"/><path class="cls-17" d="M820.77,395.32" transform="translate(-80.18 -19.15)"/><path class="cls-17" d="M885.1,391.3" transform="translate(-80.18 -19.15)"/><path class="cls-17" d="M745.36,433.57" transform="translate(-80.18 -19.15)"/><path class="cls-17" d="M745.33,444.54" transform="translate(-80.18 -19.15)"/><path class="cls-17" d="M784.85,410.66" transform="translate(-80.18 -19.15)"/><path class="cls-17" d="M744.23,435.66" transform="translate(-80.18 -19.15)"/><path class="cls-17" d="M956.87,457.82" transform="translate(-80.18 -19.15)"/><path class="cls-17" d="M788.17,504.64" transform="translate(-80.18 -19.15)"/><path class="cls-17" d="M631.06,407.44" transform="translate(-80.18 -19.15)"/><path class="cls-17" d="M811.45,504.64" transform="translate(-80.18 -19.15)"/><path class="cls-17" d="M968.56,407.44" transform="translate(-80.18 -19.15)"/><line class="cls-17" x1="670.64" y1="427.97" x2="670.68" y2="414.03"/><line class="cls-17" x1="669.61" y1="416.33" x2="699.9" y2="391.53"/><ellipse class="cls-20" cx="670.64" cy="427.98" rx="2.26" ry="2.46"/><path class="cls-17" d="M886.93,392.14" transform="translate(-80.18 -19.15)"/><path class="cls-17" d="M885.1,391.28" transform="translate(-80.18 -19.15)"/><path class="cls-17" d="M897.41,414.43" transform="translate(-80.18 -19.15)"/><path class="cls-21" d="M799.1,396.57" transform="translate(-80.18 -19.15)"/><path class="cls-21" d="M775.56,396.57" transform="translate(-80.18 -19.15)"/><path class="cls-21" d="M780.08,382.14" transform="translate(-80.18 -19.15)"/><path class="cls-21" d="M780.08,414" transform="translate(-80.18 -19.15)"/><line class="cls-17" x1="738.01" y1="363.31" x2="830.18" y2="317.87"/><line class="cls-17" x1="855.55" y1="367.69" x2="826.74" y2="316.72"/><line class="cls-17" x1="742.53" y1="377.46" x2="807.43" y2="373.16"/><line class="cls-17" x1="817.54" y1="395.48" x2="804.9" y2="371.71"/><ellipse class="cls-20" cx="855.54" cy="367.63" rx="2.26" ry="2.46"/><ellipse class="cls-20" cx="817.52" cy="395.43" rx="2.26" ry="2.46"/><ellipse class="cls-20" cx="738.01" cy="363.31" rx="2.26" ry="2.46"/><ellipse class="cls-20" cx="742.53" cy="377.46" rx="2.26" ry="2.46"/><ellipse class="cls-20" cx="738.01" cy="391.57" rx="2.26" ry="2.46"/><line class="cls-17" x1="767.26" y1="428.01" x2="767.23" y2="414.06"/><line class="cls-17" x1="768.3" y1="416.36" x2="738.01" y2="391.57"/><ellipse class="cls-20" cx="767.26" cy="428.01" rx="2.26" ry="2.46"/><path class="cls-17" d="M797.8,324.79" transform="translate(-80.18 -19.15)"/><path class="cls-17" d="M754.14,279.53" transform="translate(-80.18 -19.15)"/><line class="cls-17" x1="674.32" y1="262.78" x2="718.89" y2="308.99"/><line class="cls-17" x1="763.43" y1="184.5" x2="718.91" y2="138.35"/><line class="cls-17" x1="674.31" y1="184.53" x2="718.88" y2="138.32"/><line class="cls-17" x1="697.04" y1="184.99" x2="697.04" y2="261.61"/><line class="cls-17" x1="740.72" y1="186.05" x2="740.72" y2="262.67"/></g></g></svg>