<svg id="Calque_1" data-name="Calque 1" xmlns="http://www.w3.org/2000/svg" viewBox="0 0 1196 487"><defs><style>.cls-1{fill:#afcad7;}.cls-1,.cls-10,.cls-11,.cls-13,.cls-17,.cls-19,.cls-20,.cls-21,.cls-22,.cls-23,.cls-24,.cls-25,.cls-26,.cls-30,.cls-31,.cls-32,.cls-33,.cls-34,.cls-35,.cls-37,.cls-38,.cls-4,.cls-5,.cls-6,.cls-7,.cls-8,.cls-9{fill-rule:evenodd;}.cls-2{fill:#c0dce9;}.cls-3{fill:#8ca4ad;}.cls-28,.cls-4{fill:#fdfdfd;}.cls-18,.cls-5{fill:#d8d9d9;}.cls-6{fill:#ebebeb;}.cls-41,.cls-7{fill:#c5d1d6;}.cls-8{fill:#d4e3e9;}.cls-16,.cls-9{fill:#b9c5ca;}.cls-10{fill:#dfe1e1;}.cls-11{fill:#cccdcd;}.cls-12,.cls-17{fill:#f2f2f2;}.cls-13,.cls-15{fill:#ffae00;}.cls-14{fill:#f9e771;}.cls-19{fill:#f6a3bc;}.cls-20{fill:#ffb0c8;}.cls-21{fill:#ffc9de;}.cls-22{fill:#ffc900;}.cls-23,.cls-39{fill:#ffed84;}.cls-24,.cls-40{fill:#ffba00;}.cls-25,.cls-27{fill:#fff9dc;}.cls-26,.cls-29{fill:#fdf5c2;}.cls-30{fill:#a3becc;}.cls-31{fill:#97b3c0;}.cls-32{fill:#d1f8de;}.cls-33{fill:#95f0b9;}.cls-34,.cls-36{fill:#c6e7d1;}.cls-35{fill:#89dfac;}.cls-37{fill:#d0dde2;}.cls-38{fill:#dfeef5;}.cls-42{fill:#fff3b0;}.cls-43{fill:#f9eda5;}</style></defs><path class="cls-1" d="M1118.61,397.91l.08-215.33c0-15.42-12.2-28-27.17-28l-381.46-.15c-15,0-27.19,12.56-27.19,28l-.09,215.33c0,15.41,12.2,28,27.17,28l381.46.15c15,0,27.19-12.56,27.2-28Z"/><path class="cls-2" d="M1001.23,270.3a26.27,26.27,0,0,1,0,36.4,24.55,24.55,0,0,1-35.25,0,26.28,26.28,0,0,1,0-36.4A24.54,24.54,0,0,1,1001.23,270.3Z"/><path class="cls-2" d="M1001.27,189.52a26.14,26.14,0,0,1,0,36.29,24.36,24.36,0,0,1-35.25,0,26.14,26.14,0,0,1,0-36.29A24.37,24.37,0,0,1,1001.27,189.52Z"/><path class="cls-2" d="M1001.2,351.19a26.14,26.14,0,0,1,0,36.29,24.37,24.37,0,0,1-35.25,0,26.13,26.13,0,0,1,0-36.29A24.37,24.37,0,0,1,1001.2,351.19Z"/><path class="cls-2" d="M1081.42,189.56a26.13,26.13,0,0,1,0,36.29,24.37,24.37,0,0,1-35.25,0,26.33,26.33,0,0,1,0-36.29A24.35,24.35,0,0,1,1081.42,189.56Z"/><path class="cls-2" d="M725.32,225.7a26.13,26.13,0,0,1,0-36.29,24.37,24.37,0,0,1,35.25,0,26.13,26.13,0,0,1,0,36.29A24.35,24.35,0,0,1,725.32,225.7Z"/><path class="cls-2" d="M1081.36,351.22a26.13,26.13,0,0,1,0,36.29,24.35,24.35,0,0,1-35.24,0,26.33,26.33,0,0,1,0-36.29A24.36,24.36,0,0,1,1081.36,351.22Z"/><path class="cls-2" d="M920.94,351.15a26.14,26.14,0,0,1,0,36.29,24.36,24.36,0,0,1-35.25,0,26.14,26.14,0,0,1,0-36.29A24.37,24.37,0,0,1,920.94,351.15Z"/><path class="cls-2" d="M1081.39,270.33a26.27,26.27,0,0,1,0,36.4,24.54,24.54,0,0,1-35.25,0,26.48,26.48,0,0,1,0-36.4A24.55,24.55,0,0,1,1081.39,270.33Z"/><path class="cls-2" d="M760.51,351.09a26.13,26.13,0,0,1,0,36.29,24.37,24.37,0,0,1-35.25,0,26.14,26.14,0,0,1,0-36.29A24.36,24.36,0,0,1,760.51,351.09Z"/><path class="cls-2" d="M840.74,189.46a26.14,26.14,0,0,1,0,36.29,24.37,24.37,0,0,1-35.25,0,26.34,26.34,0,0,1,0-36.29A24.37,24.37,0,0,1,840.74,189.46Z"/><path class="cls-2" d="M760.55,270.2a26.28,26.28,0,0,1,0,36.4,24.54,24.54,0,0,1-35.25,0,26.28,26.28,0,0,1,0-36.4A24.55,24.55,0,0,1,760.55,270.2Z"/><path class="cls-2" d="M840.67,351.12a26.14,26.14,0,0,1,0,36.29,24.37,24.37,0,0,1-35.25,0,26.34,26.34,0,0,1,0-36.29A24.37,24.37,0,0,1,840.67,351.12Z"/><path class="cls-2" d="M921,189.49a26.13,26.13,0,0,1,0,36.29,24.37,24.37,0,0,1-35.25,0,26.14,26.14,0,0,1,0-36.29A24.37,24.37,0,0,1,921,189.49Z"/><path class="cls-2" d="M840.7,270.24a26.25,26.25,0,0,1,0,36.39,24.54,24.54,0,0,1-35.25,0,26.47,26.47,0,0,1,0-36.4A24.54,24.54,0,0,1,840.7,270.24Z"/><ellipse class="cls-2" cx="903.34" cy="288.46" rx="24.98" ry="25.68"/><path class="cls-3" d="M993.48,274.78a26.28,26.28,0,0,1,0,36.4,24.55,24.55,0,0,1-35.25,0,26.25,26.25,0,0,1,0-36.39A24.54,24.54,0,0,1,993.48,274.78Z"/><path class="cls-3" d="M993.51,194a26.13,26.13,0,0,1,0,36.29,24.37,24.37,0,0,1-35.25,0,26.13,26.13,0,0,1,0-36.29A24.35,24.35,0,0,1,993.51,194Z"/><path class="cls-3" d="M1073.67,194a26.12,26.12,0,0,1,0,36.28,24.36,24.36,0,0,1-35.25,0,26.34,26.34,0,0,1,0-36.29A24.37,24.37,0,0,1,1073.67,194Z"/><path class="cls-3" d="M993.45,355.67a26.13,26.13,0,0,1,0,36.29,24.37,24.37,0,0,1-35.25,0,26.14,26.14,0,0,1,0-36.29A24.37,24.37,0,0,1,993.45,355.67Z"/><ellipse class="cls-3" cx="895.55" cy="373.77" rx="24.92" ry="25.66"/><ellipse class="cls-3" cx="1056.01" cy="293" rx="24.94" ry="25.72"/><ellipse class="cls-3" cx="1055.97" cy="373.84" rx="24.89" ry="25.7"/><path class="cls-3" d="M717.56,230.18a26.14,26.14,0,0,1,0-36.29,24.37,24.37,0,0,1,35.25,0,26.13,26.13,0,0,1,0,36.28A24.36,24.36,0,0,1,717.56,230.18Z"/><ellipse class="cls-3" cx="895.58" cy="292.94" rx="24.98" ry="25.68"/><path class="cls-3" d="M752.76,355.57a26.14,26.14,0,0,1,0,36.29,24.37,24.37,0,0,1-35.25,0,26.13,26.13,0,0,1,0-36.29A24.37,24.37,0,0,1,752.76,355.57Z"/><path class="cls-3" d="M752.79,274.68a26.27,26.27,0,0,1,0,36.4,24.55,24.55,0,0,1-35.25,0,26.27,26.27,0,0,1,0-36.4A24.53,24.53,0,0,1,752.79,274.68Z"/><path class="cls-3" d="M833,193.94a26.13,26.13,0,0,1,0,36.29,24.37,24.37,0,0,1-35.25,0,26.33,26.33,0,0,1,0-36.29A24.35,24.35,0,0,1,833,193.94Z"/><path class="cls-3" d="M913.25,194a26.13,26.13,0,0,1,0,36.29,24.36,24.36,0,0,1-35.24,0A26.13,26.13,0,0,1,878,194,24.36,24.36,0,0,1,913.25,194Z"/><ellipse class="cls-3" cx="815.29" cy="373.74" rx="24.89" ry="25.7"/><ellipse class="cls-3" cx="815.32" cy="292.91" rx="24.94" ry="25.72"/><path class="cls-4" d="M1078.84,272.08a24.37,24.37,0,0,0-35.25,0,26.14,26.14,0,0,0,0,36.29,24.37,24.37,0,0,0,35.25,0,26.13,26.13,0,0,0,0-36.29Z"/><path class="cls-5" d="M1078.84,272.08a24.26,24.26,0,0,0-2.44-2.19l-34.94,35.95a23.35,23.35,0,0,0,2.12,2.52Z"/><path class="cls-6" d="M1043.58,308.36c.74.76,1.59,1.53,2.33,2.18L1081,274.49c-.64-.77-1.38-1.64-2.13-2.41Z"/><path class="cls-4" d="M998.58,272.05a24.37,24.37,0,0,0-35.25,0,26.13,26.13,0,0,0,0,36.29,24.36,24.36,0,0,0,35.24,0,26.13,26.13,0,0,0,0-36.29Z"/><path class="cls-5" d="M998.58,272.05a22.05,22.05,0,0,0-2.34-2.19q-17.52,18-35,35.95a23.33,23.33,0,0,0,2.13,2.51c11.78-12.12,23.57-24.14,35.26-36.27Z"/><path class="cls-6" d="M963.32,308.32a22,22,0,0,0,2.44,2.19c11.68-12,23.26-24,34.94-36.06-.64-.76-1.38-1.64-2.12-2.4-11.69,12.13-23.48,24.15-35.26,36.27Z"/><path class="cls-4" d="M918.42,272a24.48,24.48,0,0,0-35.35,0,26.33,26.33,0,0,0,0,36.29,24.5,24.5,0,0,0,35.36,0,26.34,26.34,0,0,0,0-36.29Z"/><path class="cls-5" d="M918.42,272c-.85-.77-1.59-1.53-2.44-2.19l-35,35.95a23.59,23.59,0,0,0,2,2.51c11.79-12.13,23.58-24.15,35.37-36.27Z"/><path class="cls-6" d="M883.05,308.29c.85.77,1.59,1.53,2.44,2.19l35-36.06c-.74-.76-1.38-1.64-2.12-2.4-11.79,12.12-23.58,24.14-35.37,36.27Z"/><path class="cls-4" d="M838.16,272a24.37,24.37,0,0,0-35.25,0,26.14,26.14,0,0,0,0,36.29,24.36,24.36,0,0,0,35.25,0,26.14,26.14,0,0,0,0-36.29Z"/><path class="cls-5" d="M838.16,272a24.14,24.14,0,0,0-2.45-2.18c-11.57,12-23.26,24-34.94,35.94a24.56,24.56,0,0,0,2.12,2.52L838.16,272Z"/><path class="cls-6" d="M802.89,308.26c.75.76,1.59,1.53,2.34,2.19l35-36.06c-.64-.77-1.38-1.64-2.12-2.41l-35.27,36.28Z"/><path class="cls-4" d="M757.89,272a24.37,24.37,0,0,0-35.25,0,26.13,26.13,0,0,0,0,36.29,24.37,24.37,0,0,0,35.25,0,26.14,26.14,0,0,0,0-36.29Z"/><path class="cls-5" d="M757.89,272a23,23,0,0,0-2.33-2.19l-35,35.95a22.26,22.26,0,0,0,2.12,2.52Z"/><path class="cls-6" d="M722.63,308.23a23,23,0,0,0,2.44,2.18L760,274.36a20.8,20.8,0,0,0-2.12-2.41Z"/><path class="cls-4" d="M1078.81,353a24.37,24.37,0,0,0-35.25,0,26.13,26.13,0,0,0,0,36.29,24.55,24.55,0,0,0,35.25,0,26.14,26.14,0,0,0,0-36.29Z"/><path class="cls-5" d="M1078.81,353a15.15,15.15,0,0,0-2.44-2.19l-34.95,36c.64.87,1.38,1.64,2.13,2.51Z"/><path class="cls-6" d="M1043.55,389.24c.74.77,1.59,1.43,2.33,2.19l35-36.06a22,22,0,0,0-2.12-2.4Z"/><path class="cls-4" d="M998.55,352.94a24.37,24.37,0,0,0-35.25,0,26.14,26.14,0,0,0,0,36.29,24.55,24.55,0,0,0,35.25,0,26.14,26.14,0,0,0,0-36.29Z"/><path class="cls-5" d="M998.55,352.94a14.53,14.53,0,0,0-2.34-2.19q-17.52,17.87-35.05,35.95c.64.87,1.38,1.64,2.12,2.51,11.79-12.13,23.58-24.26,35.27-36.27Z"/><path class="cls-6" d="M963.28,389.21c.75.77,1.59,1.42,2.44,2.19,11.69-12,23.26-24,34.95-36.06a23.16,23.16,0,0,0-2.12-2.4c-11.69,12-23.48,24.14-35.27,36.27Z"/><path class="cls-4" d="M918.39,352.9a24.5,24.5,0,0,0-35.36,0,26.34,26.34,0,0,0,0,36.29,24.66,24.66,0,0,0,35.35,0,26.34,26.34,0,0,0,0-36.29Z"/><path class="cls-5" d="M918.39,352.9a21.76,21.76,0,0,0-2.44-2.18q-17.54,17.86-35,35.94c.64.88,1.27,1.64,2,2.52Q900.71,371,918.39,352.9Z"/><path class="cls-6" d="M883,389.18l2.44,2.19,35-36.06c-.74-.88-1.38-1.64-2.12-2.41q-17.68,18-35.37,36.28Z"/><path class="cls-4" d="M838.12,352.87a24.36,24.36,0,0,0-35.25,0,26.14,26.14,0,0,0,0,36.29,24.55,24.55,0,0,0,35.25,0,26.13,26.13,0,0,0,0-36.29Z"/><path class="cls-5" d="M838.12,352.87a15.64,15.64,0,0,0-2.44-2.19l-34.94,35.95c.63.88,1.38,1.64,2.12,2.52,11.79-12.13,23.47-24.26,35.26-36.28Z"/><path class="cls-6" d="M802.86,389.15c.74.76,1.59,1.42,2.33,2.18l35.06-36.05a22.24,22.24,0,0,0-2.13-2.41c-11.79,12-23.47,24.15-35.26,36.28Z"/><path class="cls-4" d="M757.86,352.84a24.37,24.37,0,0,0-35.25,0,26.13,26.13,0,0,0,0,36.29,24.54,24.54,0,0,0,35.24,0,26.13,26.13,0,0,0,0-36.29Z"/><path class="cls-5" d="M757.86,352.84a14.56,14.56,0,0,0-2.34-2.19l-35,36c.64.87,1.38,1.64,2.13,2.51Z"/><path class="cls-6" d="M722.6,389.11c.74.77,1.59,1.43,2.44,2.19L760,355.24a14.89,14.89,0,0,0-2.12-2.4Z"/><path class="cls-4" d="M1078.88,191.2a24.54,24.54,0,0,0-35.25,0,26.14,26.14,0,0,0,0,36.29,24.36,24.36,0,0,0,35.25,0,26.13,26.13,0,0,0,0-36.28Z"/><path class="cls-5" d="M1078.88,191.2a23.09,23.09,0,0,0-2.45-2.19l-34.94,36.05a22.28,22.28,0,0,0,2.12,2.41Z"/><path class="cls-6" d="M1043.61,227.47a21.32,21.32,0,0,0,2.34,2.19l35-35.95a24.44,24.44,0,0,0-2.12-2.51Z"/><path class="cls-4" d="M998.61,191.16a24.55,24.55,0,0,0-35.25,0,26.13,26.13,0,0,0,0,36.29,24.37,24.37,0,0,0,35.25,0,26.14,26.14,0,0,0,0-36.29Z"/><path class="cls-5" d="M998.61,191.16a21.86,21.86,0,0,0-2.33-2.18q-17.53,18-35,36.05a21.13,21.13,0,0,0,2.12,2.41q17.68-18,35.26-36.28Z"/><path class="cls-6" d="M963.35,227.44a15.64,15.64,0,0,0,2.44,2.19l34.94-35.95a23.35,23.35,0,0,0-2.12-2.52q-17.52,18.19-35.26,36.28Z"/><path class="cls-4" d="M918.45,191.13a24.66,24.66,0,0,0-35.35,0,26.34,26.34,0,0,0,0,36.29,24.5,24.5,0,0,0,35.36,0,26.34,26.34,0,0,0,0-36.29Z"/><path class="cls-5" d="M918.45,191.13c-.85-.77-1.59-1.53-2.44-2.19-11.68,12-23.37,24-34.94,36.06a22.13,22.13,0,0,0,2,2.41q17.68-18,35.37-36.28Z"/><path class="cls-6" d="M883.08,227.41a22.67,22.67,0,0,0,2.44,2.18c11.69-12,23.37-23.93,35.06-35.94-.75-.88-1.38-1.75-2.13-2.52q-17.69,18.19-35.37,36.28Z"/><path class="cls-4" d="M838.19,191.1a24.55,24.55,0,0,0-35.25,0,26.13,26.13,0,0,0,0,36.29,24.36,24.36,0,0,0,35.24,0,26.13,26.13,0,0,0,0-36.29Z"/><path class="cls-5" d="M838.19,191.1a23.1,23.1,0,0,0-2.44-2.19q-17.37,18-35,36.06a22.13,22.13,0,0,0,2.13,2.4c11.78-12,23.47-24.14,35.26-36.27Z"/><path class="cls-6" d="M802.93,227.37a21.27,21.27,0,0,0,2.33,2.19c11.68-12,23.37-23.93,35-35.95a24.44,24.44,0,0,0-2.12-2.51c-11.79,12.13-23.48,24.25-35.26,36.27Z"/><path class="cls-4" d="M757.92,191.06a24.54,24.54,0,0,0-35.24,0,26.13,26.13,0,0,0,0,36.29,24.36,24.36,0,0,0,35.25,0,26.13,26.13,0,0,0,0-36.29Z"/><path class="cls-5" d="M757.92,191.06a21.86,21.86,0,0,0-2.33-2.18l-35.05,36.05a22.28,22.28,0,0,0,2.12,2.41Z"/><path class="cls-6" d="M722.66,227.34a15.15,15.15,0,0,0,2.44,2.19l34.95-35.95a16.17,16.17,0,0,0-2.13-2.52Z"/><path class="cls-2" d="M1098.49,250.56,703,250.4a2.08,2.08,0,0,1,0-4.16l395.48.16a2.08,2.08,0,0,1,0,4.16Z"/><path class="cls-2" d="M703,329.75l395.48.16a2.05,2.05,0,0,1,2,2.08,2.13,2.13,0,0,1-2,2.08L703,333.91a2.12,2.12,0,0,1-2-2.08A2.05,2.05,0,0,1,703,329.75Z"/><path class="cls-7" d="M71.13,152.2c-20,0-36.43,16.82-36.43,37.37l-.09,217.08c0,10.39,8.27,18.81,18.25,18.81l116.79.05c10,0,18.16-8.41,18.16-18.8l.09-217.08c0-20.55-16.34-37.39-36.3-37.4v-6.44l-80.48,0Z"/><path class="cls-8" d="M53,185.31h0a4.6,4.6,0,0,0-4.57,4.7L48.31,400.1a4.69,4.69,0,0,0,4.56,4.81h0a4.78,4.78,0,0,0,4.67-4.81L57.63,190A4.69,4.69,0,0,0,53,185.31Z"/><path class="cls-9" d="M148.2,425.5h21.45c10,0,18.16-8.41,18.16-18.8l.09-217.08c0-20.55-16.34-37.39-36.3-37.4v-6.44H136.74v6.45c12.63,0,23,16.84,23,37.39l-.08,217.08c0,10.39-5.21,18.8-11.48,18.8Z"/><path class="cls-10" d="M159.25,145.79l-95.76,0a5.8,5.8,0,0,1-5.74-5.91l0-40.44a5.87,5.87,0,0,1,5.74-5.9h5.62v-.43a5.87,5.87,0,0,1,5.74-5.9l73,0a5.78,5.78,0,0,1,5.63,5.9v.44h5.73A5.87,5.87,0,0,1,165,99.45v40.44a5.8,5.8,0,0,1-5.74,5.9Z"/><path class="cls-11" d="M159.25,145.79H138.76c1.8,0,3.29-2.62,3.29-5.9l0-40.44c0-3.17-1.48-5.91-3.29-5.91h-3.29v-.44c0-3.28-1.48-5.9-3.29-5.9h15.71a5.78,5.78,0,0,1,5.63,5.9v.44h5.73A5.87,5.87,0,0,1,165,99.45v40.44a5.8,5.8,0,0,1-5.74,5.9Z"/><path class="cls-10" d="M134.8,221.2l-100.12,0-.06,145.38,100.12,0a6.18,6.18,0,0,0,6.06-6.34l0-132.81a6.14,6.14,0,0,0-6-6.23Z"/><rect class="cls-12" x="48.35" y="221.17" width="9.24" height="145.38"/><path class="cls-13" d="M120.67,242.84l-86,0v29.73l86,0a1.82,1.82,0,0,0,1.8-1.86l0-25.91a1.91,1.91,0,0,0-1.81-2Z"/><rect class="cls-14" x="48.36" y="242.81" width="9.24" height="29.73"/><path class="cls-15" d="M82.32,305.89v6.34a1.2,1.2,0,0,1-1.17,1.2l-46.5,0v-8.85l46.5,0A1.23,1.23,0,0,1,82.32,305.89Z"/><path class="cls-15" d="M104.41,285a1.2,1.2,0,0,1,1.17,1.2v6.34a1.24,1.24,0,0,1-1.17,1.32l-69.76,0V285Z"/><rect class="cls-14" x="48.34" y="304.57" width="9.24" height="8.85"/><rect class="cls-14" x="48.35" y="285" width="9.24" height="8.85"/><rect class="cls-16" x="71.13" y="145.77" width="80.48" height="6.45"/><path class="cls-17" d="M73.68,137.23h0A4.78,4.78,0,0,1,69,132.42V107.06a4.69,4.69,0,0,1,4.67-4.7h0a4.6,4.6,0,0,1,4.57,4.7v25.36a4.7,4.7,0,0,1-4.57,4.81Z"/><path class="cls-6" d="M1019.53,186.36,897.06,69.68a16.75,16.75,0,0,0-24.11,1L691,273.13a18,18,0,0,0,1,24.81L814.42,414.62a16.74,16.74,0,0,0,24.1-1l182-202.47a18,18,0,0,0-.94-24.81Z"/><path class="cls-18" d="M910.14,262.61a30.27,30.27,0,0,1,1.58,41.76,28.26,28.26,0,0,1-40.67,1.73,30.19,30.19,0,0,1-1.57-41.86A28.15,28.15,0,0,1,910.14,262.61Z"/><path class="cls-18" d="M970.16,195.74a30.31,30.31,0,0,1,1.57,41.87,28.15,28.15,0,0,1-40.66,1.62,30.19,30.19,0,0,1-1.58-41.86A28.16,28.16,0,0,1,970.16,195.74Z"/><path class="cls-18" d="M852.85,164.65a30.06,30.06,0,0,1-1.58-41.75,28.14,28.14,0,0,1,40.56-1.74A30.3,30.3,0,0,1,893.51,163,28.15,28.15,0,0,1,852.85,164.65Z"/><path class="cls-18" d="M731.14,256.42a28.34,28.34,0,0,1,40.67-1.62,30.19,30.19,0,0,1,1.57,41.86,28.15,28.15,0,0,1-40.66,1.62A30.19,30.19,0,0,1,731.14,256.42Z"/><path class="cls-18" d="M850,329.37a30.2,30.2,0,0,1,1.58,41.87,28.15,28.15,0,0,1-40.67,1.62A30.4,30.4,0,0,1,809.36,331,28.15,28.15,0,0,1,850,329.37Z"/><path class="cls-18" d="M831.82,188a30.21,30.21,0,0,1,1.58,41.87,28.15,28.15,0,0,1-40.67,1.62,30.3,30.3,0,0,1-1.57-41.86A28.15,28.15,0,0,1,831.82,188Z"/><path class="cls-19" d="M974.4,190.83a28.33,28.33,0,0,0-40.66,1.62c-10.73,12-10.1,30.82,1.58,41.86A28.14,28.14,0,0,0,976,232.69a30.19,30.19,0,0,0-1.58-41.86Z"/><path class="cls-20" d="M974.4,190.83a28.33,28.33,0,0,0-40.66,1.62,30.16,30.16,0,0,0-7.54,18,29.24,29.24,0,0,0,8.8,16.4,28.15,28.15,0,0,0,40.66-1.62,30,30,0,0,0,7.55-17.93,29.88,29.88,0,0,0-8.81-16.5Z"/><path class="cls-19" d="M932.25,212.56l.1,1.86a2.12,2.12,0,0,0,2.23,2.19L975.35,215a2.12,2.12,0,0,0,2.12-2.29v-2a2.35,2.35,0,0,0-2.33-2.19l-40.77,1.74a2.25,2.25,0,0,0-2.12,2.29Z"/><path class="cls-21" d="M932.25,213.54l.1.88a2.12,2.12,0,0,0,2.23,2.19L975.35,215a2.12,2.12,0,0,0,2.12-2.29v-1Z"/><path class="cls-19" d="M896.19,116.36A28.16,28.16,0,0,0,855.52,118a30.2,30.2,0,0,0,1.58,41.86,28.24,28.24,0,0,0,40.66-1.62c10.73-12,10.1-30.82-1.57-41.86Z"/><path class="cls-20" d="M896.19,116.36A28.16,28.16,0,0,0,855.52,118,29.33,29.33,0,0,0,848,135.9a29.74,29.74,0,0,0,8.7,16.51,28.23,28.23,0,0,0,40.66-1.62,30.13,30.13,0,0,0,7.65-18,29.89,29.89,0,0,0-8.8-16.4Z"/><path class="cls-19" d="M854,138.09V140a2.43,2.43,0,0,0,2.33,2.19l40.77-1.63a2.45,2.45,0,0,0,2.13-2.4l-.11-1.86a2.12,2.12,0,0,0-2.23-2.19l-40.77,1.63a2.15,2.15,0,0,0-2.12,2.4Z"/><path class="cls-21" d="M854,139v1a2.43,2.43,0,0,0,2.33,2.19l40.77-1.63a2.45,2.45,0,0,0,2.13-2.4v-1Z"/><path class="cls-19" d="M914.39,257.7a28.15,28.15,0,0,0-40.66,1.62,30.19,30.19,0,0,0,1.57,41.86A28.25,28.25,0,0,0,916,299.56a30.19,30.19,0,0,0-1.58-41.86Z"/><path class="cls-20" d="M914.39,257.7a28.15,28.15,0,0,0-40.66,1.62,30,30,0,0,0-7.55,18,30.14,30.14,0,0,0,8.7,16.4,28.16,28.16,0,0,0,40.67-1.62,30.19,30.19,0,0,0,7.65-18,29.91,29.91,0,0,0-8.81-16.4Z"/><path class="cls-19" d="M872.23,279.43a11.2,11.2,0,0,0,.11,1.86,2.26,2.26,0,0,0,2.23,2.19l40.77-1.63a2.28,2.28,0,0,0,2.12-2.4,11.6,11.6,0,0,0-.1-1.86,2.12,2.12,0,0,0-2.23-2.19L874.36,277a2.16,2.16,0,0,0-2.13,2.4Z"/><path class="cls-21" d="M872.23,280.3a3,3,0,0,0,.11,1,2.26,2.26,0,0,0,2.23,2.19l40.77-1.63a2.28,2.28,0,0,0,2.12-2.4v-1c-15.07.65-30.15,1.29-45.23,1.83Z"/><path class="cls-19" d="M836.17,183.12a28.23,28.23,0,0,0-40.66,1.62,30.2,30.2,0,0,0,1.58,41.87A28.15,28.15,0,0,0,837.75,225a30.39,30.39,0,0,0-1.58-41.86Z"/><path class="cls-20" d="M836.17,183.12a28.23,28.23,0,0,0-40.66,1.62,30.38,30.38,0,0,0-7.65,18,29.92,29.92,0,0,0,8.8,16.4,28.16,28.16,0,0,0,40.67-1.62,29.88,29.88,0,0,0,7.54-17.92,30.41,30.41,0,0,0-8.7-16.51Z"/><path class="cls-19" d="M794,204.85v1.86a2.2,2.2,0,0,0,2.33,2.19l40.77-1.63a2.28,2.28,0,0,0,2.12-2.4c0-.55-.1-1.2-.1-1.86a2.27,2.27,0,0,0-2.34-2.18l-40.66,1.62a2.28,2.28,0,0,0-2.12,2.4Z"/><path class="cls-21" d="M794,205.84v.87a2.2,2.2,0,0,0,2.33,2.19l40.77-1.63a2.28,2.28,0,0,0,2.12-2.4,2.9,2.9,0,0,0-.1-.87c-15,.54-30,1.19-45.12,1.84Z"/><path class="cls-19" d="M854.38,324.46a28.25,28.25,0,0,0-40.67,1.62A30.21,30.21,0,0,0,815.29,368,28.15,28.15,0,0,0,856,366.32a30.3,30.3,0,0,0-1.57-41.86Z"/><path class="cls-20" d="M854.38,324.46a28.25,28.25,0,0,0-40.67,1.62,30.44,30.44,0,0,0-7.65,18,29.94,29.94,0,0,0,8.81,16.4,28.15,28.15,0,0,0,40.66-1.62A29.33,29.33,0,0,0,863.08,341a29.77,29.77,0,0,0-8.7-16.51Z"/><path class="cls-19" d="M812.22,346.19v1.86a2.2,2.2,0,0,0,2.33,2.19l40.77-1.63a2.26,2.26,0,0,0,2.13-2.29l-.11-2a2.25,2.25,0,0,0-2.23-2.18l-40.77,1.62a2.28,2.28,0,0,0-2.12,2.4Z"/><path class="cls-21" d="M812.22,347.18v.87a2.2,2.2,0,0,0,2.33,2.19l40.77-1.63a2.26,2.26,0,0,0,2.13-2.29v-1Z"/><path class="cls-19" d="M776.05,250a28.15,28.15,0,0,0-40.66,1.62A30.41,30.41,0,0,0,737,293.48a28.24,28.24,0,0,0,40.66-1.63A30.19,30.19,0,0,0,776.05,250Z"/><path class="cls-20" d="M776.05,250a28.15,28.15,0,0,0-40.66,1.62,29.91,29.91,0,0,0-7.54,17.92,29.86,29.86,0,0,0,8.8,16.51,28.25,28.25,0,0,0,40.67-1.62,30.3,30.3,0,0,0,7.54-18,29.26,29.26,0,0,0-8.81-16.4Z"/><path class="cls-19" d="M733.9,271.72l.1,1.86a2.28,2.28,0,0,0,2.34,2.19l40.77-1.62a2.46,2.46,0,0,0,2.12-2.41l-.1-1.86a2.21,2.21,0,0,0-2.34-2.18L736,269.32a2.28,2.28,0,0,0-2.12,2.4Z"/><path class="cls-21" d="M734,272.6v1a2.28,2.28,0,0,0,2.34,2.19l40.77-1.62a2.46,2.46,0,0,0,2.12-2.41l-.1-1Z"/><polygon class="cls-5" points="960.1 129.83 956.38 126.33 751.38 354.48 754.99 357.97 960.1 129.83"/><polygon class="cls-5" points="811.56 139.06 808.16 142.77 955.68 283.29 959.08 279.47 811.56 139.06"/><polygon class="cls-5" points="751.97 205.27 748.57 209.1 896.09 349.5 899.49 345.79 751.97 205.27"/><path class="cls-22" d="M821.25,79.71,557.84,79.6l-.13,324.75c0,11.69,9.33,21.32,20.69,21.32l222.11.09c11.36,0,20.6-9.61,20.6-21.3Z"/><path class="cls-23" d="M584.06,95h0a8.21,8.21,0,0,0-8.08,8.31l-.11,292.5a8.18,8.18,0,0,0,8.06,8.31h0a8.18,8.18,0,0,0,8.07-8.3l.12-292.51A8.19,8.19,0,0,0,584.06,95Z"/><path class="cls-24" d="M821.25,79.71l-61,0-.13,334.59a11.3,11.3,0,0,1-11,11.47l51.39,0c11.36,0,20.6-9.61,20.6-21.3Z"/><path class="cls-25" d="M829.32,79.71,549.88,79.6c-8.6,0-15.61-7.44-15.6-16.51V43.63c0-9.07,7-16.61,15.62-16.61l279.44.11c8.49,0,15.49,7.55,15.49,16.63V63.21c0,9.07-7,16.5-15.5,16.5Z"/><path class="cls-26" d="M829.32,79.71,549.88,79.6c-8.6,0-15.61-7.44-15.6-16.51V57.73l310.54.13v5.35c0,9.07-7,16.5-15.5,16.5Z"/><rect class="cls-27" x="557.79" y="132.34" width="263.41" height="124.5"/><rect class="cls-28" x="575.95" y="132.3" width="16.14" height="124.5"/><rect class="cls-29" x="760.26" y="132.38" width="60.94" height="124.5"/><path class="cls-1" d="M549.12,105l-141.31-.06a10.76,10.76,0,0,0-10.51,10.82l0,49.29a4.89,4.89,0,0,0,4.77,4.92l152.78.07a5,5,0,0,0,4.78-4.92l0-49.3A10.76,10.76,0,0,0,549.12,105Z"/><path class="cls-30" d="M549.12,105l-35.88,0c2.86,0,5.2,4.92,5.2,10.83l0,49.29c0,2.63-1.07,4.92-2.34,4.92l38.75,0a5,5,0,0,0,4.78-4.92l0-49.3A10.76,10.76,0,0,0,549.12,105Z"/><path class="cls-31" d="M414.71,104.9v-2.51a5.06,5.06,0,0,1,5-5.14l117.53,0a5,5,0,0,1,4.89,5.14V105Z"/><path class="cls-32" d="M542.83,170l-128.78-.05v13.44h0c-14.44,0-26.23,12.13-26.23,27l-.09,207.14a8.1,8.1,0,0,0,7.86,8.09l165.41.07a8.14,8.14,0,0,0,8-8.09L569,210.45c0-14.87-11.88-27-26.21-27h0Z"/><path class="cls-4" d="M407,216.72h0a5.05,5.05,0,0,0-5,5.13L402,405.49a5.12,5.12,0,0,0,5,5.14h0a5.15,5.15,0,0,0,5-5.14L412,221.86a5.06,5.06,0,0,0-5-5.14Z"/><path class="cls-33" d="M387.79,258.9l-.07,158.61a8.1,8.1,0,0,0,7.86,8.09l165.41.07a8.14,8.14,0,0,0,8-8.09L569,259Z"/><path class="cls-32" d="M412,258.91H402L402,405.49a5.12,5.12,0,0,0,5,5.14h0a5.15,5.15,0,0,0,5-5.14Z"/><path class="cls-34" d="M542.83,170H518.31v13.45h0c8.92,0,16.24,12.14,16.23,27l-.08,207.14c0,4.37-2.23,8.08-4.89,8.08l31.43,0a8.14,8.14,0,0,0,8-8.09L569,210.45c0-14.87-11.88-27-26.21-27h0Z"/><path class="cls-35" d="M534.51,259l-.06,158.61c0,4.37-2.23,8.08-4.89,8.08l31.43,0a8.14,8.14,0,0,0,8-8.09L569,259Z"/><rect class="cls-36" x="414.05" y="169.97" width="128.78" height="9.18"/><path class="cls-37" d="M190.36,152.25c-20.07,0-36.43,16.82-36.44,37.37l-.08,217.08c0,10.38,8.16,18.8,18.14,18.81l116.79,0A18.52,18.52,0,0,0,307,406.76l.09-217.08c0-20.55-16.44-37.39-36.4-37.4v-6.45l-80.37,0Z"/><path class="cls-38" d="M172.19,185.36h0a4.7,4.7,0,0,0-4.68,4.7l-.08,210.09A4.78,4.78,0,0,0,172.1,405h0a4.71,4.71,0,0,0,4.57-4.81l.08-210.09a4.6,4.6,0,0,0-4.56-4.7Z"/><path class="cls-7" d="M267.32,425.55h21.45A18.52,18.52,0,0,0,307,406.76l.09-217.08c0-20.55-16.44-37.39-36.4-37.4v-6.45H256v6.45c12.63,0,22.92,16.84,22.92,37.39l-.09,217.08c0,10.38-5.11,18.8-11.48,18.8Z"/><path class="cls-6" d="M278.48,145.84l-95.87,0a5.8,5.8,0,0,1-5.73-5.91V99.45a5.87,5.87,0,0,1,5.74-5.9h5.73v-.43a5.8,5.8,0,0,1,5.74-5.91l72.94,0a5.81,5.81,0,0,1,5.73,5.91v.44h5.73a5.83,5.83,0,0,1,5.62,5.9v40.45a5.78,5.78,0,0,1-5.63,5.9Z"/><path class="cls-5" d="M278.48,145.84h-20.6c1.81,0,3.29-2.62,3.3-5.9V99.48c0-3.17-1.48-5.9-3.29-5.9h-3.18v-.44c0-3.28-1.49-5.9-3.29-5.9H267a5.81,5.81,0,0,1,5.73,5.91v.44h5.73a5.83,5.83,0,0,1,5.62,5.9v40.45a5.78,5.78,0,0,1-5.63,5.9Z"/><path class="cls-6" d="M254,221.25l-100.12,0-.06,145.37,100.12,0a6.23,6.23,0,0,0,6.06-6.33l.05-132.81a6.21,6.21,0,0,0-6-6.23Z"/><rect class="cls-28" x="167.47" y="221.22" width="9.24" height="145.38"/><path class="cls-24" d="M239.79,242.88l-85.89,0v29.73l85.89,0a1.82,1.82,0,0,0,1.81-1.86V244.85a1.92,1.92,0,0,0-1.81-2Z"/><rect class="cls-39" x="167.49" y="242.86" width="9.24" height="29.73"/><path class="cls-40" d="M201.44,305.94v6.34a1.2,1.2,0,0,1-1.17,1.2l-46.4,0v-8.85l46.39,0A1.22,1.22,0,0,1,201.44,305.94Z"/><path class="cls-40" d="M223.53,285.07a1.2,1.2,0,0,1,1.17,1.2v6.34a1.22,1.22,0,0,1-1.17,1.31l-69.65,0V285Z"/><rect class="cls-39" x="167.47" y="304.62" width="9.24" height="8.85"/><rect class="cls-39" x="167.47" y="285.05" width="9.24" height="8.85"/><rect class="cls-41" x="190.36" y="145.82" width="80.37" height="6.45"/><path class="cls-4" d="M192.8,137.28h0a4.7,4.7,0,0,1-4.56-4.82V107.11a4.6,4.6,0,0,1,4.57-4.7h0a4.69,4.69,0,0,1,4.67,4.7v25.36a4.79,4.79,0,0,1-4.68,4.81Z"/><path class="cls-22" d="M344.4,169.15c0,22.73-1.82,34.54-4.8,51.91-3.3,18.37-8.61,20.66,4.34,36.62,5,15.2-19.33,18.8-19.33,30.71l-.06,129.31c-.1,3.17,1.38,4.92,4.57,5.14l59.77,0c3.18-.21,4.67-2,4.67-5.13l.06-129.31c0-11.92-24.42-15.53-19.42-30.72,13-16,7.65-18.26,4.37-36.62-3-17.38-4.66-29.19-4.65-51.92,0-24.27-29.51-24.28-29.52,0Z"/><path class="cls-23" d="M334,290.58h0a3,3,0,0,0-3,3.06l0,117.94a3,3,0,0,0,3,3.06h0a3.08,3.08,0,0,0,3-3.06l.05-117.94a3.08,3.08,0,0,0-3-3.06Z"/><path class="cls-24" d="M372.11,422.86h16.78c3.18-.21,4.67-2,4.67-5.13l.06-129.31c0-11.92-24.42-15.53-19.42-30.72,13-16,7.65-18.26,4.37-36.62-3-17.38-4.66-29.19-4.65-51.92,0-12.14-7.32-18.15-14.65-18.15,3.19.11,6.37,6.12,6.37,18.14,0,22.74.72,34.55,2,51.93,1.48,18.36,3.82,20.66-1.92,36.61-2.24,15.19,8.59,18.81,8.58,30.72l-.05,129.31c0,3.17-.64,4.92-2.13,5.14Z"/><rect class="cls-42" x="324.58" y="297.59" width="69.01" height="104.28"/><rect class="cls-27" x="330.95" y="297.58" width="5.95" height="104.28"/><rect class="cls-43" x="374.27" y="297.6" width="19.32" height="104.28"/><path class="cls-24" d="M367.61,271.25a40.73,40.73,0,0,0-19.43-6.13s15.4-2.4,18.91-11.58Z"/><path class="cls-22" d="M110.43,372c22.08,0,33.55-1.73,50.43-4.9,17.84-3.27,20.07-8.84,35.56,4.61,14.87,5.14,18.27-20,29.85-20l125.6.05c3.07,0,4.77,1.53,5,4.81l0,61.43c-.22,3.28-1.91,4.81-5,4.81l-125.6-.05c-11.57,0-15-25.15-29.83-20-15.5,13.44-17.73,7.86-35.57,4.58-16.88-3.18-28.34-4.93-50.43-4.94-23.57,0-23.55-30.4,0-30.39Z"/><path class="cls-23" d="M228.39,361.37h0a3.08,3.08,0,0,1,3-3.06l114.56,0a3.1,3.1,0,0,1,3,3.07h0a3,3,0,0,1-3,3.06l-114.55-.05a3,3,0,0,1-3-3.06Z"/><path class="cls-24" d="M356.84,400.88V418c-.22,3.28-1.91,4.81-5,4.81l-125.6-.05c-11.57,0-15-25.15-29.83-20-15.5,13.44-17.73,7.86-35.57,4.58-16.88-3.18-28.34-4.93-50.43-4.94-11.67,0-17.62-7.55-17.61-15.09.1,3.28,5.94,6.56,17.62,6.56,22.08,0,33.55.78,50.43,2.21,17.83,1.43,20.06,3.83,35.57-2,14.86-2.29,18.25,8.75,29.83,8.75l125.59.05c3.08,0,4.78-.65,5-2.07Z"/><rect class="cls-42" x="235.17" y="351.77" width="101.29" height="71.05"/><rect class="cls-27" x="235.18" y="358.33" width="101.29" height="6.12"/><rect class="cls-43" x="235.16" y="402.93" width="101.29" height="19.89"/><path class="cls-24" d="M209.58,396a42.86,42.86,0,0,1-5.94-19.9S201.3,392,192.38,395.57Z"/></svg>