<svg id="Calque_1" data-name="Calque 1" xmlns="http://www.w3.org/2000/svg" viewBox="0 0 579 512.73"><defs><style>.cls-1{fill:#ccc;}.cls-2{fill:#d32f2f;}.cls-3{fill:#422918;}.cls-4{fill:#ff7043;}.cls-5{fill:#ff8a65;}.cls-11,.cls-15,.cls-16,.cls-6{fill:none;stroke-miterlimit:10;}.cls-6{stroke:#000;stroke-width:7px;}.cls-7{fill:#c1565b;}.cls-8{fill:#da638a;}.cls-9{fill:#c99d66;}.cls-10{fill:#f44336;}.cls-11{stroke:#f44336;stroke-width:52px;}.cls-12{fill:#fff;}.cls-13{fill:#d9d9d9;}.cls-14{fill:#e5332a;}.cls-15{stroke:#cccbcb;stroke-width:5px;}.cls-16{stroke:#d32f2f;stroke-width:26px;}</style></defs><path class="cls-1" d="M122.07,163.35l-18.82,10.83-7-11.78a9.06,9.06,0,0,1,3.31-12.47l3.61-2.08a9.32,9.32,0,0,1,12.63,3.3l6.55,11.06A.83.83,0,0,1,122.07,163.35Z" transform="translate(-21.1 -16.1)"/><path class="cls-1" d="M122.52,162.47,103,173.72l7,11.78a9.3,9.3,0,0,0,12.63,3.3l3.61-2.08a9,9,0,0,0,3.3-12.47Z" transform="translate(-21.1 -16.1)"/><ellipse class="cls-2" cx="331" cy="347.73" rx="88" ry="37"/><ellipse class="cls-3" cx="481.08" cy="259.23" rx="53.7" ry="51.85"/><path class="cls-4" d="M456.24,311.68l37.95-18.18,7.11,13.85a18.21,18.21,0,0,1-8.65,24.8L489,333.88a19.49,19.49,0,0,1-25.69-8.36Z" transform="translate(-21.1 -16.1)"/><ellipse class="cls-5" cx="332.63" cy="207.38" rx="157.93" ry="152.49"/><path class="cls-4" d="M465.87,125.46A146.5,146.5,0,0,1,494.18,212c0,82.88-69.14,150.07-154.44,150.07a156.24,156.24,0,0,1-108.66-43.45c28,38.41,74,63.51,126.13,63.51,85.3,0,154.44-67.18,154.44-150.06C511.65,190.38,494.13,152.66,465.87,125.46Z" transform="translate(-21.1 -16.1)"/><ellipse class="cls-3" cx="490.56" cy="201.28" rx="88.44" ry="79.29"/><ellipse class="cls-3" cx="380.01" cy="51.85" rx="53.7" ry="51.85"/><ellipse class="cls-3" cx="433.7" cy="109.79" rx="88.44" ry="79.29"/><ellipse class="cls-3" cx="297.88" cy="70.14" rx="66.33" ry="64.04"/><ellipse class="cls-3" cx="294.72" cy="103.69" rx="63.17" ry="48.8"/><ellipse class="cls-3" cx="209.44" cy="82.34" rx="53.7" ry="51.85"/><path class="cls-6" d="M253.07,185.07q3,43.79,42.85,22.61" transform="translate(-21.1 -16.1)"/><path class="cls-6" d="M347.51,239.05q3,43.8,42.84,22.61" transform="translate(-21.1 -16.1)"/><line class="cls-6" x1="239.54" y1="142.72" x2="279.97" y2="174.51"/><line class="cls-6" x1="342.63" y1="203.8" x2="383.06" y2="235.59"/><ellipse class="cls-7" cx="275.77" cy="240.93" rx="22.11" ry="30.5"/><path class="cls-8" d="M314.25,275c-2.83,6.23-7.19,10.92-14.72,12.3a1.76,1.76,0,0,1-2.42-.19l-7.06-7.89a10.09,10.09,0,0,1,.94-14.58l1.27-1.06a11,11,0,0,1,15.09,1.2l7.06,7.88A1.62,1.62,0,0,1,314.25,275Z" transform="translate(-21.1 -16.1)"/><path class="cls-9" d="M416.5,68.7h0c-.91,5.28-3.83,9.21-6.52,8.78C387.9,67,364.19,64,338.62,66c-2.7-.44-4.14-5.07-3.23-10.35h0c.91-5.28,3.83-9.21,6.52-8.78,24.3-.22,48.53,1.15,71.36,11.46C416,58.79,417.41,63.42,416.5,68.7Z" transform="translate(-21.1 -16.1)"/><path class="cls-9" d="M327.94,53.39l.36,3.7a9.51,9.51,0,0,1-8.78,10.25l-17.24,1.57a9.66,9.66,0,0,1-10.62-8.48l-.36-3.69a9.52,9.52,0,0,1,8.79-10.26l17.23-1.57A9.66,9.66,0,0,1,327.94,53.39Z" transform="translate(-21.1 -16.1)"/><path class="cls-10" d="M440.36,528.83H265.49c-26.72,0-48.38-9.71-48.38-21.68V397.56c0-12,21.66-21.68,48.38-21.68,58.76,23.77,117,20.07,174.87,0,26.72,0,48.39,9.71,48.39,21.68V507.15C488.75,519.12,467.08,528.83,440.36,528.83Z" transform="translate(-21.1 -16.1)"/><path class="cls-2" d="M439.71,375.88a307,307,0,0,1-51.6,13.2C371.69,419.69,356.3,450.9,340.64,482c-7.45,14.78-14.8,31.81-24.41,46.87H439.71c26.72,0,48.39-9.71,48.39-21.68V397.56C488.1,385.59,466.43,375.88,439.71,375.88Z" transform="translate(-21.1 -16.1)"/><path class="cls-11" d="M86.72,245.79C82.4,267.23,76.3,314.63,101.5,360c4.24,7.64,11.19,19.91,24,31.08,44.08,38.43,109.72,22.15,120.74,19.25" transform="translate(-21.1 -16.1)"/><ellipse class="cls-5" cx="91.62" cy="222.35" rx="42.3" ry="27.04" transform="translate(-169.18 186.89) rotate(-62.99)"/><path class="cls-4" d="M114.48,184.46a31.17,31.17,0,0,0-7.74-2.32c12.87,10.58,16.39,31,7.4,49.5S86.61,260.56,70,257.76a30.52,30.52,0,0,0,6.8,4.27c18.26,8.28,41.51-2.37,51.92-23.79S132.74,192.74,114.48,184.46Z" transform="translate(-21.1 -16.1)"/><path class="cls-12" d="M166.91,215.54a.76.76,0,0,1-.64-.33l-12.89-18.55,12.12-7.85a10,10,0,0,1,5.41-1.59,9.8,9.8,0,0,1,8.08,4.16l2.49,3.58a9.08,9.08,0,0,1,1.48,7,9.29,9.29,0,0,1-4.14,6l-11.48,7.44A.82.82,0,0,1,166.91,215.54Z" transform="translate(-21.1 -16.1)"/><path class="cls-13" d="M170.91,187.09v.25a9.7,9.7,0,0,1,8,4.11l2.49,3.58a9,9,0,0,1,1.46,6.88,9.26,9.26,0,0,1-4.08,6l-11.49,7.43a.65.65,0,0,1-.9-.17L153.55,196.7l12-7.78a9.82,9.82,0,0,1,5.35-1.58v-.25m0,0a10.06,10.06,0,0,0-5.48,1.62l-12.23,7.92,13,18.66a.91.91,0,0,0,1.24.23l11.48-7.43a9.31,9.31,0,0,0,2.69-13.2l-2.48-3.58a10,10,0,0,0-8.19-4.22Z" transform="translate(-21.1 -16.1)"/><path class="cls-14" d="M149.44,225.1a9.8,9.8,0,0,1-8.09-4.16l-2.49-3.58a9.08,9.08,0,0,1-1.48-7,9.32,9.32,0,0,1,4.14-6l12.12-7.85L167,215.66l-12.11,7.85a10,10,0,0,1-5.41,1.59Z" transform="translate(-21.1 -16.1)"/><path class="cls-13" d="M153.61,196.66l13.18,19-12,7.77a9.81,9.81,0,0,1-5.34,1.58,9.71,9.71,0,0,1-8-4.11L139,217.29a8.92,8.92,0,0,1-1.45-6.88,9.17,9.17,0,0,1,4.08-6l12-7.79m.07-.34-12.23,7.92a9.3,9.3,0,0,0-2.69,13.19l2.49,3.58a10.07,10.07,0,0,0,13.67,2.6l12.22-7.91-13.46-19.38Z" transform="translate(-21.1 -16.1)"/><path class="cls-15" d="M180.9,213.63" transform="translate(-21.1 -16.1)"/><path class="cls-15" d="M182.67,211.68" transform="translate(-21.1 -16.1)"/><path class="cls-15" d="M180.78,213" transform="translate(-21.1 -16.1)"/><path class="cls-15" d="M249.17,243.74" transform="translate(-21.1 -16.1)"/><path class="cls-15" d="M248.48,240.85" transform="translate(-21.1 -16.1)"/><path class="cls-15" d="M248.44,243.41" transform="translate(-21.1 -16.1)"/><path class="cls-15" d="M233.36,241.6" transform="translate(-21.1 -16.1)"/><path class="cls-15" d="M232.73,241.85" transform="translate(-21.1 -16.1)"/><path class="cls-12" d="M58.71,151.78a8.91,8.91,0,0,1,1.91-12.58L64,136.74a9.08,9.08,0,0,1,5.4-1.76,9.2,9.2,0,0,1,7.33,3.65l7.71,10.3a.73.73,0,0,1,.13.52.72.72,0,0,1-.28.46L66.83,162.64Z" transform="translate(-21.1 -16.1)"/><path class="cls-13" d="M69.39,135.11h0a9,9,0,0,1,7.23,3.6L84.33,149a.59.59,0,0,1-.13.81L66.86,162.46l-8-10.76a8.69,8.69,0,0,1-1.66-6.57,8.78,8.78,0,0,1,3.54-5.83l3.37-2.46a9,9,0,0,1,5.33-1.73m0-.25a9.31,9.31,0,0,0-5.48,1.78l-3.37,2.46a9,9,0,0,0-1.93,12.75l8.2,11L84.35,150a.83.83,0,0,0,.18-1.16l-7.71-10.29a9.25,9.25,0,0,0-7.43-3.7Z" transform="translate(-21.1 -16.1)"/><path class="cls-14" d="M82.12,176.92a9.2,9.2,0,0,1-7.33-3.65l-8.13-10.86,18-13.15,8.13,10.86a8.92,8.92,0,0,1-1.92,12.58l-3.36,2.46a9.13,9.13,0,0,1-5.41,1.76Z" transform="translate(-21.1 -16.1)"/><path class="cls-13" d="M84.65,149.44l8,10.76a8.65,8.65,0,0,1,1.66,6.57,8.78,8.78,0,0,1-3.54,5.83l-3.37,2.46a9.07,9.07,0,0,1-12.56-1.87l-8-10.75,17.81-13m0-.35L66.49,162.38l8.2,11a9.32,9.32,0,0,0,12.91,1.92L91,172.8a9,9,0,0,0,1.93-12.75l-8.2-11Z" transform="translate(-21.1 -16.1)"/><path class="cls-15" d="M82.11,136.46" transform="translate(-21.1 -16.1)"/><path class="cls-15" d="M81.49,136.6" transform="translate(-21.1 -16.1)"/><path class="cls-16" d="M77.1,308.83c1.44,8.69,16.5,91.49,80.52,107.38a90.82,90.82,0,0,0,21.48,2.62" transform="translate(-21.1 -16.1)"/><path class="cls-2" d="M90.46,308.67a13,13,0,0,1-10.86,12,13.7,13.7,0,0,1-2.95.17,12.86,12.86,0,1,1,13.81-12.18Z" transform="translate(-21.1 -16.1)"/><ellipse class="cls-2" cx="177.94" cy="418.62" rx="12.85" ry="13.18" transform="translate(-270.14 559.34) rotate(-87.14)"/><ellipse class="cls-1" cx="91.5" cy="482.23" rx="91.5" ry="16.5"/><path class="cls-1" d="M170,276.45l-11.06-18.69,11.7-7.11a9,9,0,0,1,12.5,3.15l2.13,3.59a9.32,9.32,0,0,1-3.15,12.67l-11,6.68A.82.82,0,0,1,170,276.45Z" transform="translate(-21.1 -16.1)"/><path class="cls-1" d="M170.85,276.89l-11.48-19.41-11.7,7.12a9.29,9.29,0,0,0-3.14,12.66l2.12,3.59A9,9,0,0,0,159.16,284Z" transform="translate(-21.1 -16.1)"/><path class="cls-4" d="M253.6,283.59l-15.41,15.3-9.76-9.59a9,9,0,0,1,0-12.9l3-2.94a9.32,9.32,0,0,1,13.05-.06l9.17,9A.83.83,0,0,1,253.6,283.59Z" transform="translate(-21.1 -16.1)"/><path class="cls-4" d="M253.81,282.62l-16,15.9,9.77,9.59a9.3,9.3,0,0,0,13-.06l3-2.93a9.05,9.05,0,0,0,0-12.9Z" transform="translate(-21.1 -16.1)"/><path class="cls-12" d="M211.55,261.43a9.15,9.15,0,0,1-.29-13.26l3.09-3.12a10,10,0,0,1,13.75-.28l10,9.23a.77.77,0,0,1,.24.52.74.74,0,0,1-.21.53l-16,16.14Z" transform="translate(-21.1 -16.1)"/><path class="cls-13" d="M221.37,242.28h0a9.73,9.73,0,0,1,6.64,2.58l10,9.24a.57.57,0,0,1,.19.42.6.6,0,0,1-.17.44l-15.93,16-10.46-9.67a9,9,0,0,1-.29-13.09l3.09-3.11a9.72,9.72,0,0,1,6.94-2.86m0-.25a10,10,0,0,0-7.11,2.93l-3.09,3.12a9.27,9.27,0,0,0,.29,13.44l10.63,9.84,16.1-16.22a.85.85,0,0,0,0-1.23l-10-9.23a10,10,0,0,0-6.81-2.65Z" transform="translate(-21.1 -16.1)"/><path class="cls-14" d="M239.12,283.33a9.84,9.84,0,0,1-6.72-2.61L221.86,271,238.4,254.3,249,264.05a9.16,9.16,0,0,1,.29,13.27l-3.09,3.12a9.83,9.83,0,0,1-7,2.89Z" transform="translate(-21.1 -16.1)"/><path class="cls-13" d="M238.41,254.48l10.45,9.67a9,9,0,0,1,.29,13.08l-3.09,3.12a9.87,9.87,0,0,1-13.58.28L222,271l16.37-16.49m0-.35L221.68,271l10.63,9.83a10.11,10.11,0,0,0,13.93-.29l3.09-3.11A9.29,9.29,0,0,0,249,264l-10.63-9.83Z" transform="translate(-21.1 -16.1)"/></svg>