<svg id="Calque_1" data-name="Calque 1" xmlns="http://www.w3.org/2000/svg" viewBox="0 0 575 587.58"><defs><style>.cls-1{fill:#717a89;}.cls-2{fill:#ffdc2f;}.cls-10,.cls-11,.cls-2,.cls-5,.cls-6,.cls-7,.cls-8,.cls-9{fill-rule:evenodd;}.cls-3{fill:#737c89;}.cls-4{fill:#1960a7;}.cls-5{fill:#276eb5;}.cls-6{fill:#115193;}.cls-7{fill:#347abd;}.cls-8{fill:#93aa23;}.cls-9{fill:#a6be1c;}.cls-10{fill:#b8ce30;}.cls-11{fill:#819628;}.cls-12{fill:#ccc;}.cls-13{fill:#fff;}.cls-14{fill:#9c9b9b;}.cls-15{fill:#b1b1b1;}</style></defs><ellipse class="cls-1" cx="287.5" cy="316.46" rx="283.62" ry="267.46"/><path class="cls-2" d="M325.49,126.51C325.49,203,391.25,265,472.37,265" transform="translate(-17.1 -26.54)"/><ellipse class="cls-3" cx="287.5" cy="316.46" rx="287.5" ry="271.12"/><ellipse class="cls-4" cx="287.5" cy="316.46" rx="283.62" ry="267.46"/><path class="cls-5" d="M338.19,93.7c-106.54,0-181.46,81.45-167.33,181.93s112,181.93,218.51,181.93S570.83,376.11,556.7,275.63,444.74,93.7,338.19,93.7Z" transform="translate(-17.1 -26.54)"/><path class="cls-6" d="M89.54,168.65C46.81,215.47,21,276.39,21,343,21,490.72,148,610.46,304.6,610.46c108.83,0,203.33-57.82,250.88-142.65-52,57-129.06,93.1-215.06,93.1C183.78,560.91,56.8,441.17,56.8,293.46A254.22,254.22,0,0,1,89.54,168.65Z" transform="translate(-17.1 -26.54)"/><path class="cls-7" d="M384.31,118.81c-68.68,0-117,52.5-107.87,117.27s72.17,117.28,140.85,117.28,117-52.51,107.87-117.28S453,118.81,384.31,118.81Z" transform="translate(-17.1 -26.54)"/><path class="cls-8" d="M205.26,92.43c-87.89,31-155.12,101.94-176.82,189.41,12.21,1.8,23,2.78,30.07,2.78,30.9,0,21.49,28.08,16.82,33.79-63.26,77.25,58.53,150.16,71.13,188C167,568.12,274,630.3,222.11,523.81,196.34,471,218,410.5,260.52,370c15.46-14.71,39.5-78.47,27.37-89.9-25.58-24.12-164.31-21.84-174.95,6.75-7.49-2.37-22.14-20.69-22.19-21.39-3-40.93,8.17-40.75,33.54-51.23,17.71-7.31,49.42-40.82,62.51-8.46C204.62,249.9,289.05,244,315.36,229.15c6.84-62.33-40-40-60.81-73.2-12.38-19.78-29.15-43.25-49.29-63.52ZM536.45,497.07c31.15-41.62,50-92,51.64-146.43-13.73-8.08-25.57-20.94-29.23-45.46-3.49-23.45-1.2-49.88,2.14-76.61-26.48-52.65-70.64-95.84-125.27-122.76-6.81,5.3-18.74,10.21-41.05,12-.2,0-34.73,33.2-31.86,37.71C405.72,223.08,422,147.08,487,228c24.28,30.25,11.31,12,26.48,49.45,5.59,13.83,29.11,30.26,19.21,62.32-5.31,17.18-66.61-8.61-64.49,54.09.14,4.11-10.08,97.72-15.32,99.26-4.59,25.23-86.35,87.26-25.08,74C455,561.31,504,505.91,536.45,497.07Z" transform="translate(-17.1 -26.54)"/><path class="cls-9" d="M238.29,395.67A175.93,175.93,0,0,1,260.52,370c15.46-14.71,39.5-78.47,27.37-89.9-15.55-14.67-72.95-19.57-117.95-14.73.25,2.6.55,5.22.92,7.85,6.63,47.15,31.69,90.11,67.43,122.43ZM178.71,194.58c3.13,2.15,5.87,5.74,8.09,11.21C204.62,249.9,289.05,244,315.36,229.15c6.84-62.33-40-40-60.81-73.2-6.26-10-13.66-21-22.05-32a152.07,152.07,0,0,0-53.79,70.61Zm284.37,246c56.68-24.22,93.75-76.38,95.28-139.16a189.57,189.57,0,0,1-1.23-24.81c-.13-1.12-.27-2.25-.43-3.39-10-71.1-61.91-132.66-129.17-162.59-7.22,3.26-17.61,6-32.85,7.21-.2,0-34.73,33.2-31.86,37.71C405.72,223.08,422,147.08,487,228c24.28,30.25,11.31,12,26.48,49.45,5.59,13.83,29.11,30.26,19.21,62.32-5.31,17.18-66.61-8.61-64.49,54.09C468.28,395.83,466,417.82,463.08,440.6Z" transform="translate(-17.1 -26.54)"/><path class="cls-10" d="M284.88,177.34c-8.19,17.28-11.45,37.34-8.44,58.74.15,1.07.32,2.13.5,3.19,16-1.61,30.1-5.41,38.42-10.12,4.26-38.85-12.33-44.79-30.48-51.81ZM519.71,287.8a103.75,103.75,0,0,0,5.45-51.72c-8.71-61.92-66.73-112.63-131.83-117-6.37,6.09-33.05,32.47-30.51,36.46C405.72,223.08,422,147.08,487,228c24.28,30.25,11.31,12,26.48,49.45A54.64,54.64,0,0,0,519.71,287.8Z" transform="translate(-17.1 -26.54)"/><path class="cls-11" d="M89.52,168.68c-1,1.12-2,2.25-3,3.38l-.14.16c-1.8,2-3.56,4.11-5.3,6.2l-.14.18c-.86,1-1.7,2.06-2.54,3.1l0,0c-.87,1.08-1.72,2.16-2.57,3.25l0,.05c-.82,1-1.62,2.09-2.42,3.15l-.16.21c-1.61,2.14-3.19,4.31-4.73,6.49l-.24.33c-1.55,2.21-3.06,4.43-4.55,6.67l0,.08c-.73,1.1-1.44,2.21-2.16,3.33l-.11.18q-2.19,3.43-4.27,6.93l-.11.18q-3.13,5.31-6,10.76l0,0q-1.93,3.65-3.77,7.37l0,.05a255.19,255.19,0,0,0-18.64,51A241.53,241.53,0,0,0,57,284.61,254.34,254.34,0,0,1,89.52,168.68ZM61.46,341.89c-25.64,68.28,73.69,130.53,85,164.48,19.48,58.43,116.29,117.22,82.65,33.15C143,504.82,78.76,431.09,61.46,341.89Zm475,155.18a265.28,265.28,0,0,0,19.06-29.26C517.9,509,467.26,539.25,409.62,552.89c-8,12.35-7.16,19.76,18.19,14.3C455,561.32,504,505.94,536.42,497.07Z" transform="translate(-17.1 -26.54)"/><path class="cls-12" d="M189.72,338,416,234.58c9.52-4.35,13.53-15,8.94-23.69l-32.57-62c-34.14-65-119.3-91.42-190.21-59l-4,1.84C127.27,124.09,97.46,203.05,131.6,268l32.57,62C168.76,338.79,180.2,342.34,189.72,338Z" transform="translate(-17.1 -26.54)"/><path class="cls-12" d="M253.41,374.69l.85-.39c15-6.83,21.25-23.49,14-37.2l-18.87-35.94c-7.2-13.71-25.17-19.29-40.13-12.45l-.85.39c-15,6.83-21.25,23.49-14,37.2l18.88,35.94C220.48,376,238.45,381.53,253.41,374.69Z" transform="translate(-17.1 -26.54)"/><path class="cls-12" d="M324.52,342.2l.85-.39c15-6.84,21.25-23.49,14.05-37.21l-18.88-35.93c-7.2-13.72-25.17-19.29-40.13-12.46l-.84.39c-15,6.84-21.25,23.5-14.05,37.21l18.87,35.94C291.6,343.46,309.56,349,324.52,342.2Z" transform="translate(-17.1 -26.54)"/><path class="cls-12" d="M395.64,309.7l.85-.38c15-6.84,21.24-23.5,14-37.21l-18.87-35.94c-7.21-13.71-25.17-19.29-40.13-12.45l-.85.39c-15,6.83-21.25,23.49-14.05,37.2l18.88,35.94C362.71,311,380.68,316.54,395.64,309.7Z" transform="translate(-17.1 -26.54)"/><ellipse class="cls-12" cx="322.51" cy="169.48" rx="26.15" ry="28.44" transform="translate(-39.23 261.07) rotate(-46.64)"/><ellipse class="cls-12" cx="180.29" cy="234.47" rx="26.15" ry="28.44" transform="translate(-131.06 178.03) rotate(-46.64)"/><path class="cls-12" d="M286.36,232.1l.2-.09a6.19,6.19,0,0,0,3.21-8.5l-13.16-25a7.07,7.07,0,0,0-9.17-2.85l-.19.09a6.19,6.19,0,0,0-3.21,8.5l13.15,25A7.07,7.07,0,0,0,286.36,232.1Z" transform="translate(-17.1 -26.54)"/><path class="cls-12" d="M264.54,242.07l.2-.09a6.19,6.19,0,0,0,3.21-8.5l-13.16-25a7.07,7.07,0,0,0-9.17-2.85l-.19.09a6.19,6.19,0,0,0-3.21,8.5l13.15,25A7.07,7.07,0,0,0,264.54,242.07Z" transform="translate(-17.1 -26.54)"/><path class="cls-13" d="M145.46,319.41l250-114.1c10.53-4.8,14.89-16.65,9.74-26.47l-36.58-69.71C330.3,36.06,235.73,5.81,157.39,41.56l-4.44,2c-78.34,35.75-110.77,124-72.44,197l36.57,69.72C122.23,320.15,134.94,324.22,145.46,319.41Z" transform="translate(-17.1 -26.54)"/><path class="cls-13" d="M216.32,361l.93-.43c16.53-7.54,23.37-26.15,15.29-41.57l-21.2-40.39c-8.08-15.42-28-21.8-44.56-14.26l-.94.43c-16.53,7.54-23.37,26.15-15.28,41.57l21.19,40.4C179.84,362.17,199.79,368.55,216.32,361Z" transform="translate(-17.1 -26.54)"/><path class="cls-13" d="M294.88,325.16l.94-.43c16.52-7.54,23.36-26.15,15.28-41.57l-21.2-40.4c-8.08-15.41-28-21.79-44.56-14.25l-.94.43c-16.53,7.54-23.37,26.15-15.28,41.56l21.19,40.4C258.4,326.32,278.35,332.7,294.88,325.16Z" transform="translate(-17.1 -26.54)"/><path class="cls-13" d="M373.44,289.3l.94-.43c16.52-7.54,23.37-26.15,15.28-41.56l-21.19-40.4c-8.09-15.42-28-21.8-44.57-14.25l-.94.42c-16.52,7.55-23.37,26.16-15.28,41.57l21.19,40.4C337,290.46,356.91,296.84,373.44,289.3Z" transform="translate(-17.1 -26.54)"/><ellipse class="cls-14" cx="291.33" cy="131.68" rx="28.94" ry="31.91" transform="translate(-28.14 208.97) rotate(-43.27)"/><ellipse class="cls-14" cx="134.21" cy="203.39" rx="28.94" ry="31.91" transform="translate(-120.02 120.76) rotate(-43.27)"/><path class="cls-15" d="M251.75,201.54l.21-.1a6.88,6.88,0,0,0,3.49-9.49L240.69,163.8a7.87,7.87,0,0,0-10.19-3.26l-.21.1a6.89,6.89,0,0,0-3.49,9.5l14.76,28.14A7.87,7.87,0,0,0,251.75,201.54Z" transform="translate(-17.1 -26.54)"/><path class="cls-15" d="M227.64,212.54l.22-.1a6.88,6.88,0,0,0,3.49-9.49L216.58,174.8a7.87,7.87,0,0,0-10.18-3.26l-.22.1a6.89,6.89,0,0,0-3.49,9.5l14.77,28.15A7.86,7.86,0,0,0,227.64,212.54Z" transform="translate(-17.1 -26.54)"/></svg>