<svg id="Layer_1" data-name="Layer 1" xmlns="http://www.w3.org/2000/svg" viewBox="0 0 1631.12 2797.11"><defs><style>.cls-1,.cls-2{fill:#f44336;}.cls-2{font-size:45px;font-family:Raleway-SemiBold, Raleway;font-weight:600;}.cls-3{letter-spacing:-0.01em;}.cls-4{letter-spacing:-0.01em;}.cls-5{letter-spacing:0em;}.cls-6{letter-spacing:0em;}.cls-7,.cls-9{fill:none;stroke:#f44336;stroke-miterlimit:10;}.cls-7{stroke-width:20px;}.cls-8{letter-spacing:-0.03em;}.cls-9{stroke-width:17px;}.cls-10{fill:#fff;}</style></defs><path class="cls-1" d="M901,776.21l13.87-10.46L749.67,553a8.82,8.82,0,0,0-13.71-.2l-32.24,39.07-52.88-68.49a8.79,8.79,0,0,0-15.21,2.43l-34.17,98.35h-6.67V428.59l99.56-56.67V207.8l-144.2-82.06L406,207.8V371.92l105.29,59.92V624.15H503L468.8,525.8a8.67,8.67,0,0,0-6.86-5.71,8.8,8.8,0,0,0-8.35,3.28l-52.88,68.49-32.23-39.07a8.62,8.62,0,0,0-6.9-3.17,8.74,8.74,0,0,0-6.81,3.37L189.59,765.75l13.87,10.46L361.91,572.12,389.83,606l-62.51,81,13.9,10.43,59.95-77.65,17.62,21.35L315.32,849.21,331,856.79l99.92-201,16.39,19.86A33.08,33.08,0,0,0,474,689.13H630.4a33.09,33.09,0,0,0,26.73-13.51l16.38-19.86,99.92,201,15.69-7.58L685.65,641.05l17.62-21.35,60,77.65,13.89-10.43-62.5-81,27.91-33.84ZM607.38,641.36l-25.45,30.55H522.51l-25.45-30.55ZM590.66,338.24V221.44l86.22-.06V356.32Zm-60.35,15.58H570l-19.85,61.73Zm-3.2-17.22V221.45h46.08V336.6Zm4.24-132.37,18.8-45.67L569,204.23Zm56.45,0-20-48.57,85.26,48.52Zm-75.3,0-65.26,0,85.26-48.52Zm-2.85,17.21v116.8l-86.23,18.08V221.38Zm2.8,133.82L535,425.5l-96.28-54.79Zm75.41,0,73.69,15.45L565.28,425.5ZM528.7,441.78,550.15,454l27.17-15.46V624.15H528.7ZM412.05,605.6l45.53-59,26.93,77.52h-1.8l-26.16-31.4A8.8,8.8,0,0,0,442,594.43L427.25,624ZM451.67,614,462,626.4A32.91,32.91,0,0,0,443.69,644l-4.3-5.21Zm6.87,42.62A15.41,15.41,0,0,1,474,641.36h.42l25.46,30.55H474A15.4,15.4,0,0,1,458.54,656.64ZM630.4,671.91H604.53L630,641.36h.42a15.28,15.28,0,1,1,0,30.55Zm30.35-28a33,33,0,0,0-18.3-17.55L652.76,614l12.29,24.72ZM677.19,624l-14.71-29.6a8.81,8.81,0,0,0-14.59-1.68l-26.16,31.4h-1.81l26.93-77.52,45.53,59Z" transform="translate(-189.59 -62.77)"/><path class="cls-1" d="M1810.88,62.77l-17.88,4c8.84,37,23.92,127.16-26.84,165.52-17.23,13-39.74,16.72-63.57,20.64-22.15,3.64-45,7.4-65,19.09-29.78,17.39-28.57,41.31-23.12,65.55a147.8,147.8,0,0,0-50.34-11c-4.59-16.82-6.42-43.87,1.51-59.07,2.59-5,5.9-8,10.13-9.31l-5.57-16.93c-9,2.78-16.08,8.91-20.94,18.22-9.78,18.73-8.49,47.51-3.93,67.36a147.94,147.94,0,0,0-38.08,7.9c-1-4.61-1.92-9.22-2.79-13.74-4.58-23.7-9.31-48.21-31.23-68.56l-12.71,12.82c17.67,16.41,21.48,36.15,25.89,59,1.12,5.79,2.27,11.72,3.68,17.75a145.6,145.6,0,0,0-29,19.16c-13.5-24.73-40.69-42.41-71.53-45.44-33-3.26-62.11,11.25-78,38.77-32.67,56.69-18.19,122.05-4.19,185.26,7.63,34.41,14.83,66.91,14.39,97-1,69.3-16.59,122.28-89.82,155.62l7.81,16.09C1326.39,769,1339.18,702.73,1340.09,637c.46-32.07-7.3-67.08-14.8-101-13.29-60-27-122,2.27-172.87,12.35-21.44,34.25-32.28,60.08-29.75,26.85,2.64,50.17,18.92,59.61,41.11a136.62,136.62,0,0,0-35.58,91.76V674.43c0,77.12,64.9,139.85,144.68,139.85h1.52c79.78,0,144.69-62.73,144.69-139.85V466.3a135.19,135.19,0,0,0-14.19-60.36c8.75-15.49,22.06-35.55,37-32.35l4-17.36c-24.41-5.22-41.86,16.42-51.56,31.86A143.84,143.84,0,0,0,1636,348.64l-.82-3.25c-7.44-29.32-10.28-45.23,11.82-58.14,17-9.95,37.25-13.27,58.65-16.79,25-4.11,50.91-8.36,71.79-24.15C1834.42,203.26,1822.85,112.84,1810.88,62.77ZM1684.2,466.3V674.43c0,67.31-56.67,122.08-126.33,122.08h-1.52c-69.66,0-126.33-54.77-126.33-122.08V466.3c0-67.31,56.67-122.07,126.33-122.07h1.52C1627.53,344.23,1684.2,399,1684.2,466.3Z" transform="translate(-189.59 -62.77)"/><path class="cls-1" d="M1554.27,400.54c3.63,14.41,14.15,27.47,24.62,39.62,28.08,32.56,34.16,61,35.57,102,1.5,44.1.6,79.63-2.84,111.82-.18,1.64-.4,3.47-.64,5.43-2.58,21.28-8,65.57,27.6,70.55a30.79,30.79,0,0,0,4.38.31,24.15,24.15,0,0,0,16.29-5.93c12.11-10.61,12.58-32.13,11.87-47.39-.69-15.1-1.68-30.39-2.63-45.17-1.37-21.24-2.79-43.21-3.34-64.81l-.21-8c-.5-20-1-40.75-2-61.16l-.12-2.43c-2-42.82-4.32-91.37-46.34-121.37-11.81-8.43-23.46-12.2-34.63-11.18a31.26,31.26,0,0,0-22.81,12.45A30.07,30.07,0,0,0,1554.27,400.54ZM1574,385.61a13.08,13.08,0,0,1,9.57-5.08c.6,0,1.19-.07,1.78-.07,7.56,0,15.1,4.19,20.25,7.87,35,25,37,67.12,38.89,107.88l.12,2.43c1,20.22,1.48,40.83,2,60.77l.21,8c.56,21.93,2,44.07,3.37,65.48.95,14.7,1.93,29.91,2.62,44.85,1.08,23.66-3.21,31.1-5.86,33.42-1,.86-2.42,1.67-5.72,1.21-16.48-2.31-14.84-27.48-12-50.89.25-2,.48-4,.67-5.67,3.53-33,4.46-69.31,2.92-114.23-1.5-44-8.5-76.52-39.82-112.84-7.15-8.29-18-20.83-20.87-32.42A12.56,12.56,0,0,1,1574,385.61Z" transform="translate(-189.59 -62.77)"/><path class="cls-1" d="M1537.5,704.32c-18.55,0-33.64,14.59-33.64,32.52s15.09,32.53,33.64,32.53,33.63-14.59,33.63-32.53S1556,704.32,1537.5,704.32Zm0,47.27a14.76,14.76,0,1,1,0-29.5c8.42,0,15.28,6.62,15.28,14.75S1545.92,751.59,1537.5,751.59Z" transform="translate(-189.59 -62.77)"/><path class="cls-1" d="M1464.08,627.7l-18.32-1.12a213.2,213.2,0,0,0,16.12,95.79l17-6.7A195.7,195.7,0,0,1,1464.08,627.7Z" transform="translate(-189.59 -62.77)"/><path class="cls-1" d="M1510.67,596.52h0a25.4,25.4,0,0,0,9,1.6,29.38,29.38,0,0,0,13.26-3.21c12-6.09,20.57-18.52,23.58-34.09,3.59-18.57,1.06-36.15-7.54-52.23-2.48-4.63-5.25-9.07-7.93-13.35-5.11-8.16-9.93-15.86-12.4-24.26-1.61-5.46-.78-11.76.1-18.43l.26-2c.08-.67.19-1.4.3-2.17,1.08-7.36,2.71-18.47-4.63-25.8-10.46-10.45-28.38-3.08-37.32,2.92a49.82,49.82,0,0,0-19.86,26.6c-5.77,18.87.58,35.37,7.56,49a167.94,167.94,0,0,0,8.79,14.65c4.86,7.5,9.45,14.58,11.61,22.36,2.07,7.46,1.35,15.63.57,24.28l-.17,2c-.64,7.25-1.82,20.74,9.35,29.13A22.1,22.1,0,0,0,1510.67,596.52Zm-11.27-90.2c-2.9-4.48-5.65-8.72-7.89-13.09-7.75-15.17-9.61-25.62-6.41-36.08a32.34,32.34,0,0,1,12.73-17c5.37-3.61,11.65-5.4,13.71-5,.88,2.06,0,8.36-.4,10.8-.13.88-.25,1.71-.35,2.47l-.25,1.95c-1,7.77-2.18,16.58.45,25.53,3.15,10.71,8.85,19.81,14.36,28.61,2.64,4.22,5.14,8.21,7.33,12.31,6.76,12.66,8.66,26,5.8,40.78-2,10.05-7.21,18.14-14.08,21.64a9.43,9.43,0,0,1-7,.79,3.77,3.77,0,0,1-.91-.49c-2.75-2.07-2.93-6.55-2.31-13.59l.17-1.95c.88-9.81,1.78-19.94-1.13-30.43S1504.76,514.6,1499.4,506.32Z" transform="translate(-189.59 -62.77)"/><path class="cls-1" d="M828.54,1581.49l-39.79-38.85,6.72-6.57c46.67-45.56,111-45.26,173-41.11,5.72.37,11.57.74,17.32,1.2l7.53.52c4.28.3,8.51.6,12.7.84,49.44,3.14,96.21,3.61,125.92-25.32,30.76-30.11,32.37-78,31.32-128.52l-.57-19.82c-.19-5.94-.37-11.27-.46-16.7-1.33-59.43,1-121,44.48-163.36l6.72-6.55,39.8,38.85-6.73,6.57c-27.8,27.14-29.07,72.73-27.87,125.13l.66,21.33c.15,5.08.31,10.16.37,15.24,1.14,59.63-1.64,121.62-47.94,166.71-45.67,44.7-108.68,45-164.18,41.74-8.79-.55-17.42-1.2-26-1.84l-11.65-.82c-57.77-3.93-104.35-4.61-134.55,24.78Zm-12.62-38.6,13,12.66c35.55-28.52,85.65-27.74,142.29-23.92l11.69.83c8.61.64,17.19,1.27,25.85,1.82,53.62,3.14,109.43,2.91,149.54-36.34,41-40,43.43-97.63,42.37-153.27v-.05c-.06-5-.21-10-.36-14.94l-.66-21.33c-1.22-53,.1-99.64,27-131.91l-13-12.66c-32,36.9-33.66,88.71-32.45,143,.09,5.38.26,10.62.44,16l.6,20.47c1.08,52.61-.87,106.85-36.9,142.12-35.32,34.39-88.82,34-140.53,30.72-4.21-.24-8.54-.55-12.91-.85l-7.57-.52c-5.79-.46-11.53-.84-17.19-1.19C910.53,1509.66,856.34,1509.18,815.92,1542.89Z" transform="translate(-189.59 -62.77)"/><path class="cls-1" d="M970.87,1720.88l-39.38-38.78,6.63-6.54c29.7-29.33,29-74.59,25-130.7l19-1.29c3.91,55,4.67,103.66-24.17,138.2l12.65,12.47c34-39.26,33.46-91.83,29.59-146.76l19-1.27c4.23,60.15,4.51,122.67-41.55,168Z" transform="translate(-189.59 -62.77)"/><path class="cls-1" d="M993.94,1513.23c-3.44-51.59-3.8-104.9,31.84-140.06,36.65-36,93-37.88,147.59-36.81l-.39,18.57c-52.56-1-102.33.56-133.69,31.32-30.11,29.69-29.66,76.44-26.37,125.78Z" transform="translate(-189.59 -62.77)"/><path class="cls-1" d="M955.62,1503.91c-3.38-53.6-3.08-114.48,43.7-158.6,47-44.58,111.84-47.18,174-46.15l-.34,18.57c-58.27-1-118.65,1.31-160.45,40.92-41,38.65-41.21,92.39-37.95,144.12Z" transform="translate(-189.59 -62.77)"/><path class="cls-1" d="M1233.12,1354.71c-7,0-14.06-.1-21.07-.24l.4-18.58c55.59,1.18,108.67-.43,146.54-30.67l-12.79-12.16c-33.09,25.72-81,27-135.19,25.82l.41-18.57c53.79,1.11,100.61-.06,128.48-26.55l6.64-6.31,40,38-7,6.65C1341.15,1348.76,1287.26,1354.71,1233.12,1354.71Z" transform="translate(-189.59 -62.77)"/><polygon class="cls-1" points="938.81 1419.27 834.18 1317.1 847.63 1303.96 952.26 1406.14 938.81 1419.27"/><polygon class="cls-1" points="967.35 1382.12 881.74 1298.52 895.19 1285.39 980.8 1368.98 967.35 1382.12"/><polygon class="cls-1" points="758.08 1614.33 643.93 1502.87 657.38 1489.73 771.53 1601.2 758.08 1614.33"/><polygon class="cls-1" points="777.1 1567.89 691.5 1484.29 704.95 1471.16 790.55 1554.76 777.1 1567.89"/><polygon class="cls-1" points="900.76 1447.14 815.15 1363.54 828.6 1350.41 914.21 1434 900.76 1447.14"/><polygon class="cls-1" points="1148.08 1233.5 1033.93 1122.04 1047.38 1108.9 1161.53 1220.37 1148.08 1233.5"/><polygon class="cls-1" points="1100.52 1252.08 1014.91 1168.48 1028.36 1155.35 1113.97 1238.94 1100.52 1252.08"/><path class="cls-1" d="M944.88,1364c-31.47,0-57.07-25-57.07-55.73,0-27.52,20.13-50.64,47.87-55a49.35,49.35,0,0,1,9.2-.77,57.92,57.92,0,0,1,45.65,22.28,54.07,54.07,0,0,1,11.42,33.45C1002,1339,976.35,1364,944.88,1364Zm0-92.88a30.91,30.91,0,0,0-5.88.48c-18.77,2.93-32.17,18.33-32.17,36.67,0,20.49,17.06,37.16,38,37.16s38-16.67,38-37.16a35.92,35.92,0,0,0-7.58-22.25A38.65,38.65,0,0,0,944.88,1271.13Z" transform="translate(-189.59 -62.77)"/><path class="cls-1" d="M973.42,1308.28h-19a9.41,9.41,0,0,0-9.51-9.29v-18.58C960.62,1280.41,973.42,1292.91,973.42,1308.28Z" transform="translate(-189.59 -62.77)"/><path class="cls-1" d="M897.32,1317.57c-31.47,0-57.07-25-57.07-55.73s25.6-55.73,57.07-55.73a57,57,0,0,1,23.12,4.81,55.64,55.64,0,0,1,33.95,50.92h-19a37.07,37.07,0,0,0-22.68-33.95,37.71,37.71,0,0,0-15.37-3.21c-21,0-38.05,16.67-38.05,37.16S876.33,1299,897.32,1299Z" transform="translate(-189.59 -62.77)"/><path class="cls-1" d="M887.81,1261.84h-19c0-15.37,12.8-27.87,28.54-27.87v18.58A9.4,9.4,0,0,0,887.81,1261.84Z" transform="translate(-189.59 -62.77)"/><path class="cls-1" d="M982.93,1289.7v-18.57c31.47,0,57.07-25,57.07-55.74s-25.6-55.73-57.07-55.73-57.08,25-57.08,55.73h-19c0-41,34.14-74.3,76.1-74.3s76.09,33.33,76.09,74.3S1024.89,1289.7,982.93,1289.7Z" transform="translate(-189.59 -62.77)"/><path class="cls-1" d="M1021,1215.39h-19a18.82,18.82,0,0,0-19-18.57v-18.58C1003.91,1178.24,1021,1194.9,1021,1215.39Z" transform="translate(-189.59 -62.77)"/><path class="cls-1" d="M1382.44,1707.69h-57.07V1559.07h57.07Zm-38-18.58h19V1577.65h-19Z" transform="translate(-189.59 -62.77)"/><path class="cls-1" d="M1296.83,1689.11H1106.59V1577.65h190.24Zm-171.22-18.57H1277.8v-74.31H1125.61Z" transform="translate(-189.59 -62.77)"/><rect class="cls-1" x="1097.73" y="1542.75" width="47.56" height="18.58"/><rect class="cls-1" x="1097.73" y="1579.9" width="47.56" height="18.58"/><polygon class="cls-1" points="926.51 1598.48 878.95 1598.48 878.95 1542.74 926.51 1542.74 926.51 1561.32 897.98 1561.32 897.98 1579.9 926.51 1579.9 926.51 1598.48"/><rect class="cls-1" x="821.88" y="1561.32" width="66.59" height="18.58"/><rect class="cls-1" x="955.05" y="1524.17" width="19.02" height="27.87"/><rect class="cls-1" x="993.1" y="1524.17" width="19.02" height="46.44"/><rect class="cls-1" x="1031.15" y="1524.17" width="19.02" height="27.87"/><path id="Arrow" class="cls-1" d="M1441.77,1050.83a22.86,22.86,0,0,0-30.2,12.68l-28.76,73.16a22.86,22.86,0,0,0,11.93,29.22L1466.5,1198a22.85,22.85,0,0,0,18.67-41.72L1462.25,1146s0-.08,0-.09c101.52-42.31,150.33-158.93,109.08-261-4.7-11.64-17.8-17.87-29.53-13.41a22.86,22.86,0,0,0-13.06,30c32.21,78.87-5.35,169.16-83.74,202,0,0-.08,0-.06-.07l9-22.8C1458.48,1069.13,1453.26,1055.7,1441.77,1050.83Z" transform="translate(-189.59 -62.77)"/><path id="Arrow-2" data-name="Arrow" class="cls-1" d="M688.3,1050.6a22.85,22.85,0,0,1,29.63,12.91l28.77,73.16a22.86,22.86,0,0,1-11.93,29.22L663,1198a22.85,22.85,0,0,1-18.67-41.72l23-10.3c-101.82-42.37-150.67-159.45-108.92-261.7a22.86,22.86,0,0,1,42.32,17.28c-32.23,78.9,5.38,169.24,83.85,202.09l-9.21-23.42A22.86,22.86,0,0,1,688.3,1050.6Z" transform="translate(-189.59 -62.77)"/><text class="cls-2" transform="translate(222.47 45.43)">Bac<tspan class="cls-3" x="80.91" y="0">t</tspan><tspan x="96.84" y="0">eriophage</tspan></text><text x="-189.59" y="-62.77"/><text class="cls-2" transform="translate(1314.27 45.43)">Bac<tspan class="cls-4" x="80.91" y="0">t</tspan><tspan x="96.84" y="0">eria</tspan></text><text class="cls-2" transform="translate(691.49 1742.55)">Gen<tspan class="cls-5" x="85.99" y="0">e</tspan><tspan x="112.59" y="0">tic modific</tspan><tspan class="cls-6" x="334.34" y="0">a</tspan><tspan x="359.54" y="0">tion</tspan></text><path class="cls-1" d="M1134.56,2028.89l-1.71-176c-.06-5.77-6.36-10.4-14.08-10.32l-39.58.39c-7.71.07-13.92,4.82-13.86,10.59l1.72,176c0,5.78-6.16,10.52-13.87,10.6h-.39c-11.73.12-18.14,10.35-10.72,17.13l48.55,44.34c5.65,5.15,16.24,5.05,21.78-.22l47.67-45.28c7.29-6.91.68-17-11-16.91h-.39C1140.92,2039.29,1134.62,2034.67,1134.56,2028.89Z" transform="translate(-189.59 -62.77)"/><path class="cls-1" d="M1101.37,2757.37h1.52m-326-21.91,7.81,16.09m318.15-12h-1.52" transform="translate(-189.59 -62.77)"/><line class="cls-7" x1="1019.35" y1="2158.23" x2="1160.76" y2="2058.31"/><line class="cls-7" x1="1363.4" y1="2354.85" x2="1149.77" y2="2055.86"/><path class="cls-7" d="M648.88,2574.56" transform="translate(-189.59 -62.77)"/><path class="cls-7" d="M615.93,2822" transform="translate(-189.59 -62.77)"/><path class="cls-7" d="M1026.75,2121.7" transform="translate(-189.59 -62.77)"/><path class="cls-7" d="M1037.15,2126" transform="translate(-189.59 -62.77)"/><text x="-189.59" y="-62.77"/><text class="cls-2" transform="translate(847.57 2713.96)">Bactai<tspan class="cls-8" x="133.69" y="0">l</tspan></text><rect class="cls-9" x="773.92" y="2119.3" width="290.02" height="487.82" rx="142.6"/><path class="cls-1" d="M1039.91,2447.32h0a25.44,25.44,0,0,0,9,1.6,29.38,29.38,0,0,0,13.26-3.21c12-6.09,20.57-18.52,23.58-34.09,3.6-18.57,1.06-36.15-7.54-52.23-2.47-4.63-5.25-9.07-7.93-13.35-5.11-8.16-9.93-15.86-12.4-24.26-1.6-5.46-.78-11.76.1-18.43l.26-2c.09-.67.19-1.4.31-2.17,1.07-7.35,2.7-18.47-4.63-25.8-10.47-10.45-28.39-3.08-37.32,2.92a49.72,49.72,0,0,0-19.86,26.6c-5.78,18.87.58,35.37,7.56,49a167.94,167.94,0,0,0,8.79,14.65c4.85,7.5,9.44,14.58,11.61,22.36,2.07,7.46,1.34,15.63.57,24.28l-.18,2c-.63,7.25-1.81,20.74,9.35,29.13A22.28,22.28,0,0,0,1039.91,2447.32Zm-11.27-90.2a149,149,0,0,1-7.88-13.09c-7.76-15.17-9.62-25.62-6.41-36.08a32.31,32.31,0,0,1,12.72-17c5.37-3.61,11.65-5.41,13.71-5,.88,2.06,0,8.36-.4,10.8-.13.88-.25,1.71-.35,2.47l-.25,2c-1,7.77-2.18,16.58.46,25.53,3.14,10.71,8.84,19.81,14.35,28.61,2.64,4.22,5.14,8.21,7.33,12.31,6.77,12.66,8.66,26,5.8,40.78-1.94,10-7.21,18.14-14.08,21.64a9.41,9.41,0,0,1-7,.79,3.43,3.43,0,0,1-.91-.49c-2.75-2.07-2.93-6.55-2.32-13.59l.17-2c.88-9.81,1.78-19.94-1.13-30.43S1034,2365.4,1028.64,2357.12Z" transform="translate(-189.59 -62.77)"/><path class="cls-1" d="M1028.06,2585.42a195.75,195.75,0,0,1-14.81-88l-18.32-1.11a213.28,213.28,0,0,0,16.12,95.78" transform="translate(-189.59 -62.77)"/><path class="cls-1" d="M1087.35,2646.56c18.54,0,33.63-14.59,33.63-32.52s-15.09-32.53-33.63-32.53-33.64,14.59-33.64,32.53,15.09,32.52,33.64,32.52" transform="translate(-189.59 -62.77)"/><path class="cls-10" d="M1087.35,2628.79a14.76,14.76,0,1,1,0-29.5c8.42,0,15.28,6.62,15.28,14.75S1095.77,2628.79,1087.35,2628.79Z" transform="translate(-189.59 -62.77)"/><path class="cls-1" d="M1121.93,2251.76c3.63,14.41,14.15,27.47,24.63,39.61,28.07,32.57,34.15,61,35.56,102,1.5,44.1.6,79.63-2.84,111.82-.18,1.64-.4,3.47-.64,5.43-2.58,21.28-8,65.57,27.6,70.55a30.79,30.79,0,0,0,4.38.31,24.15,24.15,0,0,0,16.29-5.93c12.11-10.61,12.58-32.13,11.88-47.39-.7-15.1-1.69-30.39-2.64-45.17-1.37-21.25-2.79-43.21-3.34-64.81l-.21-8c-.5-20-1-40.75-2-61.16l-.12-2.43c-2-42.83-4.32-91.37-46.34-121.37-11.81-8.43-23.46-12.2-34.62-11.18a31.28,31.28,0,0,0-22.82,12.45A30.07,30.07,0,0,0,1121.93,2251.76Zm19.73-14.93a13.08,13.08,0,0,1,9.58-5.08c.59-.05,1.18-.08,1.77-.08,7.56,0,15.1,4.2,20.25,7.88,35,25,37,67.12,38.9,107.87l.11,2.44c1,20.22,1.48,40.83,2,60.77l.21,8c.56,21.93,2,44.07,3.37,65.48,1,14.7,1.93,29.91,2.62,44.85,1.09,23.66-3.2,31.1-5.86,33.42-1,.86-2.42,1.67-5.72,1.21-16.48-2.31-14.83-27.48-12-50.89.24-2,.47-3.95.66-5.67,3.53-33,4.46-69.31,2.92-114.23-1.5-44-8.5-76.52-39.82-112.84-7.15-8.29-18-20.83-20.87-32.42A12.56,12.56,0,0,1,1141.66,2236.83Z" transform="translate(-189.59 -62.77)"/><line class="cls-7" x1="1069.07" y1="2301.48" x2="1229.99" y2="2237.57"/><line class="cls-7" x1="1357.3" y1="2573.42" x2="1219.89" y2="2232.61"/><line class="cls-7" x1="1060.69" y1="2492.26" x2="1223.16" y2="2432.42"/><line class="cls-7" x1="1341.98" y1="2771.36" x2="1213.19" y2="2427.21"/><line class="cls-7" x1="812.86" y1="2165.62" x2="671.45" y2="2065.69"/><line class="cls-7" x1="468.81" y1="2362.23" x2="682.44" y2="2063.24"/><line class="cls-7" x1="773.92" y1="2311.85" x2="613" y2="2247.94"/><line class="cls-7" x1="485.7" y1="2583.79" x2="623.11" y2="2242.98"/><line class="cls-7" x1="784.31" y1="2514.5" x2="621.83" y2="2454.66"/><line class="cls-7" x1="503.01" y1="2793.6" x2="631.81" y2="2449.44"/></svg>