<svg id="Calque_1" data-name="Calque 1" xmlns="http://www.w3.org/2000/svg" viewBox="0 0 744 273"><defs><style>.cls-1{fill:#1d1d1b;}.cls-2{fill:#ffc900;}</style></defs><polygon class="cls-1" points="505.38 248 460.37 48 440.37 28 400.38 28 355.38 228 375.38 248 416.38 248 423.13 218 442.12 218 444.37 228 464.37 248 505.38 248"/><path class="cls-2" d="M444.37,228h41l-45-200h-40l-45,200h41l6.75-30h34.49Zm-32.24-70,8.25-36.65L428.62,158Z"/><polygon class="cls-1" points="310 186 260 186 260 166 330 166 330 126 310 106 260 106 260 86 330 86 330 46 310 26 200 26 200 226 220 246 330 246 330 206 310 186"/><polygon class="cls-2" points="240 186 240 146 310 146 310 106 240 106 240 66 310 66 310 26 200 26 200 226 310 226 310 186 240 186"/><polygon class="cls-1" points="175 46 155 26 35 26 35 66 55 86 75 86 75 226 95 246 135 246 135 86 175 86 175 46"/><polygon class="cls-2" points="155 26 35 26 35 66 75 66 75 226 115 226 115 66 155 66 155 26"/><polygon class="cls-1" points="720.38 249 710.38 49 690.38 29 650.38 29 622.28 119.82 600.37 49 580.37 29 540.38 29 530.38 229 550.38 249 590.43 249 592.67 204.08 600.38 229 620.38 249 650.37 249 659.8 218.52 660.33 229 680.33 249 720.38 249"/><polygon class="cls-2" points="700.38 229 690.38 29 650.38 29 615.38 142.14 580.37 29 540.38 29 530.38 229 570.43 229 574.59 145.65 600.38 229 630.37 229 656.16 145.65 660.33 229 700.38 229"/></svg>