<svg id="Calque_1" data-name="Calque 1" xmlns="http://www.w3.org/2000/svg" viewBox="0 0 685.38 223"><defs><style>.cls-1{fill:#1d1d1b;}.cls-2{fill:#e94639;}</style></defs><polygon class="cls-1" points="470.38 222 425.37 22 405.37 2 365.38 2 320.38 202 340.38 222 381.38 222 388.13 192 407.12 192 409.37 202 429.37 222 470.38 222"/><path class="cls-2" d="M444.37,228h41l-45-200h-40l-45,200h41l6.75-30h34.49Zm-32.24-70,8.25-36.65L428.62,158Z" transform="translate(-35 -26)"/><polygon class="cls-1" points="275 160 225 160 225 140 295 140 295 100 275 80 225 80 225 60 295 60 295 20 275 0 165 0 165 200 185 220 295 220 295 180 275 160"/><polygon class="cls-2" points="205 160 205 120 275 120 275 80 205 80 205 40 275 40 275 0 165 0 165 200 275 200 275 160 205 160"/><polygon class="cls-1" points="140 20 120 0 0 0 0 40 20 60 40 60 40 200 60 220 100 220 100 60 140 60 140 20"/><polygon class="cls-2" points="120 0 0 0 0 40 40 40 40 200 80 200 80 40 120 40 120 0"/><polygon class="cls-1" points="685.38 223 675.38 23 655.38 3 615.38 3 587.28 93.82 565.37 23 545.37 3 505.38 3 495.38 203 515.38 223 555.43 223 557.67 178.08 565.38 203 585.38 223 615.37 223 624.8 192.52 625.33 203 645.33 223 685.38 223"/><polygon class="cls-2" points="665.38 203 655.38 3 615.38 3 580.38 116.14 545.37 3 505.38 3 495.38 203 535.43 203 539.59 119.65 565.38 203 595.37 203 621.16 119.65 625.33 203 665.38 203"/></svg>